roboto-mono_bold-italic.sfdir
StartChar: exclam
Encoding: 33 33 1040
Width: 1202
Flags: W
LayerCount: 2
Back
Fore
SplineSet
698 509 m 1,0,-1
 451 509 l 1,1,-1
 600 1456 l 1,2,-1
 878 1456 l 1,3,-1
 698 509 l 1,0,-1
352 130 m 0,4,5
 352 164 352 164 364 193.5 c 128,-1,6
 376 223 376 223 397.5 244.5 c 128,-1,7
 419 266 419 266 448 278.5 c 128,-1,8
 477 291 477 291 511 291 c 0,9,10
 544 292 544 292 572.5 281 c 128,-1,11
 601 270 601 270 622 250.5 c 128,-1,12
 643 231 643 231 655 203 c 128,-1,13
 667 175 667 175 667 141 c 256,14,15
 667 107 667 107 655 78.5 c 128,-1,16
 643 50 643 50 621.5 29 c 128,-1,17
 600 8 600 8 571 -4 c 128,-1,18
 542 -16 542 -16 509 -16 c 0,19,20
 476 -17 476 -17 447.5 -6.5 c 128,-1,21
 419 4 419 4 398 23.5 c 128,-1,22
 377 43 377 43 364.5 70 c 128,-1,23
 352 97 352 97 352 130 c 0,4,5
EndSplineSet
EndChar
StartChar: quotedbl
Encoding: 34 34 4
Width: 1202
Flags: W
LayerCount: 2
Back
Fore
SplineSet
601 1416 m 1,0,-1
 510 1008 l 1,1,-1
 335 1008 l 1,2,-1
 418 1536 l 1,3,-1
 620 1536 l 1,4,-1
 601 1416 l 1,0,-1
999 1416 m 1,5,-1
 909 1008 l 1,6,-1
 735 1008 l 1,7,-1
 818 1536 l 1,8,-1
 1018 1536 l 1,9,-1
 999 1416 l 1,5,-1
EndSplineSet
EndChar
StartChar: numbersign
Encoding: 35 35 5
Width: 1202
Flags: W
LayerCount: 2
Back
Fore
SplineSet
594 410 m 1,0,-1
 406 410 l 1,1,-1
 263 0 l 1,2,-1
 83 0 l 1,3,-1
 225 410 l 1,4,-1
 6 410 l 1,5,-1
 36 579 l 1,6,-1
 283 579 l 1,7,-1
 384 869 l 1,8,-1
 158 869 l 1,9,-1
 188 1040 l 1,10,-1
 442 1040 l 1,11,-1
 588 1456 l 1,12,-1
 767 1456 l 1,13,-1
 623 1040 l 1,14,-1
 811 1040 l 1,15,-1
 956 1456 l 1,16,-1
 1137 1456 l 1,17,-1
 991 1040 l 1,18,-1
 1200 1040 l 1,19,-1
 1170 869 l 1,20,-1
 933 869 l 1,21,-1
 832 579 l 1,22,-1
 1046 579 l 1,23,-1
 1016 410 l 1,24,-1
 774 410 l 1,25,-1
 632 0 l 1,26,-1
 451 0 l 1,27,-1
 594 410 l 1,0,-1
463 579 m 1,28,-1
 652 579 l 1,29,-1
 752 869 l 1,30,-1
 564 869 l 1,31,-1
 463 579 l 1,28,-1
EndSplineSet
EndChar
StartChar: dollar
Encoding: 36 36 6
Width: 1202
Flags: W
LayerCount: 2
Back
Fore
SplineSet
804 389 m 0,0,1
 810 436 810 436 797.5 470.5 c 128,-1,2
 785 505 785 505 759.5 530.5 c 128,-1,3
 734 556 734 556 699.5 575 c 128,-1,4
 665 594 665 594 626 610 c 0,5,6
 548 642 548 642 477.5 681.5 c 128,-1,7
 407 721 407 721 354.5 774.5 c 128,-1,8
 302 828 302 828 273.5 898.5 c 128,-1,9
 245 969 245 969 251 1063 c 256,10,11
 257 1157 257 1157 295.5 1229.5 c 128,-1,12
 334 1302 334 1302 394.5 1353.5 c 128,-1,13
 455 1405 455 1405 534 1434.5 c 128,-1,14
 613 1464 613 1464 701 1473 c 1,15,-1
 741 1688 l 1,16,-1
 898 1688 l 1,17,-1
 858 1469 l 1,18,19
 946 1452 946 1452 1007.5 1408.5 c 128,-1,20
 1069 1365 1069 1365 1106.5 1303.5 c 128,-1,21
 1144 1242 1144 1242 1160 1165.5 c 128,-1,22
 1176 1089 1176 1089 1172 1005 c 1,23,-1
 901 1005 l 1,24,25
 903 1048 903 1048 897.5 1091.5 c 128,-1,26
 892 1135 892 1135 874.5 1170 c 128,-1,27
 857 1205 857 1205 824 1227 c 128,-1,28
 791 1249 791 1249 739 1250 c 0,29,30
 695 1251 695 1251 657.5 1238.5 c 128,-1,31
 620 1226 620 1226 591 1201.5 c 128,-1,32
 562 1177 562 1177 543.5 1142 c 128,-1,33
 525 1107 525 1107 519 1063 c 0,34,35
 513 1016 513 1016 527 982.5 c 128,-1,36
 541 949 541 949 567 924.5 c 128,-1,37
 593 900 593 900 628 881.5 c 128,-1,38
 663 863 663 863 701 847 c 0,39,40
 778 814 778 814 848 773.5 c 128,-1,41
 918 733 918 733 970 679.5 c 128,-1,42
 1022 626 1022 626 1050 555.5 c 128,-1,43
 1078 485 1078 485 1072 391 c 0,44,45
 1066 295 1066 295 1027 222.5 c 128,-1,46
 988 150 988 150 926.5 99.5 c 128,-1,47
 865 49 865 49 785 20.5 c 128,-1,48
 705 -8 705 -8 616 -17 c 1,49,-1
 580 -213 l 1,50,-1
 424 -213 l 1,51,-1
 461 -15 l 1,52,53
 366 -2 366 -2 296 38 c 128,-1,54
 226 78 226 78 180.5 139.5 c 128,-1,55
 135 201 135 201 114 281 c 128,-1,56
 93 361 93 361 97 454 c 1,57,-1
 369 453 l 1,58,59
 366 402 366 402 375 357 c 128,-1,60
 384 312 384 312 406.5 278 c 128,-1,61
 429 244 429 244 467.5 224 c 128,-1,62
 506 204 506 204 562 203 c 0,63,64
 606 202 606 202 647 214 c 128,-1,65
 688 226 688 226 721 249.5 c 128,-1,66
 754 273 754 273 776 308 c 128,-1,67
 798 343 798 343 804 389 c 0,0,1
EndSplineSet
EndChar
StartChar: percent
Encoding: 37 37 7
Width: 1202
Flags: W
LayerCount: 2
Back
Fore
SplineSet
133 1195 m 2,0,1
 140 1258 140 1258 165 1310.5 c 128,-1,2
 190 1363 190 1363 230.5 1400.5 c 128,-1,3
 271 1438 271 1438 325 1458.5 c 128,-1,4
 379 1479 379 1479 444 1478 c 0,5,6
 506 1476 506 1476 553.5 1454.5 c 128,-1,7
 601 1433 601 1433 632.5 1395.5 c 128,-1,8
 664 1358 664 1358 678 1307 c 128,-1,9
 692 1256 692 1256 688 1196 c 2,10,-1
 681 1119 l 2,11,12
 674 1057 674 1057 649 1005 c 128,-1,13
 624 953 624 953 583.5 916 c 128,-1,14
 543 879 543 879 489.5 858.5 c 128,-1,15
 436 838 436 838 372 840 c 0,16,17
 311 841 311 841 263.5 862.5 c 128,-1,18
 216 884 216 884 184 921 c 128,-1,19
 152 958 152 958 137 1008.5 c 128,-1,20
 122 1059 122 1059 126 1119 c 2,21,-1
 133 1195 l 2,0,1
312 1117 m 2,22,23
 311 1096 311 1096 313.5 1075 c 128,-1,24
 316 1054 316 1054 324.5 1037.5 c 128,-1,25
 333 1021 333 1021 348.5 1010.5 c 128,-1,26
 364 1000 364 1000 390 1000 c 0,27,28
 415 1000 415 1000 434 1010 c 128,-1,29
 453 1020 453 1020 465.5 1036.5 c 128,-1,30
 478 1053 478 1053 485.5 1074.5 c 128,-1,31
 493 1096 493 1096 496 1118 c 2,32,-1
 504 1197 l 2,33,34
 505 1218 505 1218 502.5 1239 c 128,-1,35
 500 1260 500 1260 492 1277 c 128,-1,36
 484 1294 484 1294 468 1304.5 c 128,-1,37
 452 1315 452 1315 426 1315 c 256,38,39
 400 1315 400 1315 381 1305 c 128,-1,40
 362 1295 362 1295 349.5 1278.5 c 128,-1,41
 337 1262 337 1262 329.5 1240.5 c 128,-1,42
 322 1219 322 1219 319 1197 c 2,43,-1
 312 1117 l 2,22,23
554 336 m 2,44,45
 561 399 561 399 586.5 451.5 c 128,-1,46
 612 504 612 504 652.5 541.5 c 128,-1,47
 693 579 693 579 747 599 c 128,-1,48
 801 619 801 619 865 618 c 0,49,50
 927 616 927 616 974.5 594.5 c 128,-1,51
 1022 573 1022 573 1053.5 536 c 128,-1,52
 1085 499 1085 499 1099.5 448 c 128,-1,53
 1114 397 1114 397 1110 337 c 2,54,-1
 1103 259 l 2,55,56
 1096 196 1096 196 1071 144 c 128,-1,57
 1046 92 1046 92 1006 55 c 128,-1,58
 966 18 966 18 912 -2 c 128,-1,59
 858 -22 858 -22 794 -21 c 0,60,61
 732 -20 732 -20 684.5 1.5 c 128,-1,62
 637 23 637 23 604.5 60.5 c 128,-1,63
 572 98 572 98 557 148.5 c 128,-1,64
 542 199 542 199 547 259 c 2,65,-1
 554 336 l 2,44,45
733 257 m 2,66,67
 732 237 732 237 735 216 c 128,-1,68
 738 195 738 195 747 178.5 c 128,-1,69
 756 162 756 162 772 151 c 128,-1,70
 788 140 788 140 812 140 c 0,71,72
 839 139 839 139 858 148.5 c 128,-1,73
 877 158 877 158 889 174.5 c 128,-1,74
 901 191 901 191 907.5 213 c 128,-1,75
 914 235 914 235 917 259 c 2,76,-1
 925 338 l 2,77,78
 926 359 926 359 923.5 380 c 128,-1,79
 921 401 921 401 912.5 417.5 c 128,-1,80
 904 434 904 434 888.5 444.5 c 128,-1,81
 873 455 873 455 848 455 c 0,82,83
 822 455 822 455 803 445.5 c 128,-1,84
 784 436 784 436 771 419.5 c 128,-1,85
 758 403 758 403 751 381.5 c 128,-1,86
 744 360 744 360 741 338 c 2,87,-1
 733 257 l 2,66,67
338 199 m 1,88,-1
 210 267 l 1,89,-1
 930 1290 l 1,90,-1
 1058 1222 l 1,91,-1
 338 199 l 1,88,-1
EndSplineSet
EndChar
StartChar: ampersand
Encoding: 38 38 8
Width: 1202
Flags: W
LayerCount: 2
Back
Fore
SplineSet
37 364 m 0,0,1
 42 437 42 437 69.5 496 c 128,-1,2
 97 555 97 555 140 604.5 c 128,-1,3
 183 654 183 654 237.5 694.5 c 128,-1,4
 292 735 292 735 350 770 c 1,5,6
 334 809 334 809 320 848.5 c 128,-1,7
 306 888 306 888 296 928 c 128,-1,8
 286 968 286 968 281.5 1009 c 128,-1,9
 277 1050 277 1050 281 1093 c 0,10,11
 288 1178 288 1178 321.5 1250 c 128,-1,12
 355 1322 355 1322 410 1373 c 128,-1,13
 465 1424 465 1424 538.5 1451.5 c 128,-1,14
 612 1479 612 1479 699 1477 c 0,15,16
 766 1475 766 1475 821.5 1448 c 128,-1,17
 877 1421 877 1421 915.5 1376.5 c 128,-1,18
 954 1332 954 1332 974 1273 c 128,-1,19
 994 1214 994 1214 990 1148 c 0,20,21
 987 1091 987 1091 965 1044 c 128,-1,22
 943 997 943 997 910 957 c 128,-1,23
 877 917 877 917 835.5 882.5 c 128,-1,24
 794 848 794 848 751 818 c 2,25,-1
 650 745 l 1,26,-1
 833 436 l 1,27,28
 878 499 878 499 905.5 565.5 c 128,-1,29
 933 632 933 632 943 708 c 1,30,-1
 1174 708 l 1,31,32
 1162 572 1162 572 1110 453 c 128,-1,33
 1058 334 1058 334 960 238 c 1,34,-1
 1098 0 l 1,35,-1
 805 0 l 1,36,-1
 758 81 l 1,37,38
 678 33 678 33 593.5 5.5 c 128,-1,39
 509 -22 509 -22 414 -20 c 0,40,41
 330 -19 330 -19 258.5 8.5 c 128,-1,42
 187 36 187 36 135.5 86 c 128,-1,43
 84 136 84 136 57.5 206.5 c 128,-1,44
 31 277 31 277 37 364 c 0,0,1
440 203 m 0,45,46
 495 201 495 201 546 217.5 c 128,-1,47
 597 234 597 234 646 257 c 1,48,-1
 454 598 l 1,49,-1
 443 591 l 2,50,51
 419 572 419 572 397.5 548 c 128,-1,52
 376 524 376 524 359 497 c 128,-1,53
 342 470 342 470 330.5 440 c 128,-1,54
 319 410 319 410 315 379 c 0,55,56
 311 346 311 346 316 314.5 c 128,-1,57
 321 283 321 283 336.5 259 c 128,-1,58
 352 235 352 235 377.5 219.5 c 128,-1,59
 403 204 403 204 440 203 c 0,45,46
518 1094 m 0,60,61
 511 1046 511 1046 523.5 1001.5 c 128,-1,62
 536 957 536 957 553 914 c 1,63,-1
 655 983 l 2,64,65
 694 1012 694 1012 721 1046.5 c 128,-1,66
 748 1081 748 1081 752 1132 c 0,67,68
 753 1151 753 1151 751 1172 c 128,-1,69
 749 1193 749 1193 740.5 1210.5 c 128,-1,70
 732 1228 732 1228 717 1240 c 128,-1,71
 702 1252 702 1252 678 1253 c 0,72,73
 644 1254 644 1254 616.5 1241 c 128,-1,74
 589 1228 589 1228 568 1205.5 c 128,-1,75
 547 1183 547 1183 534.5 1153.5 c 128,-1,76
 522 1124 522 1124 518 1094 c 0,60,61
EndSplineSet
EndChar
StartChar: quotesingle
Encoding: 39 39 9
Width: 1202
Flags: W
LayerCount: 2
Back
Fore
SplineSet
774 1382 m 1,0,-1
 687 993 l 1,1,-1
 504 993 l 1,2,-1
 589 1536 l 1,3,-1
 798 1536 l 1,4,-1
 774 1382 l 1,0,-1
EndSplineSet
EndChar
StartChar: parenleft
Encoding: 40 40 10
Width: 1202
Flags: W
LayerCount: 2
Back
Fore
SplineSet
333 588 m 2,0,1
 346 685 346 685 371.5 787.5 c 128,-1,2
 397 890 397 890 435 990.5 c 128,-1,3
 473 1091 473 1091 524.5 1186 c 128,-1,4
 576 1281 576 1281 641.5 1363.5 c 128,-1,5
 707 1446 707 1446 787.5 1512 c 128,-1,6
 868 1578 868 1578 964 1621 c 1,7,-1
 1007 1466 l 1,8,9
 904 1388 904 1388 829.5 1288 c 128,-1,10
 755 1188 755 1188 702.5 1075 c 128,-1,11
 650 962 650 962 617.5 839 c 128,-1,12
 585 716 585 716 567 592 c 2,13,-1
 564 567 l 2,14,15
 555 501 555 501 548 424 c 128,-1,16
 541 347 541 347 540 266 c 128,-1,17
 539 185 539 185 547 103.5 c 128,-1,18
 555 22 555 22 576 -53 c 128,-1,19
 597 -128 597 -128 634 -193.5 c 128,-1,20
 671 -259 671 -259 729 -308 c 1,21,-1
 665 -457 l 1,22,23
 581 -409 581 -409 520.5 -338 c 128,-1,24
 460 -267 460 -267 419.5 -182 c 128,-1,25
 379 -97 379 -97 355.5 -1.5 c 128,-1,26
 332 94 332 94 323 191.5 c 128,-1,27
 314 289 314 289 316.5 384.5 c 128,-1,28
 319 480 319 480 330 565 c 2,29,-1
 333 588 l 2,0,1
EndSplineSet
EndChar
StartChar: parenright
Encoding: 41 41 11
Width: 1202
Flags: W
LayerCount: 2
Back
Fore
SplineSet
851 574 m 2,0,1
 837 477 837 477 811 374 c 128,-1,2
 785 271 785 271 745 169.5 c 128,-1,3
 705 68 705 68 652 -27.5 c 128,-1,4
 599 -123 599 -123 531.5 -205.5 c 128,-1,5
 464 -288 464 -288 381.5 -353 c 128,-1,6
 299 -418 299 -418 202 -459 c 1,7,-1
 163 -306 l 1,8,9
 266 -228 266 -228 341 -128 c 128,-1,10
 416 -28 416 -28 468.5 86 c 128,-1,11
 521 200 521 200 553.5 323 c 128,-1,12
 586 446 586 446 604 570 c 2,13,-1
 608 595 l 2,14,15
 617 661 617 661 624 737.5 c 128,-1,16
 631 814 631 814 631.5 895 c 128,-1,17
 632 976 632 976 624 1058 c 128,-1,18
 616 1140 616 1140 594.5 1215.5 c 128,-1,19
 573 1291 573 1291 536 1356.5 c 128,-1,20
 499 1422 499 1422 442 1471 c 1,21,-1
 506 1619 l 1,22,23
 590 1572 590 1572 651.5 1501.5 c 128,-1,24
 713 1431 713 1431 755.5 1345.5 c 128,-1,25
 798 1260 798 1260 822.5 1164.5 c 128,-1,26
 847 1069 847 1069 858 971 c 128,-1,27
 869 873 869 873 867 777.5 c 128,-1,28
 865 682 865 682 854 597 c 2,29,-1
 851 574 l 2,0,1
EndSplineSet
EndChar
StartChar: asterisk
Encoding: 42 42 12
Width: 1202
Flags: W
LayerCount: 2
Back
Fore
SplineSet
531 641 m 1,0,-1
 167 737 l 1,1,-1
 261 935 l 1,2,-1
 604 767 l 1,3,-1
 637 1203 l 1,4,-1
 851 1203 l 1,5,-1
 746 772 l 1,6,-1
 1126 931 l 1,7,-1
 1158 715 l 1,8,-1
 755 624 l 1,9,-1
 968 296 l 1,10,-1
 783 174 l 1,11,-1
 637 546 l 1,12,-1
 377 189 l 1,13,-1
 214 319 l 1,14,-1
 531 641 l 1,0,-1
EndSplineSet
EndChar
StartChar: plus
Encoding: 43 43 13
Width: 1202
Flags: W
LayerCount: 2
Back
Fore
SplineSet
747 812 m 1,0,-1
 1102 812 l 1,1,-1
 1058 558 l 1,2,-1
 703 558 l 1,3,-1
 631 146 l 1,4,-1
 373 146 l 1,5,-1
 444 558 l 1,6,-1
 88 558 l 1,7,-1
 132 812 l 1,8,-1
 488 812 l 1,9,-1
 557 1206 l 1,10,-1
 815 1206 l 1,11,-1
 747 812 l 1,0,-1
EndSplineSet
EndChar
StartChar: comma
Encoding: 44 44 14
Width: 1202
Flags: W
LayerCount: 2
Back
Fore
SplineSet
592 23 m 2,0,1
 581 -41 581 -41 558 -101 c 128,-1,2
 535 -161 535 -161 501 -215.5 c 128,-1,3
 467 -270 467 -270 424 -318 c 128,-1,4
 381 -366 381 -366 332 -406 c 1,5,-1
 190 -328 l 1,6,7
 240 -247 240 -247 278.5 -166.5 c 128,-1,8
 317 -86 317 -86 334 9 c 2,9,-1
 374 243 l 1,10,-1
 629 243 l 1,11,-1
 592 23 l 2,0,1
EndSplineSet
EndChar
StartChar: period
Encoding: 46 46 16
Width: 1202
Flags: W
LayerCount: 2
Back
Fore
SplineSet
334 154 m 0,0,1
 334 196 334 196 348.5 231 c 128,-1,2
 363 266 363 266 388.5 291.5 c 128,-1,3
 414 317 414 317 449.5 331.5 c 128,-1,4
 485 346 485 346 526 346 c 0,5,6
 565 346 565 346 598.5 333 c 128,-1,7
 632 320 632 320 656 296.5 c 128,-1,8
 680 273 680 273 694 240 c 128,-1,9
 708 207 708 207 708 168 c 0,10,11
 708 127 708 127 693 92 c 128,-1,12
 678 57 678 57 652.5 32 c 128,-1,13
 627 7 627 7 591.5 -7 c 128,-1,14
 556 -21 556 -21 516 -21 c 0,15,16
 477 -21 477 -21 444 -8.5 c 128,-1,17
 411 4 411 4 386.5 27 c 128,-1,18
 362 50 362 50 348 82.5 c 128,-1,19
 334 115 334 115 334 154 c 0,0,1
EndSplineSet
EndChar
StartChar: zero
Encoding: 48 48 18
Width: 1202
Flags: W
LayerCount: 2
Back
Fore
SplineSet
1052 555 m 2,0,1
 1035 442 1035 442 996 337 c 128,-1,2
 957 232 957 232 891 151.5 c 128,-1,3
 825 71 825 71 730.5 23.5 c 128,-1,4
 636 -24 636 -24 509 -21 c 0,5,6
 388 -18 388 -18 309 33 c 128,-1,7
 230 84 230 84 186.5 165 c 128,-1,8
 143 246 143 246 131 347.5 c 128,-1,9
 119 449 119 449 132 554 c 2,10,-1
 186 902 l 2,11,12
 202 1014 202 1014 241.5 1119 c 128,-1,13
 281 1224 281 1224 347 1304.5 c 128,-1,14
 413 1385 413 1385 507.5 1432.5 c 128,-1,15
 602 1480 602 1480 729 1477 c 0,16,17
 810 1475 810 1475 871.5 1451 c 128,-1,18
 933 1427 933 1427 978 1386.5 c 128,-1,19
 1023 1346 1023 1346 1052 1291.5 c 128,-1,20
 1081 1237 1081 1237 1096 1174 c 128,-1,21
 1111 1111 1111 1111 1113.5 1041.5 c 128,-1,22
 1116 972 1116 972 1107 902 c 2,23,-1
 1052 555 l 2,0,1
424 684 m 1,24,-1
 842 966 l 1,25,26
 847 1009 847 1009 847.5 1058 c 128,-1,27
 848 1107 848 1107 835.5 1150 c 128,-1,28
 823 1193 823 1193 793 1222 c 128,-1,29
 763 1251 763 1251 706 1253 c 0,30,31
 643 1256 643 1256 600 1227.5 c 128,-1,32
 557 1199 557 1199 529.5 1153.5 c 128,-1,33
 502 1108 502 1108 487.5 1053 c 128,-1,34
 473 998 473 998 466 947 c 2,35,-1
 424 684 l 1,24,-1
813 764 m 1,36,-1
 392 481 l 1,37,38
 388 439 388 439 388.5 391 c 128,-1,39
 389 343 389 343 402 301.5 c 128,-1,40
 415 260 415 260 445 232 c 128,-1,41
 475 204 475 204 531 202 c 0,42,43
 595 199 595 199 638 228 c 128,-1,44
 681 257 681 257 708.5 303 c 128,-1,45
 736 349 736 349 750.5 404.5 c 128,-1,46
 765 460 765 460 773 511 c 2,47,-1
 813 764 l 1,36,-1
EndSplineSet
EndChar
StartChar: one
Encoding: 49 49 19
Width: 1202
Flags: W
LayerCount: 2
Back
Fore
SplineSet
694 0 m 1,0,-1
 420 0 l 1,1,-1
 613 1111 l 1,2,-1
 233 980 l 1,3,-1
 277 1232 l 1,4,-1
 920 1456 l 1,5,-1
 940 1456 l 1,6,-1
 694 0 l 1,0,-1
EndSplineSet
EndChar
StartChar: two
Encoding: 50 50 20
Width: 1202
Flags: W
LayerCount: 2
Back
Fore
SplineSet
967 0 m 1,0,-1
 3 0 l 1,1,-1
 34 200 l 1,2,-1
 560 697 l 2,3,4
 595 731 595 731 636 770 c 128,-1,5
 677 809 677 809 713.5 853.5 c 128,-1,6
 750 898 750 898 776.5 946 c 128,-1,7
 803 994 803 994 810 1046 c 0,8,9
 815 1086 815 1086 808.5 1121.5 c 128,-1,10
 802 1157 802 1157 783.5 1184 c 128,-1,11
 765 1211 765 1211 734.5 1227.5 c 128,-1,12
 704 1244 704 1244 661 1246 c 0,13,14
 604 1247 604 1247 559.5 1229 c 128,-1,15
 515 1211 515 1211 483.5 1178 c 128,-1,16
 452 1145 452 1145 433 1100 c 128,-1,17
 414 1055 414 1055 407 1002 c 1,18,-1
 136 1001 l 1,19,20
 144 1108 144 1108 192.5 1196 c 128,-1,21
 241 1284 241 1284 316.5 1347 c 128,-1,22
 392 1410 392 1410 488 1444 c 128,-1,23
 584 1478 584 1478 689 1476 c 0,24,25
 782 1474 782 1474 858 1444 c 128,-1,26
 934 1414 934 1414 986.5 1359.5 c 128,-1,27
 1039 1305 1039 1305 1064.5 1228.5 c 128,-1,28
 1090 1152 1090 1152 1082 1057 c 0,29,30
 1075 971 1075 971 1037 895.5 c 128,-1,31
 999 820 999 820 944 753.5 c 128,-1,32
 889 687 889 687 825 627.5 c 128,-1,33
 761 568 761 568 702 513 c 2,34,-1
 391 223 l 1,35,-1
 1003 223 l 1,36,-1
 967 0 l 1,0,-1
EndSplineSet
EndChar
StartChar: three
Encoding: 51 51 21
Width: 1202
Flags: W
LayerCount: 2
Back
Fore
SplineSet
451 850 m 1,0,-1
 586 849 l 2,1,2
 637 849 637 849 682 863.5 c 128,-1,3
 727 878 727 878 762 905 c 128,-1,4
 797 932 797 932 819.5 972.5 c 128,-1,5
 842 1013 842 1013 849 1066 c 0,6,7
 859 1150 859 1150 817.5 1200.5 c 128,-1,8
 776 1251 776 1251 691 1253 c 0,9,10
 649 1254 649 1254 612 1242 c 128,-1,11
 575 1230 575 1230 546 1207.5 c 128,-1,12
 517 1185 517 1185 497 1152.5 c 128,-1,13
 477 1120 477 1120 469 1079 c 1,14,-1
 199 1077 l 1,15,16
 206 1174 206 1174 251.5 1249 c 128,-1,17
 297 1324 297 1324 367 1375 c 128,-1,18
 437 1426 437 1426 524 1452 c 128,-1,19
 611 1478 611 1478 703 1476 c 256,20,21
 795 1474 795 1474 875 1447.5 c 128,-1,22
 955 1421 955 1421 1013 1369.5 c 128,-1,23
 1071 1318 1071 1318 1101 1243 c 128,-1,24
 1131 1168 1131 1168 1123 1069 c 0,25,26
 1118 1009 1118 1009 1095.5 959.5 c 128,-1,27
 1073 910 1073 910 1037.5 869.5 c 128,-1,28
 1002 829 1002 829 956.5 797 c 128,-1,29
 911 765 911 765 860 741 c 1,30,31
 908 718 908 718 941.5 684 c 128,-1,32
 975 650 975 650 996 607.5 c 128,-1,33
 1017 565 1017 565 1025 516.5 c 128,-1,34
 1033 468 1033 468 1029 416 c 0,35,36
 1021 308 1021 308 972.5 226 c 128,-1,37
 924 144 924 144 848 88.5 c 128,-1,38
 772 33 772 33 676.5 5.5 c 128,-1,39
 581 -22 581 -22 480 -20 c 0,40,41
 387 -18 387 -18 307.5 11 c 128,-1,42
 228 40 228 40 171 93.5 c 128,-1,43
 114 147 114 147 83 223.5 c 128,-1,44
 52 300 52 300 55 397 c 1,45,-1
 324 396 l 1,46,47
 322 311 322 311 369 258.5 c 128,-1,48
 416 206 416 206 504 203 c 0,49,50
 554 202 554 202 598 217 c 128,-1,51
 642 232 642 232 676.5 260 c 128,-1,52
 711 288 711 288 733.5 328.5 c 128,-1,53
 756 369 756 369 762 419 c 0,54,55
 775 521 775 521 725 575.5 c 128,-1,56
 675 630 675 630 575 633 c 2,57,-1
 413 634 l 1,58,-1
 451 850 l 1,0,-1
EndSplineSet
EndChar
StartChar: four
Encoding: 52 52 22
Width: 1202
Flags: W
LayerCount: 2
Back
Fore
SplineSet
915 541 m 1,0,-1
 1079 541 l 1,1,-1
 1040 316 l 1,2,-1
 876 316 l 1,3,-1
 821 0 l 1,4,-1
 550 0 l 1,5,-1
 605 316 l 1,6,-1
 19 316 l 1,7,-1
 40 502 l 1,8,-1
 791 1456 l 1,9,-1
 1074 1456 l 1,10,-1
 915 541 l 1,0,-1
320 541 m 1,11,-1
 644 541 l 1,12,-1
 746 1085 l 1,13,-1
 711 1034 l 1,14,-1
 320 541 l 1,11,-1
EndSplineSet
EndChar
StartChar: five
Encoding: 53 53 23
Width: 1202
Flags: W
LayerCount: 2
Back
Fore
SplineSet
169 721 m 1,0,-1
 377 1456 l 1,1,-1
 1164 1456 l 1,2,-1
 1123 1220 l 1,3,-1
 564 1220 l 1,4,-1
 464 898 l 1,5,6
 512 928 512 928 566.5 942 c 128,-1,7
 621 956 621 956 677 955 c 0,8,9
 781 954 781 954 854 913.5 c 128,-1,10
 927 873 927 873 971.5 806.5 c 128,-1,11
 1016 740 1016 740 1032.5 653 c 128,-1,12
 1049 566 1049 566 1040 472 c 0,13,14
 1029 364 1029 364 985 272.5 c 128,-1,15
 941 181 941 181 870.5 115 c 128,-1,16
 800 49 800 49 706 13 c 128,-1,17
 612 -23 612 -23 502 -20 c 0,18,19
 409 -18 409 -18 331 13 c 128,-1,20
 253 44 253 44 196 99.5 c 128,-1,21
 139 155 139 155 107.5 232 c 128,-1,22
 76 309 76 309 76 403 c 1,23,-1
 341 403 l 1,24,25
 343 361 343 361 355 325 c 128,-1,26
 367 289 367 289 389 262 c 128,-1,27
 411 235 411 235 444 219 c 128,-1,28
 477 203 477 203 522 202 c 0,29,30
 583 200 583 200 627 225 c 128,-1,31
 671 250 671 250 700.5 291 c 128,-1,32
 730 332 730 332 746.5 383.5 c 128,-1,33
 763 435 763 435 769 488 c 0,34,35
 774 537 774 537 768 582.5 c 128,-1,36
 762 628 762 628 741 663 c 128,-1,37
 720 698 720 698 683 719.5 c 128,-1,38
 646 741 646 741 590 742 c 0,39,40
 530 743 530 743 482 722.5 c 128,-1,41
 434 702 434 702 390 664 c 1,42,-1
 169 721 l 1,0,-1
EndSplineSet
EndChar
StartChar: six
Encoding: 54 54 24
Width: 1202
Flags: W
LayerCount: 2
Back
Fore
SplineSet
983 1469 m 1,0,-1
 959 1237 l 1,1,-1
 947 1238 l 1,2,3
 843 1239 843 1239 758 1211 c 128,-1,4
 673 1183 673 1183 605.5 1130.5 c 128,-1,5
 538 1078 538 1078 487.5 1002.5 c 128,-1,6
 437 927 437 927 404 833 c 1,7,8
 464 895 464 895 539.5 933.5 c 128,-1,9
 615 972 615 972 704 971 c 0,10,11
 804 969 804 969 873 926 c 128,-1,12
 942 883 942 883 983 814 c 128,-1,13
 1024 745 1024 745 1039.5 659 c 128,-1,14
 1055 573 1055 573 1047 486 c 0,15,16
 1038 380 1038 380 994.5 286.5 c 128,-1,17
 951 193 951 193 881 124 c 128,-1,18
 811 55 811 55 717.5 16 c 128,-1,19
 624 -23 624 -23 514 -20 c 0,20,21
 395 -17 395 -17 311 33.5 c 128,-1,22
 227 84 227 84 175.5 165 c 128,-1,23
 124 246 124 246 104.5 348 c 128,-1,24
 85 450 85 450 97 557 c 2,25,-1
 111 664 l 2,26,27
 134 832 134 832 200 978.5 c 128,-1,28
 266 1125 266 1125 371.5 1233.5 c 128,-1,29
 477 1342 477 1342 620 1405 c 128,-1,30
 763 1468 763 1468 941 1469 c 2,31,-1
 983 1469 l 1,0,-1
610 749 m 0,32,33
 572 750 572 750 538 739 c 128,-1,34
 504 728 504 728 474.5 708.5 c 128,-1,35
 445 689 445 689 420 662.5 c 128,-1,36
 395 636 395 636 376 606 c 1,37,-1
 365 522 l 2,38,39
 362 491 362 491 361.5 456 c 128,-1,40
 361 421 361 421 365 385.5 c 128,-1,41
 369 350 369 350 380 317.5 c 128,-1,42
 391 285 391 285 410 260 c 128,-1,43
 429 235 429 235 458 219.5 c 128,-1,44
 487 204 487 204 528 203 c 0,45,46
 585 201 585 201 629 226 c 128,-1,47
 673 251 673 251 704.5 291.5 c 128,-1,48
 736 332 736 332 754 382.5 c 128,-1,49
 772 433 772 433 777 483 c 0,50,51
 781 527 781 527 775.5 573.5 c 128,-1,52
 770 620 770 620 751 658.5 c 128,-1,53
 732 697 732 697 697.5 722 c 128,-1,54
 663 747 663 747 610 749 c 0,32,33
EndSplineSet
EndChar
StartChar: seven
Encoding: 55 55 25
Width: 1202
Flags: W
LayerCount: 2
Back
Fore
SplineSet
1168 1289 m 1,0,-1
 421 0 l 1,1,-1
 125 0 l 1,2,-1
 868 1229 l 1,3,-1
 164 1229 l 1,4,-1
 200 1456 l 1,5,-1
 1194 1456 l 1,6,-1
 1168 1289 l 1,0,-1
EndSplineSet
EndChar
StartChar: eight
Encoding: 56 56 26
Width: 1202
Flags: W
LayerCount: 2
Back
Fore
SplineSet
1105 1077 m 0,0,1
 1100 1018 1100 1018 1079.5 968 c 128,-1,2
 1059 918 1059 918 1026 877 c 128,-1,3
 993 836 993 836 949.5 802.5 c 128,-1,4
 906 769 906 769 855 743 c 1,5,6
 942 686 942 686 983.5 598 c 128,-1,7
 1025 510 1025 510 1018 407 c 0,8,9
 1011 302 1011 302 965 221.5 c 128,-1,10
 919 141 919 141 847 86.5 c 128,-1,11
 775 32 775 32 683 5 c 128,-1,12
 591 -22 591 -22 492 -20 c 0,13,14
 400 -19 400 -19 320 9 c 128,-1,15
 240 37 240 37 182.5 88.5 c 128,-1,16
 125 140 125 140 94 215.5 c 128,-1,17
 63 291 63 291 71 389 c 0,18,19
 76 456 76 456 99.5 511.5 c 128,-1,20
 123 567 123 567 161 612 c 128,-1,21
 199 657 199 657 249 692.5 c 128,-1,22
 299 728 299 728 357 755 c 1,23,24
 283 810 283 810 248 889.5 c 128,-1,25
 213 969 213 969 220 1060 c 0,26,27
 227 1160 227 1160 268.5 1238 c 128,-1,28
 310 1316 310 1316 376.5 1370 c 128,-1,29
 443 1424 443 1424 529 1451 c 128,-1,30
 615 1478 615 1478 711 1476 c 0,31,32
 799 1474 799 1474 874.5 1446.5 c 128,-1,33
 950 1419 950 1419 1003.5 1367.5 c 128,-1,34
 1057 1316 1057 1316 1084.5 1243 c 128,-1,35
 1112 1170 1112 1170 1105 1077 c 0,0,1
750 425 m 0,36,37
 755 467 755 467 747 505 c 128,-1,38
 739 543 739 543 718.5 571.5 c 128,-1,39
 698 600 698 600 665 617 c 128,-1,40
 632 634 632 634 587 635 c 0,41,42
 537 636 537 636 495.5 618.5 c 128,-1,43
 454 601 454 601 422.5 570.5 c 128,-1,44
 391 540 391 540 371.5 498.5 c 128,-1,45
 352 457 352 457 347 409 c 0,46,47
 342 366 342 366 350 328.5 c 128,-1,48
 358 291 358 291 379 263.5 c 128,-1,49
 400 236 400 236 433.5 219.5 c 128,-1,50
 467 203 467 203 512 202 c 0,51,52
 561 201 561 201 602 218.5 c 128,-1,53
 643 236 643 236 674.5 266 c 128,-1,54
 706 296 706 296 725.5 337 c 128,-1,55
 745 378 745 378 750 425 c 0,36,37
833 1064 m 0,56,57
 837 1101 837 1101 830 1134.5 c 128,-1,58
 823 1168 823 1168 805.5 1194 c 128,-1,59
 788 1220 788 1220 759.5 1235.5 c 128,-1,60
 731 1251 731 1251 691 1252 c 0,61,62
 646 1253 646 1253 610.5 1236.5 c 128,-1,63
 575 1220 575 1220 548.5 1192 c 128,-1,64
 522 1164 522 1164 506.5 1127 c 128,-1,65
 491 1090 491 1090 487 1048 c 0,66,67
 483 1011 483 1011 489.5 977 c 128,-1,68
 496 943 496 943 513 916.5 c 128,-1,69
 530 890 530 890 558 873.5 c 128,-1,70
 586 857 586 857 627 857 c 0,71,72
 671 856 671 856 707 873 c 128,-1,73
 743 890 743 890 769.5 919 c 128,-1,74
 796 948 796 948 812 985.5 c 128,-1,75
 828 1023 828 1023 833 1064 c 0,56,57
EndSplineSet
EndChar
StartChar: nine
Encoding: 57 57 27
Width: 1202
Flags: W
LayerCount: 2
Back
Fore
SplineSet
253 220 m 1,0,1
 449 218 449 218 576 305.5 c 128,-1,2
 703 393 703 393 770 575 c 1,3,4
 657 470 657 470 502 473 c 0,5,6
 402 474 402 474 331.5 516 c 128,-1,7
 261 558 261 558 218 626 c 128,-1,8
 175 694 175 694 158.5 780 c 128,-1,9
 142 866 142 866 150 955 c 0,10,11
 156 1025 156 1025 177.5 1091.5 c 128,-1,12
 199 1158 199 1158 233.5 1216.5 c 128,-1,13
 268 1275 268 1275 315 1323.5 c 128,-1,14
 362 1372 362 1372 419 1406.5 c 128,-1,15
 476 1441 476 1441 542.5 1459.5 c 128,-1,16
 609 1478 609 1478 683 1476 c 0,17,18
 764 1474 764 1474 827 1449 c 128,-1,19
 890 1424 890 1424 936.5 1381 c 128,-1,20
 983 1338 983 1338 1014.5 1280.5 c 128,-1,21
 1046 1223 1046 1223 1063.5 1158 c 128,-1,22
 1081 1093 1081 1093 1085 1022 c 128,-1,23
 1089 951 1089 951 1082 882 c 2,24,-1
 1070 786 l 2,25,26
 1047 613 1047 613 982.5 467 c 128,-1,27
 918 321 918 321 813.5 214.5 c 128,-1,28
 709 108 709 108 565 48 c 128,-1,29
 421 -12 421 -12 240 -13 c 2,30,-1
 214 -13 l 1,31,-1
 238 221 l 1,32,-1
 253 220 l 1,0,1
581 686 m 0,33,34
 618 685 618 685 651 696 c 128,-1,35
 684 707 684 707 712 726.5 c 128,-1,36
 740 746 740 746 763 773 c 128,-1,37
 786 800 786 800 804 831 c 1,38,-1
 817 932 l 2,39,40
 822 975 822 975 821 1029.5 c 128,-1,41
 820 1084 820 1084 805 1133 c 128,-1,42
 790 1182 790 1182 756.5 1216 c 128,-1,43
 723 1250 723 1250 664 1252 c 0,44,45
 607 1253 607 1253 564 1225.5 c 128,-1,46
 521 1198 521 1198 491 1154.5 c 128,-1,47
 461 1111 461 1111 444 1059 c 128,-1,48
 427 1007 427 1007 422 959 c 0,49,50
 417 915 417 915 421.5 867.5 c 128,-1,51
 426 820 426 820 443.5 780.5 c 128,-1,52
 461 741 461 741 494 714 c 128,-1,53
 527 687 527 687 581 686 c 0,33,34
EndSplineSet
EndChar
StartChar: less
Encoding: 60 60 30
Width: 1202
Flags: W
LayerCount: 2
Back
Fore
SplineSet
500 647 m 1,0,-1
 417 618 l 1,1,-1
 466 598 l 1,2,-1
 978 410 l 1,3,-1
 933 149 l 1,4,-1
 136 517 l 1,5,-1
 175 741 l 1,6,-1
 1099 1109 l 1,7,-1
 1057 833 l 1,8,-1
 500 647 l 1,0,-1
EndSplineSet
EndChar
StartChar: equal
Encoding: 61 61 31
Width: 1202
Flags: W
LayerCount: 2
Back
Fore
SplineSet
1092 717 m 1,0,-1
 173 717 l 1,1,-1
 213 945 l 1,2,-1
 1132 945 l 1,3,-1
 1092 717 l 1,0,-1
1017 286 m 1,4,-1
 98 286 l 1,5,-1
 138 513 l 1,6,-1
 1057 513 l 1,7,-1
 1017 286 l 1,4,-1
EndSplineSet
EndChar
StartChar: greater
Encoding: 62 62 32
Width: 1202
Flags: W
LayerCount: 2
Back
Fore
SplineSet
197 839 m 1,0,-1
 242 1098 l 1,1,-1
 1053 731 l 1,2,-1
 1014 505 l 1,3,-1
 75 137 l 1,4,-1
 124 417 l 1,5,-1
 700 605 l 1,6,-1
 775 628 l 1,7,-1
 733 645 l 1,8,-1
 197 839 l 1,0,-1
EndSplineSet
EndChar
StartChar: question
Encoding: 63 63 33
Width: 1202
Flags: W
LayerCount: 2
Back
Fore
SplineSet
466 441 m 1,0,1
 471 500 471 500 480 547.5 c 128,-1,2
 489 595 489 595 507.5 635.5 c 128,-1,3
 526 676 526 676 556.5 712.5 c 128,-1,4
 587 749 587 749 634 786 c 0,5,6
 668 813 668 813 707 845.5 c 128,-1,7
 746 878 746 878 780.5 915.5 c 128,-1,8
 815 953 815 953 840.5 995 c 128,-1,9
 866 1037 866 1037 873 1083 c 0,10,11
 885 1164 885 1164 845.5 1206.5 c 128,-1,12
 806 1249 806 1249 726 1251 c 0,13,14
 684 1252 684 1252 648.5 1239.5 c 128,-1,15
 613 1227 613 1227 586 1204 c 128,-1,16
 559 1181 559 1181 541 1148.5 c 128,-1,17
 523 1116 523 1116 515 1076 c 1,18,-1
 243 1075 l 1,19,20
 252 1176 252 1176 295.5 1252 c 128,-1,21
 339 1328 339 1328 406.5 1378.5 c 128,-1,22
 474 1429 474 1429 561 1454 c 128,-1,23
 648 1479 648 1479 745 1477 c 0,24,25
 834 1475 834 1475 911.5 1451.5 c 128,-1,26
 989 1428 989 1428 1045.5 1381 c 128,-1,27
 1102 1334 1102 1334 1131.5 1262.5 c 128,-1,28
 1161 1191 1161 1191 1153 1094 c 0,29,30
 1147 1018 1147 1018 1115.5 957.5 c 128,-1,31
 1084 897 1084 897 1038 846 c 128,-1,32
 992 795 992 795 936.5 750.5 c 128,-1,33
 881 706 881 706 827 663 c 0,34,35
 798 639 798 639 777.5 615.5 c 128,-1,36
 757 592 757 592 742.5 565.5 c 128,-1,37
 728 539 728 539 719.5 508.5 c 128,-1,38
 711 478 711 478 706 442 c 1,39,-1
 466 441 l 1,0,1
365 133 m 0,40,41
 365 167 365 167 376.5 196.5 c 128,-1,42
 388 226 388 226 409.5 248 c 128,-1,43
 431 270 431 270 460 282.5 c 128,-1,44
 489 295 489 295 523 295 c 0,45,46
 556 296 556 296 585 285 c 128,-1,47
 614 274 614 274 635 254 c 128,-1,48
 656 234 656 234 668 206 c 128,-1,49
 680 178 680 178 680 145 c 0,50,51
 680 110 680 110 668 81.5 c 128,-1,52
 656 53 656 53 634.5 32 c 128,-1,53
 613 11 613 11 584 -1 c 128,-1,54
 555 -13 555 -13 521 -13 c 0,55,56
 488 -14 488 -14 459.5 -3.5 c 128,-1,57
 431 7 431 7 410 26.5 c 128,-1,58
 389 46 389 46 377 73 c 128,-1,59
 365 100 365 100 365 133 c 0,40,41
EndSplineSet
EndChar
StartChar: at
Encoding: 64 64 34
Width: 1202
Flags: W
LayerCount: 2
Back
Fore
SplineSet
1174 830 m 0,0,1
 1167 783 1167 783 1155.5 725.5 c 128,-1,2
 1144 668 1144 668 1125 609.5 c 128,-1,3
 1106 551 1106 551 1079 495 c 128,-1,4
 1052 439 1052 439 1014.5 396.5 c 128,-1,5
 977 354 977 354 928.5 328.5 c 128,-1,6
 880 303 880 303 819 304 c 0,7,8
 768 306 768 306 730.5 331 c 128,-1,9
 693 356 693 356 675 404 c 1,10,11
 641 366 641 366 600.5 337 c 128,-1,12
 560 308 560 308 506 307 c 0,13,14
 434 307 434 307 394.5 346.5 c 128,-1,15
 355 386 355 386 339 444.5 c 128,-1,16
 323 503 323 503 324 568 c 128,-1,17
 325 633 325 633 334 684 c 0,18,19
 343 736 343 736 359.5 790.5 c 128,-1,20
 376 845 376 845 400.5 896 c 128,-1,21
 425 947 425 947 457.5 992 c 128,-1,22
 490 1037 490 1037 532 1070 c 128,-1,23
 574 1103 574 1103 625.5 1121.5 c 128,-1,24
 677 1140 677 1140 738 1139 c 0,25,26
 798 1138 798 1138 848 1119.5 c 128,-1,27
 898 1101 898 1101 942 1061 c 1,28,-1
 820 533 l 2,29,30
 818 519 818 519 816.5 505 c 128,-1,31
 815 491 815 491 817 479.5 c 128,-1,32
 819 468 819 468 827 460 c 128,-1,33
 835 452 835 452 853 451 c 0,34,35
 886 449 886 449 910.5 470 c 128,-1,36
 935 491 935 491 953 525 c 128,-1,37
 971 559 971 559 983 601 c 128,-1,38
 995 643 995 643 1003 684 c 128,-1,39
 1011 725 1011 725 1015.5 760.5 c 128,-1,40
 1020 796 1020 796 1023 816 c 0,41,42
 1030 870 1030 870 1033 926 c 128,-1,43
 1036 982 1036 982 1030.5 1033.5 c 128,-1,44
 1025 1085 1025 1085 1008.5 1131 c 128,-1,45
 992 1177 992 1177 961 1211.5 c 128,-1,46
 930 1246 930 1246 882.5 1266.5 c 128,-1,47
 835 1287 835 1287 767 1289 c 0,48,49
 685 1291 685 1291 616 1266 c 128,-1,50
 547 1241 547 1241 490 1195.5 c 128,-1,51
 433 1150 433 1150 388 1088.5 c 128,-1,52
 343 1027 343 1027 309 957.5 c 128,-1,53
 275 888 275 888 252.5 815 c 128,-1,54
 230 742 230 742 219 673 c 0,55,56
 209 615 209 615 205 554.5 c 128,-1,57
 201 494 201 494 207 436 c 128,-1,58
 213 378 213 378 230.5 326 c 128,-1,59
 248 274 248 274 281.5 235 c 128,-1,60
 315 196 315 196 366.5 173 c 128,-1,61
 418 150 418 150 492 149 c 0,62,63
 555 148 555 148 617 162.5 c 128,-1,64
 679 177 679 177 737 202 c 1,65,-1
 759 64 l 1,66,67
 701 25 701 25 630 8 c 128,-1,68
 559 -9 559 -9 489 -7 c 0,69,70
 391 -6 391 -6 317 22 c 128,-1,71
 243 50 243 50 190.5 97.5 c 128,-1,72
 138 145 138 145 105 209.5 c 128,-1,73
 72 274 72 274 56.5 349.5 c 128,-1,74
 41 425 41 425 41 507.5 c 128,-1,75
 41 590 41 590 54 674 c 0,76,77
 68 764 68 764 98.5 856.5 c 128,-1,78
 129 949 129 949 175.5 1035 c 128,-1,79
 222 1121 222 1121 283.5 1196.5 c 128,-1,80
 345 1272 345 1272 421 1327.5 c 128,-1,81
 497 1383 497 1383 586.5 1413.5 c 128,-1,82
 676 1444 676 1444 778 1442 c 0,83,84
 862 1440 862 1440 926.5 1414 c 128,-1,85
 991 1388 991 1388 1038.5 1344 c 128,-1,86
 1086 1300 1086 1300 1117 1241 c 128,-1,87
 1148 1182 1148 1182 1164 1115 c 128,-1,88
 1180 1048 1180 1048 1182 975 c 128,-1,89
 1184 902 1184 902 1174 830 c 0,0,1
507 684 m 0,90,91
 505 673 505 673 501.5 652 c 128,-1,92
 498 631 498 631 496 606.5 c 128,-1,93
 494 582 494 582 494.5 556.5 c 128,-1,94
 495 531 495 531 501 509.5 c 128,-1,95
 507 488 507 488 519 474.5 c 128,-1,96
 531 461 531 461 552 460 c 0,97,98
 568 459 568 459 582 464.5 c 128,-1,99
 596 470 596 470 609 478.5 c 128,-1,100
 622 487 622 487 633 497.5 c 128,-1,101
 644 508 644 508 655 519 c 1,102,-1
 658 535 l 1,103,-1
 777 985 l 1,104,105
 763 988 763 988 751 988 c 0,106,107
 692 989 692 989 649.5 960 c 128,-1,108
 607 931 607 931 578 885.5 c 128,-1,109
 549 840 549 840 532 786 c 128,-1,110
 515 732 515 732 507 684 c 0,90,91
EndSplineSet
EndChar
StartChar: A
Encoding: 65 65 35
Width: 1202
Flags: W
LayerCount: 2
Back
Fore
SplineSet
774 304 m 1,0,-1
 351 304 l 1,1,-1
 215 0 l 1,2,-1
 -82 0 l 1,3,-1
 633 1456 l 1,4,-1
 882 1456 l 1,5,-1
 1084 0 l 1,6,-1
 803 0 l 1,7,-1
 774 304 l 1,0,-1
460 543 m 1,8,-1
 751 543 l 1,9,-1
 700 1076 l 1,10,-1
 460 543 l 1,8,-1
EndSplineSet
Substitution2: "'smcp' Lowercase to Small Capitals lookup 0 subtable" A.smcp
EndChar
StartChar: B
Encoding: 66 66 36
Width: 1202
Flags: W
LayerCount: 2
Back
Fore
SplineSet
20 0 m 1,0,-1
 273 1456 l 1,1,-1
 733 1455 l 2,2,3
 825 1453 825 1453 911 1431.5 c 128,-1,4
 997 1410 997 1410 1062 1363.5 c 128,-1,5
 1127 1317 1127 1317 1163 1244 c 128,-1,6
 1199 1171 1199 1171 1191 1066 c 0,7,8
 1186 1006 1186 1006 1165 956.5 c 128,-1,9
 1144 907 1144 907 1109.5 868 c 128,-1,10
 1075 829 1075 829 1029.5 798.5 c 128,-1,11
 984 768 984 768 931 746 c 1,12,13
 981 728 981 728 1016.5 696 c 128,-1,14
 1052 664 1052 664 1074 623 c 128,-1,15
 1096 582 1096 582 1105 533.5 c 128,-1,16
 1114 485 1114 485 1111 435 c 0,17,18
 1103 320 1103 320 1054 237 c 128,-1,19
 1005 154 1005 154 928.5 101 c 128,-1,20
 852 48 852 48 754 23.5 c 128,-1,21
 656 -1 656 -1 551 0 c 2,22,-1
 20 0 l 1,0,-1
407 642 m 1,23,-1
 335 227 l 1,24,-1
 564 225 l 2,25,26
 614 226 614 226 660.5 239 c 128,-1,27
 707 252 707 252 744.5 278.5 c 128,-1,28
 782 305 782 305 807 344 c 128,-1,29
 832 383 832 383 840 436 c 0,30,31
 854 530 854 530 811 583.5 c 128,-1,32
 768 637 768 637 674 641 c 2,33,-1
 407 642 l 1,23,-1
442 845 m 1,34,-1
 633 843 l 2,35,36
 682 843 682 843 729 854 c 128,-1,37
 776 865 776 865 814.5 889 c 128,-1,38
 853 913 853 913 879 950.5 c 128,-1,39
 905 988 905 988 913 1042 c 0,40,41
 920 1092 920 1092 908 1126.5 c 128,-1,42
 896 1161 896 1161 870 1182.5 c 128,-1,43
 844 1204 844 1204 806 1214.5 c 128,-1,44
 768 1225 768 1225 723 1226 c 2,45,-1
 509 1227 l 1,46,-1
 442 845 l 1,34,-1
EndSplineSet
Substitution2: "'smcp' Lowercase to Small Capitals lookup 0 subtable" B.smcp
EndChar
StartChar: C
Encoding: 67 67 37
Width: 1202
Flags: W
LayerCount: 2
Back
Fore
SplineSet
1075 457 m 1,0,1
 1060 347 1060 347 1011 258 c 128,-1,2
 962 169 962 169 887 106 c 128,-1,3
 812 43 812 43 715 9.5 c 128,-1,4
 618 -24 618 -24 508 -21 c 0,5,6
 419 -19 419 -19 350 8.5 c 128,-1,7
 281 36 281 36 230.5 82.5 c 128,-1,8
 180 129 180 129 147 191.5 c 128,-1,9
 114 254 114 254 96.5 325.5 c 128,-1,10
 79 397 79 397 76.5 474.5 c 128,-1,11
 74 552 74 552 84 629 c 2,12,-1
 113 825 l 2,13,14
 125 906 125 906 150.5 987 c 128,-1,15
 176 1068 176 1068 214 1141 c 128,-1,16
 252 1214 252 1214 303.5 1276.5 c 128,-1,17
 355 1339 355 1339 420 1384 c 128,-1,18
 485 1429 485 1429 563.5 1454 c 128,-1,19
 642 1479 642 1479 734 1477 c 0,20,21
 846 1475 846 1475 929 1437.5 c 128,-1,22
 1012 1400 1012 1400 1066.5 1335 c 128,-1,23
 1121 1270 1121 1270 1149 1181 c 128,-1,24
 1177 1092 1177 1092 1180 986 c 1,25,-1
 908 987 l 1,26,27
 908 1040 908 1040 900.5 1087 c 128,-1,28
 893 1134 893 1134 871.5 1169 c 128,-1,29
 850 1204 850 1204 812 1225.5 c 128,-1,30
 774 1247 774 1247 714 1249 c 0,31,32
 657 1251 657 1251 613 1232.5 c 128,-1,33
 569 1214 569 1214 535.5 1182.5 c 128,-1,34
 502 1151 502 1151 477.5 1108 c 128,-1,35
 453 1065 453 1065 436 1017.5 c 128,-1,36
 419 970 419 970 408 921 c 128,-1,37
 397 872 397 872 391 827 c 2,38,-1
 363 628 l 2,39,40
 358 591 358 591 354 546 c 128,-1,41
 350 501 350 501 350.5 455 c 128,-1,42
 351 409 351 409 359 365 c 128,-1,43
 367 321 367 321 387 286.5 c 128,-1,44
 407 252 407 252 441 230.5 c 128,-1,45
 475 209 475 209 528 207 c 0,46,47
 588 204 588 204 635 222 c 128,-1,48
 682 240 682 240 716 273 c 128,-1,49
 750 306 750 306 772 352.5 c 128,-1,50
 794 399 794 399 805 455 c 1,51,-1
 1075 457 l 1,0,1
EndSplineSet
Substitution2: "'smcp' Lowercase to Small Capitals lookup 0 subtable" C.smcp
EndChar
StartChar: D
Encoding: 68 68 38
Width: 1202
Flags: W
LayerCount: 2
Back
Fore
SplineSet
17 0 m 1,0,-1
 269 1456 l 1,1,-1
 621 1455 l 2,2,3
 762 1452 762 1452 866 1396.5 c 128,-1,4
 970 1341 970 1341 1036 1249.5 c 128,-1,5
 1102 1158 1102 1158 1127.5 1038.5 c 128,-1,6
 1153 919 1153 919 1137 787 c 2,7,-1
 1120 667 l 2,8,9
 1100 530 1100 530 1041 408 c 128,-1,10
 982 286 982 286 890.5 195.5 c 128,-1,11
 799 105 799 105 677.5 52 c 128,-1,12
 556 -1 556 -1 411 0 c 2,13,-1
 17 0 l 1,0,-1
506 1228 m 1,14,-1
 332 226 l 1,15,-1
 423 224 l 2,16,17
 518 224 518 224 590 261.5 c 128,-1,18
 662 299 662 299 713 360.5 c 128,-1,19
 764 422 764 422 795.5 502 c 128,-1,20
 827 582 827 582 840 667 c 2,21,-1
 857 790 l 2,22,23
 863 838 863 838 863.5 888.5 c 128,-1,24
 864 939 864 939 856.5 987 c 128,-1,25
 849 1035 849 1035 831.5 1077.5 c 128,-1,26
 814 1120 814 1120 784.5 1152.5 c 128,-1,27
 755 1185 755 1185 712 1204.5 c 128,-1,28
 669 1224 669 1224 610 1227 c 2,29,-1
 506 1228 l 1,14,-1
EndSplineSet
Substitution2: "'smcp' Lowercase to Small Capitals lookup 0 subtable" D.smcp
EndChar
StartChar: E
Encoding: 69 69 39
Width: 1202
Flags: W
LayerCount: 2
Back
Fore
SplineSet
1004 638 m 1,0,-1
 424 638 l 1,1,-1
 352 227 l 1,2,-1
 1031 227 l 1,3,-1
 991 0 l 1,4,-1
 38 0 l 1,5,-1
 291 1456 l 1,6,-1
 1241 1456 l 1,7,-1
 1201 1227 l 1,8,-1
 526 1227 l 1,9,-1
 462 860 l 1,10,-1
 1043 860 l 1,11,-1
 1004 638 l 1,0,-1
EndSplineSet
Substitution2: "'smcp' Lowercase to Small Capitals lookup 0 subtable" E.smcp
EndChar
StartChar: G
Encoding: 71 71 41
Width: 1202
Flags: W
LayerCount: 2
Back
Fore
SplineSet
1033 169 m 1,0,1
 989 116 989 116 928 79.5 c 128,-1,2
 867 43 867 43 798 20.5 c 128,-1,3
 729 -2 729 -2 657.5 -11.5 c 128,-1,4
 586 -21 586 -21 520 -20 c 0,5,6
 430 -18 430 -18 360.5 9.5 c 128,-1,7
 291 37 291 37 240.5 83 c 128,-1,8
 190 129 190 129 156.5 191 c 128,-1,9
 123 253 123 253 105.5 324 c 128,-1,10
 88 395 88 395 85 472.5 c 128,-1,11
 82 550 82 550 92 628 c 2,12,-1
 121 826 l 2,13,14
 133 906 133 906 158 986 c 128,-1,15
 183 1066 183 1066 220.5 1138.5 c 128,-1,16
 258 1211 258 1211 309 1273.5 c 128,-1,17
 360 1336 360 1336 424 1381.5 c 128,-1,18
 488 1427 488 1427 565.5 1452 c 128,-1,19
 643 1477 643 1477 734 1476 c 0,20,21
 841 1474 841 1474 921.5 1442 c 128,-1,22
 1002 1410 1002 1410 1056.5 1351.5 c 128,-1,23
 1111 1293 1111 1293 1140.5 1209.5 c 128,-1,24
 1170 1126 1170 1126 1175 1023 c 1,25,-1
 909 1023 l 1,26,27
 907 1071 907 1071 897 1112 c 128,-1,28
 887 1153 887 1153 865 1183 c 128,-1,29
 843 1213 843 1213 807.5 1230.5 c 128,-1,30
 772 1248 772 1248 719 1250 c 256,31,32
 666 1252 666 1252 623.5 1233 c 128,-1,33
 581 1214 581 1214 547 1181 c 128,-1,34
 513 1148 513 1148 488 1104.5 c 128,-1,35
 463 1061 463 1061 444.5 1013.5 c 128,-1,36
 426 966 426 966 414.5 918 c 128,-1,37
 403 870 403 870 397 828 c 2,38,-1
 368 627 l 2,39,40
 363 589 363 589 359.5 544 c 128,-1,41
 356 499 356 499 358.5 452.5 c 128,-1,42
 361 406 361 406 371 363 c 128,-1,43
 381 320 381 320 402.5 285.5 c 128,-1,44
 424 251 424 251 459.5 230 c 128,-1,45
 495 209 495 209 548 207 c 0,46,47
 604 205 604 205 661 219.5 c 128,-1,48
 718 234 718 234 763 269 c 1,49,-1
 814 534 l 1,50,-1
 579 534 l 1,51,-1
 616 744 l 1,52,-1
 1123 744 l 1,53,-1
 1033 169 l 1,0,1
EndSplineSet
Substitution2: "'smcp' Lowercase to Small Capitals lookup 0 subtable" G.smcp
EndChar
StartChar: H
Encoding: 72 72 42
Width: 1202
Flags: W
LayerCount: 2
Back
Fore
SplineSet
956 0 m 1,0,-1
 685 0 l 1,1,-1
 795 631 l 1,2,-1
 397 631 l 1,3,-1
 287 0 l 1,4,-1
 15 0 l 1,5,-1
 267 1456 l 1,6,-1
 540 1456 l 1,7,-1
 436 859 l 1,8,-1
 834 859 l 1,9,-1
 938 1456 l 1,10,-1
 1209 1456 l 1,11,-1
 956 0 l 1,0,-1
EndSplineSet
Substitution2: "'smcp' Lowercase to Small Capitals lookup 0 subtable" H.smcp
EndChar
StartChar: I
Encoding: 73 73 43
Width: 1202
Flags: W
LayerCount: 2
Back
Fore
SplineSet
335 1456 m 1,0,-1
 1154 1456 l 1,1,-1
 1114 1229 l 1,2,-1
 839 1229 l 1,3,-1
 665 226 l 1,4,-1
 941 226 l 1,5,-1
 901 0 l 1,6,-1
 82 0 l 1,7,-1
 122 226 l 1,8,-1
 390 226 l 1,9,-1
 564 1229 l 1,10,-1
 295 1229 l 1,11,-1
 335 1456 l 1,0,-1
EndSplineSet
Substitution2: "'smcp' Lowercase to Small Capitals lookup 0 subtable" I.smcp
EndChar
StartChar: J
Encoding: 74 74 44
Width: 1202
Flags: W
LayerCount: 2
Back
Fore
SplineSet
941 1456 m 1,0,-1
 1216 1456 l 1,1,-1
 1045 447 l 2,2,3
 1030 344 1030 344 981 257.5 c 128,-1,4
 932 171 932 171 858.5 108.5 c 128,-1,5
 785 46 785 46 692 12 c 128,-1,6
 599 -22 599 -22 494 -20 c 0,7,8
 390 -19 390 -19 310 13 c 128,-1,9
 230 45 230 45 176.5 103.5 c 128,-1,10
 123 162 123 162 97 244.5 c 128,-1,11
 71 327 71 327 74 429 c 1,12,-1
 349 428 l 1,13,14
 347 381 347 381 353 340.5 c 128,-1,15
 359 300 359 300 378 270.5 c 128,-1,16
 397 241 397 241 430.5 223.5 c 128,-1,17
 464 206 464 206 517 205 c 0,18,19
 569 204 569 204 612 223.5 c 128,-1,20
 655 243 655 243 687 276.5 c 128,-1,21
 719 310 719 310 740 354 c 128,-1,22
 761 398 761 398 769 446 c 2,23,-1
 941 1456 l 1,0,-1
EndSplineSet
Substitution2: "'smcp' Lowercase to Small Capitals lookup 0 subtable" J.smcp
EndChar
StartChar: K
Encoding: 75 75 45
Width: 1202
Flags: W
LayerCount: 2
Back
Fore
SplineSet
556 595 m 1,0,-1
 368 418 l 1,1,-1
 296 0 l 1,2,-1
 20 0 l 1,3,-1
 273 1456 l 1,4,-1
 548 1456 l 1,5,-1
 434 803 l 1,6,-1
 591 978 l 1,7,-1
 1010 1456 l 1,8,-1
 1362 1456 l 1,9,-1
 763 800 l 1,10,-1
 1111 0 l 1,11,-1
 800 0 l 1,12,-1
 556 595 l 1,0,-1
EndSplineSet
Substitution2: "'smcp' Lowercase to Small Capitals lookup 0 subtable" K.smcp
EndChar
StartChar: L
Encoding: 76 76 46
Width: 1202
Flags: W
LayerCount: 2
Back
Fore
SplineSet
355 227 m 1,0,-1
 1017 227 l 1,1,-1
 977 0 l 1,2,-1
 41 0 l 1,3,-1
 293 1456 l 1,4,-1
 569 1456 l 1,5,-1
 355 227 l 1,0,-1
EndSplineSet
Substitution2: "'smcp' Lowercase to Small Capitals lookup 0 subtable" L.smcp
EndChar
StartChar: M
Encoding: 77 77 47
Width: 1202
Flags: W
LayerCount: 2
Back
Fore
SplineSet
608 1456 m 1,0,-1
 646 913 l 1,1,-1
 892 1456 l 1,2,-1
 1236 1456 l 1,3,-1
 983 0 l 1,4,-1
 731 0 l 1,5,-1
 808 442 l 1,6,-1
 932 1090 l 1,7,-1
 647 480 l 1,8,-1
 510 480 l 1,9,-1
 449 1095 l 1,10,-1
 343 420 l 1,11,-1
 270 0 l 1,12,-1
 18 0 l 1,13,-1
 271 1456 l 1,14,-1
 608 1456 l 1,0,-1
EndSplineSet
Substitution2: "'smcp' Lowercase to Small Capitals lookup 0 subtable" M.smcp
EndChar
StartChar: N
Encoding: 78 78 48
Width: 1202
Flags: W
LayerCount: 2
Back
Fore
SplineSet
955 0 m 1,0,-1
 688 0 l 1,1,-1
 456 949 l 1,2,-1
 291 0 l 1,3,-1
 15 0 l 1,4,-1
 267 1456 l 1,5,-1
 538 1456 l 1,6,-1
 767 511 l 1,7,-1
 933 1456 l 1,8,-1
 1208 1456 l 1,9,-1
 955 0 l 1,0,-1
EndSplineSet
Substitution2: "'smcp' Lowercase to Small Capitals lookup 0 subtable" N.smcp
EndChar
StartChar: O
Encoding: 79 79 49
Width: 1202
Flags: W
LayerCount: 2
Back
Fore
SplineSet
1119 622 m 2,0,1
 1106 541 1106 541 1081 461 c 128,-1,2
 1056 381 1056 381 1017.5 309 c 128,-1,3
 979 237 979 237 927.5 175.5 c 128,-1,4
 876 114 876 114 811 70 c 128,-1,5
 746 26 746 26 668 2 c 128,-1,6
 590 -22 590 -22 498 -20 c 0,7,8
 411 -18 411 -18 343.5 9.5 c 128,-1,9
 276 37 276 37 226.5 83.5 c 128,-1,10
 177 130 177 130 145 191.5 c 128,-1,11
 113 253 113 253 96 323.5 c 128,-1,12
 79 394 79 394 76 470 c 128,-1,13
 73 546 73 546 83 621 c 2,14,-1
 116 833 l 2,15,16
 128 913 128 913 152.5 992.5 c 128,-1,17
 177 1072 177 1072 213.5 1144 c 128,-1,18
 250 1216 250 1216 300 1278 c 128,-1,19
 350 1340 350 1340 413 1384.5 c 128,-1,20
 476 1429 476 1429 553 1453.5 c 128,-1,21
 630 1478 630 1478 721 1476 c 0,22,23
 809 1474 809 1474 877.5 1447 c 128,-1,24
 946 1420 946 1420 997.5 1373.5 c 128,-1,25
 1049 1327 1049 1327 1083 1265.5 c 128,-1,26
 1117 1204 1117 1204 1135.5 1133.5 c 128,-1,27
 1154 1063 1154 1063 1158 986 c 128,-1,28
 1162 909 1162 909 1152 833 c 2,29,-1
 1119 622 l 2,0,1
874 836 m 2,30,31
 879 873 879 873 882 917 c 128,-1,32
 885 961 885 961 882.5 1005.5 c 128,-1,33
 880 1050 880 1050 870 1092 c 128,-1,34
 860 1134 860 1134 839 1167 c 128,-1,35
 818 1200 818 1200 784 1221 c 128,-1,36
 750 1242 750 1242 699 1244 c 0,37,38
 644 1246 644 1246 602 1228.5 c 128,-1,39
 560 1211 560 1211 528.5 1179.5 c 128,-1,40
 497 1148 497 1148 474 1106.5 c 128,-1,41
 451 1065 451 1065 435.5 1019 c 128,-1,42
 420 973 420 973 410 925.5 c 128,-1,43
 400 878 400 878 394 835 c 2,44,-1
 361 620 l 2,45,46
 356 585 356 585 352.5 542 c 128,-1,47
 349 499 349 499 349.5 454 c 128,-1,48
 350 409 350 409 358 366 c 128,-1,49
 366 323 366 323 385 289 c 128,-1,50
 404 255 404 255 436.5 233.5 c 128,-1,51
 469 212 469 212 520 210 c 0,52,53
 574 208 574 208 617 225.5 c 128,-1,54
 660 243 660 243 693.5 274 c 128,-1,55
 727 305 727 305 752 347 c 128,-1,56
 777 389 777 389 794.5 435.5 c 128,-1,57
 812 482 812 482 823 530 c 128,-1,58
 834 578 834 578 841 621 c 2,59,-1
 874 836 l 2,30,31
EndSplineSet
Substitution2: "'smcp' Lowercase to Small Capitals lookup 0 subtable" O.smcp
EndChar
StartChar: P
Encoding: 80 80 50
Width: 1202
Flags: W
LayerCount: 2
Back
Fore
SplineSet
407 534 m 1,0,-1
 314 0 l 1,1,-1
 40 0 l 1,2,-1
 292 1456 l 1,3,-1
 761 1455 l 2,4,5
 862 1452 862 1452 946 1419 c 128,-1,6
 1030 1386 1030 1386 1089.5 1326 c 128,-1,7
 1149 1266 1149 1266 1178.5 1182 c 128,-1,8
 1208 1098 1208 1098 1199 994 c 0,9,10
 1190 882 1190 882 1139.5 796.5 c 128,-1,11
 1089 711 1089 711 1011 652.5 c 128,-1,12
 933 594 933 594 834.5 563.5 c 128,-1,13
 736 533 736 533 631 533 c 2,14,-1
 407 534 l 1,0,-1
446 762 m 1,15,-1
 646 759 l 2,16,17
 699 760 699 760 746 776.5 c 128,-1,18
 793 793 793 793 830 823 c 128,-1,19
 867 853 867 853 891.5 896 c 128,-1,20
 916 939 916 939 923 993 c 0,21,22
 929 1040 929 1040 922 1081.5 c 128,-1,23
 915 1123 915 1123 893.5 1154.5 c 128,-1,24
 872 1186 872 1186 836 1205.5 c 128,-1,25
 800 1225 800 1225 750 1227 c 2,26,-1
 527 1228 l 1,27,-1
 446 762 l 1,15,-1
EndSplineSet
Substitution2: "'smcp' Lowercase to Small Capitals lookup 0 subtable" P.smcp
EndChar
StartChar: Q
Encoding: 81 81 51
Width: 1202
Flags: W
LayerCount: 2
Back
Fore
SplineSet
1121 578 m 2,0,1
 1098 440 1098 440 1036 323 c 128,-1,2
 974 206 974 206 864 118 c 1,3,-1
 1059 -106 l 1,4,-1
 867 -257 l 1,5,-1
 645 -2 l 1,6,7
 610 -10 610 -10 574.5 -14.5 c 128,-1,8
 539 -19 539 -19 502 -18 c 0,9,10
 422 -17 422 -17 356.5 8 c 128,-1,11
 291 33 291 33 241.5 75 c 128,-1,12
 192 117 192 117 157 174 c 128,-1,13
 122 231 122 231 102 296.5 c 128,-1,14
 82 362 82 362 76.5 433.5 c 128,-1,15
 71 505 71 505 80 577 c 2,16,-1
 120 829 l 2,17,18
 132 910 132 910 156.5 989.5 c 128,-1,19
 181 1069 181 1069 218 1141.5 c 128,-1,20
 255 1214 255 1214 305 1276.5 c 128,-1,21
 355 1339 355 1339 418.5 1384 c 128,-1,22
 482 1429 482 1429 559 1453.5 c 128,-1,23
 636 1478 636 1478 728 1476 c 0,24,25
 816 1474 816 1474 885 1446.5 c 128,-1,26
 954 1419 954 1419 1005 1372.5 c 128,-1,27
 1056 1326 1056 1326 1090.5 1264 c 128,-1,28
 1125 1202 1125 1202 1143.5 1130.5 c 128,-1,29
 1162 1059 1162 1059 1166 982 c 128,-1,30
 1170 905 1170 905 1160 829 c 2,31,-1
 1121 578 l 2,0,1
882 832 m 2,32,33
 887 869 887 869 890 913.5 c 128,-1,34
 893 958 893 958 891 1003 c 128,-1,35
 889 1048 889 1048 879.5 1090.5 c 128,-1,36
 870 1133 870 1133 849 1166.5 c 128,-1,37
 828 1200 828 1200 793.5 1221 c 128,-1,38
 759 1242 759 1242 707 1244 c 0,39,40
 652 1246 652 1246 609.5 1228 c 128,-1,41
 567 1210 567 1210 535 1178.5 c 128,-1,42
 503 1147 503 1147 480 1105 c 128,-1,43
 457 1063 457 1063 441 1016.5 c 128,-1,44
 425 970 425 970 414.5 922 c 128,-1,45
 404 874 404 874 398 831 c 2,46,-1
 358 576 l 2,47,48
 353 542 353 542 351 502 c 128,-1,49
 349 462 349 462 352.5 422 c 128,-1,50
 356 382 356 382 366 344.5 c 128,-1,51
 376 307 376 307 396.5 277.5 c 128,-1,52
 417 248 417 248 448.5 230 c 128,-1,53
 480 212 480 212 527 210 c 0,54,55
 601 207 601 207 656 241 c 128,-1,56
 711 275 711 275 749 329 c 128,-1,57
 787 383 787 383 809.5 449 c 128,-1,58
 832 515 832 515 842 577 c 2,59,-1
 882 832 l 2,32,33
EndSplineSet
Substitution2: "'smcp' Lowercase to Small Capitals lookup 0 subtable" Q.smcp
EndChar
StartChar: R
Encoding: 82 82 52
Width: 1202
Flags: W
LayerCount: 2
Back
Fore
SplineSet
603 544 m 1,0,-1
 391 544 l 1,1,-1
 297 0 l 1,2,-1
 22 0 l 1,3,-1
 275 1456 l 1,4,-1
 734 1455 l 2,5,6
 834 1453 834 1453 920.5 1425.5 c 128,-1,7
 1007 1398 1007 1398 1069.5 1345 c 128,-1,8
 1132 1292 1132 1292 1164.5 1212 c 128,-1,9
 1197 1132 1197 1132 1188 1024 c 0,10,11
 1182 947 1182 947 1157 883 c 128,-1,12
 1132 819 1132 819 1090.5 768 c 128,-1,13
 1049 717 1049 717 992 678.5 c 128,-1,14
 935 640 935 640 865 612 c 1,15,-1
 1066 15 l 1,16,-1
 1066 0 l 1,17,-1
 774 0 l 1,18,-1
 603 544 l 1,0,-1
430 772 m 1,19,-1
 621 769 l 2,20,21
 676 769 676 769 725.5 784.5 c 128,-1,22
 775 800 775 800 813.5 830 c 128,-1,23
 852 860 852 860 877.5 904 c 128,-1,24
 903 948 903 948 910 1005 c 0,25,26
 923 1107 923 1107 874 1165 c 128,-1,27
 825 1223 825 1223 723 1227 c 2,28,-1
 510 1228 l 1,29,-1
 430 772 l 1,19,-1
EndSplineSet
Substitution2: "'smcp' Lowercase to Small Capitals lookup 0 subtable" R.smcp
EndChar
StartChar: S
Encoding: 83 83 53
Width: 1202
Flags: W
LayerCount: 2
Back
Fore
SplineSet
827 387 m 0,0,1
 834 439 834 439 816.5 476 c 128,-1,2
 799 513 799 513 766.5 539.5 c 128,-1,3
 734 566 734 566 692 584 c 128,-1,4
 650 602 650 602 609 616 c 0,5,6
 531 641 531 641 455.5 679.5 c 128,-1,7
 380 718 380 718 322 772 c 128,-1,8
 264 826 264 826 230.5 898.5 c 128,-1,9
 197 971 197 971 203 1064 c 0,10,11
 209 1168 209 1168 260 1246 c 128,-1,12
 311 1324 311 1324 388 1376 c 128,-1,13
 465 1428 465 1428 559.5 1453 c 128,-1,14
 654 1478 654 1478 749 1476 c 0,15,16
 848 1474 848 1474 932 1442 c 128,-1,17
 1016 1410 1016 1410 1076 1352 c 128,-1,18
 1136 1294 1136 1294 1168.5 1212 c 128,-1,19
 1201 1130 1201 1130 1198 1028 c 1,20,-1
 932 1029 l 1,21,22
 933 1078 933 1078 920.5 1119 c 128,-1,23
 908 1160 908 1160 882.5 1189 c 128,-1,24
 857 1218 857 1218 818.5 1234 c 128,-1,25
 780 1250 780 1250 728 1251 c 0,26,27
 684 1252 684 1252 640.5 1240.5 c 128,-1,28
 597 1229 597 1229 561 1205.5 c 128,-1,29
 525 1182 525 1182 500 1146.5 c 128,-1,30
 475 1111 475 1111 469 1063 c 0,31,32
 463 1012 463 1012 486 976.5 c 128,-1,33
 509 941 509 941 547.5 916.5 c 128,-1,34
 586 892 586 892 631 875.5 c 128,-1,35
 676 859 676 859 713 847 c 0,36,37
 792 820 792 820 864 779.5 c 128,-1,38
 936 739 936 739 989.5 683 c 128,-1,39
 1043 627 1043 627 1072.5 553.5 c 128,-1,40
 1102 480 1102 480 1096 389 c 0,41,42
 1091 318 1091 318 1067 260 c 128,-1,43
 1043 202 1043 202 1003.5 156.5 c 128,-1,44
 964 111 964 111 912.5 77 c 128,-1,45
 861 43 861 43 802 21.5 c 128,-1,46
 743 0 743 0 679 -10 c 128,-1,47
 615 -20 615 -20 551 -19 c 0,48,49
 446 -17 446 -17 355 15.5 c 128,-1,50
 264 48 264 48 197 109 c 128,-1,51
 130 170 130 170 93.5 256.5 c 128,-1,52
 57 343 57 343 60 453 c 1,53,-1
 328 452 l 1,54,55
 325 334 325 334 385.5 270 c 128,-1,56
 446 206 446 206 567 204 c 0,57,58
 611 204 611 204 654.5 214.5 c 128,-1,59
 698 225 698 225 734 247.5 c 128,-1,60
 770 270 770 270 795 304.5 c 128,-1,61
 820 339 820 339 827 387 c 0,0,1
EndSplineSet
Substitution2: "'smcp' Lowercase to Small Capitals lookup 0 subtable" S.smcp
EndChar
StartChar: T
Encoding: 84 84 54
Width: 1202
Flags: W
LayerCount: 2
Back
Fore
SplineSet
1274 1227 m 1,0,-1
 839 1227 l 1,1,-1
 626 0 l 1,2,-1
 351 0 l 1,3,-1
 564 1227 l 1,4,-1
 134 1227 l 1,5,-1
 174 1456 l 1,6,-1
 1315 1456 l 1,7,-1
 1274 1227 l 1,0,-1
EndSplineSet
Substitution2: "'smcp' Lowercase to Small Capitals lookup 0 subtable" T.smcp
EndChar
StartChar: U
Encoding: 85 85 55
Width: 1202
Flags: W
LayerCount: 2
Back
Fore
SplineSet
1217 1456 m 1,0,-1
 1054 492 l 2,1,2
 1037 379 1037 379 993 284 c 128,-1,3
 949 189 949 189 879 120.5 c 128,-1,4
 809 52 809 52 713.5 14.5 c 128,-1,5
 618 -23 618 -23 499 -20 c 0,6,7
 389 -18 389 -18 309.5 23.5 c 128,-1,8
 230 65 230 65 181 134.5 c 128,-1,9
 132 204 132 204 113 296 c 128,-1,10
 94 388 94 388 106 490 c 1,11,-1
 271 1456 l 1,12,-1
 545 1456 l 1,13,-1
 383 490 l 2,14,15
 378 447 378 447 378.5 398.5 c 128,-1,16
 379 350 379 350 392.5 308 c 128,-1,17
 406 266 406 266 436.5 237.5 c 128,-1,18
 467 209 467 209 523 206 c 0,19,20
 585 203 585 203 630 227.5 c 128,-1,21
 675 252 675 252 705.5 293 c 128,-1,22
 736 334 736 334 754 386 c 128,-1,23
 772 438 772 438 780 490 c 2,24,-1
 945 1456 l 1,25,-1
 1217 1456 l 1,0,-1
EndSplineSet
Substitution2: "'smcp' Lowercase to Small Capitals lookup 0 subtable" U.smcp
EndChar
StartChar: V
Encoding: 86 86 56
Width: 1202
Flags: W
LayerCount: 2
Back
Fore
SplineSet
561 410 m 1,0,-1
 991 1456 l 1,1,-1
 1301 1456 l 1,2,-1
 645 0 l 1,3,-1
 366 0 l 1,4,-1
 167 1456 l 1,5,-1
 462 1456 l 1,6,-1
 561 410 l 1,0,-1
EndSplineSet
Substitution2: "'smcp' Lowercase to Small Capitals lookup 0 subtable" V.smcp
EndChar
StartChar: W
Encoding: 87 87 57
Width: 1202
Flags: W
LayerCount: 2
Back
Fore
SplineSet
813 584 m 1,0,-1
 1052 1456 l 1,1,-1
 1307 1456 l 1,2,-1
 884 0 l 1,3,-1
 636 0 l 1,4,-1
 637 855 l 1,5,-1
 375 0 l 1,6,-1
 127 0 l 1,7,-1
 160 1456 l 1,8,-1
 408 1456 l 1,9,-1
 372 593 l 1,10,-1
 627 1456 l 1,11,-1
 824 1456 l 1,12,-1
 813 584 l 1,0,-1
EndSplineSet
Substitution2: "'smcp' Lowercase to Small Capitals lookup 0 subtable" W.smcp
EndChar
StartChar: X
Encoding: 88 88 58
Width: 1202
Flags: W
LayerCount: 2
Back
Fore
SplineSet
652 936 m 1,0,-1
 984 1456 l 1,1,-1
 1318 1456 l 1,2,-1
 799 722 l 1,3,-1
 1087 0 l 1,4,-1
 780 0 l 1,5,-1
 604 528 l 1,6,-1
 264 0 l 1,7,-1
 -72 0 l 1,8,-1
 459 746 l 1,9,-1
 179 1456 l 1,10,-1
 487 1456 l 1,11,-1
 652 936 l 1,0,-1
EndSplineSet
Substitution2: "'smcp' Lowercase to Small Capitals lookup 0 subtable" X.smcp
EndChar
StartChar: Y
Encoding: 89 89 59
Width: 1202
Flags: W
LayerCount: 2
Back
Fore
SplineSet
636 787 m 1,0,-1
 1030 1456 l 1,1,-1
 1343 1456 l 1,2,-1
 725 491 l 1,3,-1
 639 0 l 1,4,-1
 366 0 l 1,5,-1
 457 530 l 1,6,-1
 186 1456 l 1,7,-1
 474 1456 l 1,8,-1
 636 787 l 1,0,-1
EndSplineSet
Substitution2: "'smcp' Lowercase to Small Capitals lookup 0 subtable" Y.smcp
EndChar
StartChar: Z
Encoding: 90 90 60
Width: 1202
Flags: W
LayerCount: 2
Back
Fore
SplineSet
368 227 m 1,0,-1
 1061 227 l 1,1,-1
 1026 0 l 1,2,-1
 -8 0 l 1,3,-1
 21 183 l 1,4,-1
 862 1227 l 1,5,-1
 185 1227 l 1,6,-1
 222 1456 l 1,7,-1
 1236 1456 l 1,8,-1
 1209 1278 l 1,9,-1
 368 227 l 1,0,-1
EndSplineSet
Substitution2: "'smcp' Lowercase to Small Capitals lookup 0 subtable" Z.smcp
EndChar
StartChar: bracketleft
Encoding: 91 91 61
Width: 1202
Flags: W
LayerCount: 2
Back
Fore
SplineSet
959 1475 m 1,0,-1
 794 1475 l 1,1,-1
 545 -120 l 1,2,-1
 710 -120 l 1,3,-1
 676 -335 l 1,4,-1
 241 -335 l 1,5,-1
 558 1690 l 1,6,-1
 993 1690 l 1,7,-1
 959 1475 l 1,0,-1
EndSplineSet
EndChar
StartChar: bracketright
Encoding: 93 93 63
Width: 1202
Flags: W
LayerCount: 2
Back
Fore
SplineSet
558 1690 m 1,0,-1
 994 1690 l 1,1,-1
 677 -335 l 1,2,-1
 241 -335 l 1,3,-1
 275 -120 l 1,4,-1
 441 -120 l 1,5,-1
 690 1475 l 1,6,-1
 524 1475 l 1,7,-1
 558 1690 l 1,0,-1
EndSplineSet
EndChar
StartChar: asciicircum
Encoding: 94 94 64
Width: 1202
Flags: W
LayerCount: 2
Back
Fore
SplineSet
445 687 m 1,0,-1
 215 687 l 1,1,-1
 659 1456 l 1,2,-1
 855 1456 l 1,3,-1
 1030 687 l 1,4,-1
 823 687 l 1,5,-1
 728 1153 l 1,6,-1
 724 1222 l 1,7,-1
 685 1130 l 1,8,-1
 445 687 l 1,0,-1
EndSplineSet
EndChar
StartChar: grave
Encoding: 96 96 66
Width: 1202
Flags: W
LayerCount: 2
Back
Fore
SplineSet
955 1199 m 1,0,-1
 757 1199 l 1,1,-1
 544 1478 l 1,2,-1
 826 1478 l 1,3,-1
 955 1199 l 1,0,-1
EndSplineSet
EndChar
StartChar: a
Encoding: 97 97 67
Width: 1202
Flags: W
LayerCount: 2
Back
Fore
SplineSet
700 0 m 1,0,1
 692 26 692 26 690.5 50.5 c 128,-1,2
 689 75 689 75 690 101 c 1,3,4
 627 42 627 42 552.5 10.5 c 128,-1,5
 478 -21 478 -21 390 -20 c 0,6,7
 322 -19 322 -19 260.5 3.5 c 128,-1,8
 199 26 199 26 153.5 66.5 c 128,-1,9
 108 107 108 107 83 165 c 128,-1,10
 58 223 58 223 61 295 c 256,11,12
 64 367 64 367 88.5 422 c 128,-1,13
 113 477 113 477 153 518 c 128,-1,14
 193 559 193 559 245 586.5 c 128,-1,15
 297 614 297 614 356 631 c 128,-1,16
 415 648 415 648 477.5 655 c 128,-1,17
 540 662 540 662 601 662 c 2,18,-1
 757 660 l 1,19,-1
 770 727 l 2,20,21
 776 766 776 766 767.5 797 c 128,-1,22
 759 828 759 828 738.5 849.5 c 128,-1,23
 718 871 718 871 687 882.5 c 128,-1,24
 656 894 656 894 617 895 c 0,25,26
 547 897 547 897 500 863.5 c 128,-1,27
 453 830 453 830 439 761 c 1,28,-1
 168 759 l 1,29,30
 174 849 174 849 219 914.5 c 128,-1,31
 264 980 264 980 332 1022.5 c 128,-1,32
 400 1065 400 1065 482.5 1084.5 c 128,-1,33
 565 1104 565 1104 646 1103 c 0,34,35
 731 1101 731 1101 807 1076 c 128,-1,36
 883 1051 883 1051 938.5 1003.5 c 128,-1,37
 994 956 994 956 1022.5 886 c 128,-1,38
 1051 816 1051 816 1042 723 c 1,39,-1
 967 258 l 2,40,41
 958 199 958 199 953.5 137.5 c 128,-1,42
 949 76 949 76 970 18 c 1,43,-1
 969 0 l 1,44,-1
 700 0 l 1,0,1
461 194 m 0,45,46
 532 192 532 192 594.5 223 c 128,-1,47
 657 254 657 254 702 308 c 1,48,-1
 736 495 l 1,49,-1
 613 496 l 2,50,51
 568 496 568 496 522 487 c 128,-1,52
 476 478 476 478 437 457.5 c 128,-1,53
 398 437 398 437 371 403 c 128,-1,54
 344 369 344 369 337 317 c 0,55,56
 333 286 333 286 341 263 c 128,-1,57
 349 240 349 240 366 225 c 128,-1,58
 383 210 383 210 407.5 202 c 128,-1,59
 432 194 432 194 461 194 c 0,45,46
EndSplineSet
Substitution2: "'smcp' Lowercase to Small Capitals lookup 0 subtable" A.smcp
EndChar
StartChar: b
Encoding: 98 98 68
Width: 1202
Flags: W
LayerCount: 2
Back
Fore
SplineSet
1071 536 m 2,0,1
 1063 469 1063 469 1045.5 400.5 c 128,-1,2
 1028 332 1028 332 1000 269.5 c 128,-1,3
 972 207 972 207 933 153 c 128,-1,4
 894 99 894 99 843 60 c 128,-1,5
 792 21 792 21 727.5 -0.5 c 128,-1,6
 663 -22 663 -22 585 -20 c 0,7,8
 504 -18 504 -18 436.5 15.5 c 128,-1,9
 369 49 369 49 324 116 c 1,10,-1
 284 0 l 1,11,-1
 38 0 l 1,12,-1
 304 1536 l 1,13,-1
 576 1536 l 1,14,-1
 470 983 l 1,15,16
 525 1041 525 1041 592 1072.5 c 128,-1,17
 659 1104 659 1104 740 1102 c 0,18,19
 814 1100 814 1100 869.5 1076 c 128,-1,20
 925 1052 925 1052 964.5 1012 c 128,-1,21
 1004 972 1004 972 1028.5 918.5 c 128,-1,22
 1053 865 1053 865 1065 805 c 128,-1,23
 1077 745 1077 745 1078.5 681.5 c 128,-1,24
 1080 618 1080 618 1074 557 c 2,25,-1
 1071 536 l 2,0,1
802 557 m 2,26,27
 805 588 805 588 807 623.5 c 128,-1,28
 809 659 809 659 806.5 694 c 128,-1,29
 804 729 804 729 795.5 761.5 c 128,-1,30
 787 794 787 794 769.5 819 c 128,-1,31
 752 844 752 844 724 859.5 c 128,-1,32
 696 875 696 875 654 876 c 0,33,34
 583 878 583 878 531 845.5 c 128,-1,35
 479 813 479 813 441 757 c 1,36,-1
 366 323 l 1,37,38
 386 263 386 263 429 234.5 c 128,-1,39
 472 206 472 206 535 204 c 0,40,41
 605 202 605 202 652.5 232 c 128,-1,42
 700 262 700 262 730.5 310 c 128,-1,43
 761 358 761 358 777 418 c 128,-1,44
 793 478 793 478 800 536 c 2,45,-1
 802 557 l 2,26,27
EndSplineSet
Substitution2: "'smcp' Lowercase to Small Capitals lookup 0 subtable" B.smcp
EndChar
StartChar: c
Encoding: 99 99 69
Width: 1202
Flags: W
LayerCount: 2
Back
Fore
SplineSet
531 201 m 0,0,1
 571 200 571 200 607.5 211 c 128,-1,2
 644 222 644 222 673.5 243.5 c 128,-1,3
 703 265 703 265 723.5 297 c 128,-1,4
 744 329 744 329 750 369 c 1,5,-1
 1004 371 l 1,6,7
 999 279 999 279 955 205.5 c 128,-1,8
 911 132 911 132 842.5 81 c 128,-1,9
 774 30 774 30 689.5 3.5 c 128,-1,10
 605 -23 605 -23 518 -21 c 0,11,12
 401 -19 401 -19 317.5 26 c 128,-1,13
 234 71 234 71 182.5 145.5 c 128,-1,14
 131 220 131 220 111 317.5 c 128,-1,15
 91 415 91 415 102 522 c 2,16,-1
 105 553 l 2,17,18
 119 666 119 666 164 767 c 128,-1,19
 209 868 209 868 282 943.5 c 128,-1,20
 355 1019 355 1019 453.5 1062 c 128,-1,21
 552 1105 552 1105 672 1102 c 0,22,23
 765 1100 765 1100 840 1069 c 128,-1,24
 915 1038 915 1038 967.5 982.5 c 128,-1,25
 1020 927 1020 927 1046.5 850.5 c 128,-1,26
 1073 774 1073 774 1068 681 c 1,27,-1
 813 682 l 1,28,29
 816 722 816 722 807 757.5 c 128,-1,30
 798 793 798 793 777 819 c 128,-1,31
 756 845 756 845 724 860.5 c 128,-1,32
 692 876 692 876 649 878 c 0,33,34
 580 880 580 880 531.5 851 c 128,-1,35
 483 822 483 822 451 774.5 c 128,-1,36
 419 727 419 727 401 668.5 c 128,-1,37
 383 610 383 610 376 553 c 2,38,-1
 372 523 l 2,39,40
 367 475 367 475 367 419 c 128,-1,41
 367 363 367 363 382 315.5 c 128,-1,42
 397 268 397 268 431.5 235.5 c 128,-1,43
 466 203 466 203 531 201 c 0,0,1
EndSplineSet
Substitution2: "'smcp' Lowercase to Small Capitals lookup 0 subtable" C.smcp
EndChar
StartChar: d
Encoding: 100 100 70
Width: 1202
Flags: W
LayerCount: 2
Back
Fore
SplineSet
100 543 m 2,0,1
 108 610 108 610 126 678 c 128,-1,2
 144 746 144 746 172.5 809 c 128,-1,3
 201 872 201 872 240.5 926.5 c 128,-1,4
 280 981 280 981 332 1020.5 c 128,-1,5
 384 1060 384 1060 448 1082 c 128,-1,6
 512 1104 512 1104 590 1102 c 0,7,8
 665 1100 665 1100 726.5 1070.5 c 128,-1,9
 788 1041 788 1041 835 983 c 1,10,-1
 939 1536 l 1,11,-1
 1211 1536 l 1,12,-1
 945 0 l 1,13,-1
 702 0 l 1,14,-1
 716 113 l 1,15,16
 659 50 659 50 588.5 14 c 128,-1,17
 518 -22 518 -22 430 -20 c 0,18,19
 358 -18 358 -18 304 6.5 c 128,-1,20
 250 31 250 31 211 71.5 c 128,-1,21
 172 112 172 112 147 165 c 128,-1,22
 122 218 122 218 109 277.5 c 128,-1,23
 96 337 96 337 93.5 399.5 c 128,-1,24
 91 462 91 462 97 521 c 2,25,-1
 100 543 l 2,0,1
369 521 m 2,26,27
 364 476 364 476 363.5 422 c 128,-1,28
 363 368 363 368 377 320.5 c 128,-1,29
 391 273 391 273 423.5 240.5 c 128,-1,30
 456 208 456 208 517 206 c 0,31,32
 586 204 586 204 637 236.5 c 128,-1,33
 688 269 688 269 727 321 c 1,34,-1
 805 761 l 1,35,36
 763 873 763 873 640 878 c 0,37,38
 572 879 572 879 524 848 c 128,-1,39
 476 817 476 817 444 768 c 128,-1,40
 412 719 412 719 395 659 c 128,-1,41
 378 599 378 599 371 542 c 2,42,-1
 369 521 l 2,26,27
EndSplineSet
Substitution2: "'smcp' Lowercase to Small Capitals lookup 0 subtable" D.smcp
EndChar
StartChar: e
Encoding: 101 101 71
Width: 1202
Flags: W
LayerCount: 2
Back
Fore
SplineSet
556 -20 m 0,0,1
 445 -18 445 -18 355.5 22.5 c 128,-1,2
 266 63 266 63 204.5 132.5 c 128,-1,3
 143 202 143 202 114 296 c 128,-1,4
 85 390 85 390 95 500 c 2,5,-1
 99 541 l 2,6,7
 112 655 112 655 160 758 c 128,-1,8
 208 861 208 861 284.5 938 c 128,-1,9
 361 1015 361 1015 463 1060 c 128,-1,10
 565 1105 565 1105 685 1102 c 0,11,12
 798 1099 798 1099 880 1055 c 128,-1,13
 962 1011 962 1011 1012.5 937.5 c 128,-1,14
 1063 864 1063 864 1081.5 769 c 128,-1,15
 1100 674 1100 674 1087 569 c 2,16,-1
 1069 451 l 1,17,-1
 362 451 l 1,18,19
 360 399 360 399 375 354.5 c 128,-1,20
 390 310 390 310 418.5 277 c 128,-1,21
 447 244 447 244 489 224.5 c 128,-1,22
 531 205 531 205 585 204 c 0,23,24
 670 201 670 201 745.5 233.5 c 128,-1,25
 821 266 821 266 879 326 c 1,26,-1
 1002 175 l 1,27,28
 966 123 966 123 914.5 86 c 128,-1,29
 863 49 863 49 803.5 25 c 128,-1,30
 744 1 744 1 680 -10 c 128,-1,31
 616 -21 616 -21 556 -20 c 0,0,1
665 878 m 0,32,33
 611 880 611 880 568 860 c 128,-1,34
 525 840 525 840 491.5 806 c 128,-1,35
 458 772 458 772 433 729 c 128,-1,36
 408 686 408 686 389 642 c 1,37,-1
 830 642 l 1,38,-1
 835 667 l 2,39,40
 842 711 842 711 833 749 c 128,-1,41
 824 787 824 787 801.5 815 c 128,-1,42
 779 843 779 843 744.5 859.5 c 128,-1,43
 710 876 710 876 665 878 c 0,32,33
EndSplineSet
Substitution2: "'smcp' Lowercase to Small Capitals lookup 0 subtable" E.smcp
EndChar
StartChar: f
Encoding: 102 102 72
Width: 1202
Flags: W
LayerCount: 2
Back
Fore
SplineSet
293 0 m 1,0,-1
 445 877 l 1,1,-1
 169 877 l 1,2,-1
 206 1082 l 1,3,-1
 474 1081 l 1,4,-1
 485 1142 l 2,5,6
 503 1248 503 1248 549 1330.5 c 128,-1,7
 595 1413 595 1413 664.5 1469 c 128,-1,8
 734 1525 734 1525 824.5 1554 c 128,-1,9
 915 1583 915 1583 1023 1582 c 0,10,11
 1088 1581 1088 1581 1152 1572 c 128,-1,12
 1216 1563 1216 1563 1280 1552 c 1,13,-1
 1238 1334 l 1,14,15
 1191 1345 1191 1345 1143.5 1350.5 c 128,-1,16
 1096 1356 1096 1356 1048 1356 c 0,17,18
 937 1357 937 1357 859.5 1305.5 c 128,-1,19
 782 1254 782 1254 758 1142 c 2,20,-1
 745 1081 l 1,21,-1
 1132 1082 l 1,22,-1
 1095 877 l 1,23,-1
 718 877 l 1,24,-1
 565 0 l 1,25,-1
 293 0 l 1,0,-1
EndSplineSet
Substitution2: "'smcp' Lowercase to Small Capitals lookup 0 subtable" F.smcp
EndChar
StartChar: g
Encoding: 103 103 73
Width: 1202
Flags: W
LayerCount: 2
Back
Fore
SplineSet
101 542 m 2,0,1
 109 610 109 610 128 679 c 128,-1,2
 147 748 147 748 177 811 c 128,-1,3
 207 874 207 874 248 928 c 128,-1,4
 289 982 289 982 342.5 1021.5 c 128,-1,5
 396 1061 396 1061 461.5 1082.5 c 128,-1,6
 527 1104 527 1104 605 1102 c 256,7,8
 683 1100 683 1100 750 1071 c 128,-1,9
 817 1042 817 1042 862 978 c 1,10,-1
 898 1083 l 1,11,-1
 1147 1082 l 1,12,-1
 969 35 l 2,13,14
 953 -75 953 -75 904 -162 c 128,-1,15
 855 -249 855 -249 780.5 -308.5 c 128,-1,16
 706 -368 706 -368 610 -398.5 c 128,-1,17
 514 -429 514 -429 404 -426 c 0,18,19
 350 -425 350 -425 297 -413.5 c 128,-1,20
 244 -402 244 -402 195 -380 c 128,-1,21
 146 -358 146 -358 102.5 -325.5 c 128,-1,22
 59 -293 59 -293 26 -250 c 1,23,-1
 165 -84 l 1,24,25
 210 -142 210 -142 270 -174.5 c 128,-1,26
 330 -207 330 -207 405 -209 c 0,27,28
 463 -211 463 -211 512 -194.5 c 128,-1,29
 561 -178 561 -178 599 -146.5 c 128,-1,30
 637 -115 637 -115 663 -70.5 c 128,-1,31
 689 -26 689 -26 701 30 c 2,32,-1
 715 94 l 1,33,34
 658 39 658 39 591.5 8.5 c 128,-1,35
 525 -22 525 -22 444 -20 c 0,36,37
 372 -19 372 -19 316.5 5 c 128,-1,38
 261 29 261 29 220.5 69.5 c 128,-1,39
 180 110 180 110 153.5 163 c 128,-1,40
 127 216 127 216 112.5 275.5 c 128,-1,41
 98 335 98 335 95 398 c 128,-1,42
 92 461 92 461 98 521 c 2,43,-1
 101 542 l 2,0,1
371 521 m 2,44,45
 368 490 368 490 367 454.5 c 128,-1,46
 366 419 366 419 370 384.5 c 128,-1,47
 374 350 374 350 384 318.5 c 128,-1,48
 394 287 394 287 413 262.5 c 128,-1,49
 432 238 432 238 460.5 222.5 c 128,-1,50
 489 207 489 207 530 206 c 0,51,52
 597 204 597 204 648 232 c 128,-1,53
 699 260 699 260 740 311 c 1,54,-1
 822 772 l 1,55,56
 798 826 798 826 755 851 c 128,-1,57
 712 876 712 876 654 878 c 0,58,59
 586 879 586 879 536 848.5 c 128,-1,60
 486 818 486 818 452.5 769 c 128,-1,61
 419 720 419 720 399.5 659.5 c 128,-1,62
 380 599 380 599 373 542 c 2,63,-1
 371 521 l 2,44,45
EndSplineSet
Substitution2: "'smcp' Lowercase to Small Capitals lookup 0 subtable" G.smcp
EndChar
StartChar: h
Encoding: 104 104 74
Width: 1202
Flags: W
LayerCount: 2
Back
Fore
SplineSet
455 931 m 1,0,1
 514 1007 514 1007 592.5 1055 c 128,-1,2
 671 1103 671 1103 771 1102 c 0,3,4
 867 1101 867 1101 931.5 1063 c 128,-1,5
 996 1025 996 1025 1032.5 962.5 c 128,-1,6
 1069 900 1069 900 1080.5 820 c 128,-1,7
 1092 740 1092 740 1083 655 c 1,8,-1
 974 0 l 1,9,-1
 702 0 l 1,10,-1
 813 658 l 2,11,12
 818 703 818 703 813.5 741.5 c 128,-1,13
 809 780 809 780 791 809.5 c 128,-1,14
 773 839 773 839 741 856 c 128,-1,15
 709 873 709 873 660 875 c 0,16,17
 594 877 594 877 540.5 852 c 128,-1,18
 487 827 487 827 441 782 c 1,19,-1
 303 0 l 1,20,-1
 32 0 l 1,21,-1
 299 1536 l 1,22,-1
 570 1536 l 1,23,-1
 455 931 l 1,0,1
EndSplineSet
Substitution2: "'smcp' Lowercase to Small Capitals lookup 0 subtable" H.smcp
EndChar
StartChar: i
Encoding: 105 105 75
Width: 1202
Flags: W
LayerCount: 2
Back
Fore
SplineSet
292 1082 m 1,0,-1
 865 1082 l 1,1,-1
 716 226 l 1,2,-1
 1001 226 l 1,3,-1
 961 0 l 1,4,-1
 104 0 l 1,5,-1
 143 226 l 1,6,-1
 442 226 l 1,7,-1
 551 855 l 1,8,-1
 252 855 l 1,9,-1
 292 1082 l 1,0,-1
619 1354 m 0,10,11
 619 1388 619 1388 631 1416 c 128,-1,12
 643 1444 643 1444 664.5 1464.5 c 128,-1,13
 686 1485 686 1485 714.5 1496.5 c 128,-1,14
 743 1508 743 1508 776 1508 c 0,15,16
 808 1509 808 1509 836 1499 c 128,-1,17
 864 1489 864 1489 885 1470 c 128,-1,18
 906 1451 906 1451 918.5 1424 c 128,-1,19
 931 1397 931 1397 931 1364 c 0,20,21
 931 1330 931 1330 919 1302 c 128,-1,22
 907 1274 907 1274 886 1253.5 c 128,-1,23
 865 1233 865 1233 836 1221.5 c 128,-1,24
 807 1210 807 1210 774 1210 c 0,25,26
 742 1209 742 1209 714 1219 c 128,-1,27
 686 1229 686 1229 665 1248 c 128,-1,28
 644 1267 644 1267 631.5 1294 c 128,-1,29
 619 1321 619 1321 619 1354 c 0,10,11
EndSplineSet
Substitution2: "'smcp' Lowercase to Small Capitals lookup 0 subtable" I.smcp
EndChar
StartChar: j
Encoding: 106 106 76
Width: 1202
Flags: W
LayerCount: 2
Back
Fore
SplineSet
381 1082 m 1,0,-1
 920 1082 l 1,1,-1
 731 -25 l 2,2,3
 717 -130 717 -130 675.5 -208 c 128,-1,4
 634 -286 634 -286 569 -337.5 c 128,-1,5
 504 -389 504 -389 417.5 -414 c 128,-1,6
 331 -439 331 -439 227 -439 c 0,7,8
 182 -438 182 -438 137.5 -434 c 128,-1,9
 93 -430 93 -430 48 -422 c 1,10,-1
 84 -194 l 1,11,12
 119 -202 119 -202 156.5 -205.5 c 128,-1,13
 194 -209 194 -209 230 -210 c 0,14,15
 323 -212 323 -212 382 -164.5 c 128,-1,16
 441 -117 441 -117 457 -25 c 2,17,-1
 606 855 l 1,18,-1
 341 855 l 1,19,-1
 381 1082 l 1,0,-1
676 1354 m 256,20,21
 676 1387 676 1387 687.5 1415.5 c 128,-1,22
 699 1444 699 1444 720 1464 c 128,-1,23
 741 1484 741 1484 769.5 1496 c 128,-1,24
 798 1508 798 1508 831 1508 c 0,25,26
 863 1509 863 1509 891 1499 c 128,-1,27
 919 1489 919 1489 940.5 1470 c 128,-1,28
 962 1451 962 1451 974.5 1424 c 128,-1,29
 987 1397 987 1397 987 1364 c 0,30,31
 987 1330 987 1330 975 1302 c 128,-1,32
 963 1274 963 1274 941.5 1253.5 c 128,-1,33
 920 1233 920 1233 891.5 1221.5 c 128,-1,34
 863 1210 863 1210 830 1210 c 0,35,36
 798 1209 798 1209 770 1219.5 c 128,-1,37
 742 1230 742 1230 721.5 1249 c 128,-1,38
 701 1268 701 1268 688.5 1294.5 c 128,-1,39
 676 1321 676 1321 676 1354 c 256,20,21
EndSplineSet
Substitution2: "'smcp' Lowercase to Small Capitals lookup 0 subtable" J.smcp
EndChar
StartChar: k
Encoding: 107 107 77
Width: 1202
Flags: W
LayerCount: 2
Back
Fore
SplineSet
514 445 m 1,0,-1
 362 320 l 1,1,-1
 306 0 l 1,2,-1
 35 0 l 1,3,-1
 302 1536 l 1,4,-1
 573 1536 l 1,5,-1
 422 671 l 1,6,-1
 512 758 l 1,7,-1
 855 1082 l 1,8,-1
 1199 1082 l 1,9,-1
 713 620 l 1,10,-1
 1049 0 l 1,11,-1
 733 0 l 1,12,-1
 514 445 l 1,0,-1
EndSplineSet
Substitution2: "'smcp' Lowercase to Small Capitals lookup 0 subtable" K.smcp
EndChar
StartChar: m
Encoding: 109 109 79
Width: 1202
Flags: W
LayerCount: 2
Back
Fore
SplineSet
388 1083 m 1,0,-1
 363 950 l 1,1,2
 382 983 382 983 404.5 1011 c 128,-1,3
 427 1039 427 1039 454.5 1059.5 c 128,-1,4
 482 1080 482 1080 515.5 1091.5 c 128,-1,5
 549 1103 549 1103 589 1103 c 0,6,7
 649 1102 649 1102 689.5 1074.5 c 128,-1,8
 730 1047 730 1047 743 987 c 1,9,10
 783 1038 783 1038 832.5 1070.5 c 128,-1,11
 882 1103 882 1103 950 1102 c 0,12,13
 994 1101 994 1101 1025.5 1086 c 128,-1,14
 1057 1071 1057 1071 1078.5 1045.5 c 128,-1,15
 1100 1020 1100 1020 1113 987 c 128,-1,16
 1126 954 1126 954 1132 917.5 c 128,-1,17
 1138 881 1138 881 1138 843.5 c 128,-1,18
 1138 806 1138 806 1135 772 c 2,19,-1
 1007 0 l 1,20,-1
 760 0 l 1,21,-1
 891 775 l 2,22,23
 893 791 893 791 893 808.5 c 128,-1,24
 893 826 893 826 888 841 c 128,-1,25
 883 856 883 856 871.5 866 c 128,-1,26
 860 876 860 876 839 876 c 0,27,28
 810 876 810 876 790 861.5 c 128,-1,29
 770 847 770 847 752 827 c 1,30,-1
 607 0 l 1,31,-1
 368 0 l 1,32,-1
 499 776 l 2,33,34
 500 792 500 792 500.5 810 c 128,-1,35
 501 828 501 828 496.5 842.5 c 128,-1,36
 492 857 492 857 480.5 866.5 c 128,-1,37
 469 876 469 876 447 876 c 0,38,39
 414 876 414 876 393 856.5 c 128,-1,40
 372 837 372 837 356 811 c 1,41,-1
 215 0 l 1,42,-1
 -32 0 l 1,43,-1
 156 1082 l 1,44,-1
 388 1083 l 1,0,-1
EndSplineSet
Substitution2: "'smcp' Lowercase to Small Capitals lookup 0 subtable" M.smcp
EndChar
StartChar: n
Encoding: 110 110 80
Width: 1202
Flags: W
LayerCount: 2
Back
Fore
SplineSet
464 1083 m 1,0,-1
 446 931 l 1,1,2
 510 1009 510 1009 593.5 1056.5 c 128,-1,3
 677 1104 677 1104 782 1102 c 0,4,5
 876 1100 876 1100 937.5 1063 c 128,-1,6
 999 1026 999 1026 1034 965 c 128,-1,7
 1069 904 1069 904 1080 826.5 c 128,-1,8
 1091 749 1091 749 1082 666 c 1,9,-1
 971 0 l 1,10,-1
 700 0 l 1,11,-1
 810 663 l 2,12,13
 815 710 815 710 810.5 748.5 c 128,-1,14
 806 787 806 787 788.5 815 c 128,-1,15
 771 843 771 843 738.5 859 c 128,-1,16
 706 875 706 875 655 876 c 0,17,18
 588 877 588 877 535 848.5 c 128,-1,19
 482 820 482 820 439 770 c 1,20,-1
 304 0 l 1,21,-1
 32 0 l 1,22,-1
 220 1082 l 1,23,-1
 464 1083 l 1,0,-1
EndSplineSet
Substitution2: "'smcp' Lowercase to Small Capitals lookup 0 subtable" N.smcp
EndChar
StartChar: o
Encoding: 111 111 81
Width: 1202
Flags: W
LayerCount: 2
Back
Fore
SplineSet
91 544 m 2,0,1
 105 658 105 658 150.5 760.5 c 128,-1,2
 196 863 196 863 269 940 c 128,-1,3
 342 1017 342 1017 441.5 1061 c 128,-1,4
 541 1105 541 1105 663 1102 c 0,5,6
 780 1100 780 1100 864 1054 c 128,-1,7
 948 1008 948 1008 1000.5 932.5 c 128,-1,8
 1053 857 1053 857 1073 759 c 128,-1,9
 1093 661 1093 661 1082 554 c 2,10,-1
 1079 532 l 2,11,12
 1065 418 1065 418 1019.5 316.5 c 128,-1,13
 974 215 974 215 901 139 c 128,-1,14
 828 63 828 63 728.5 19.5 c 128,-1,15
 629 -24 629 -24 508 -21 c 0,16,17
 392 -19 392 -19 308 26.5 c 128,-1,18
 224 72 224 72 171.5 146.5 c 128,-1,19
 119 221 119 221 98.5 318.5 c 128,-1,20
 78 416 78 416 89 523 c 2,21,-1
 91 544 l 2,0,1
360 523 m 2,22,23
 355 473 355 473 356 417.5 c 128,-1,24
 357 362 357 362 373.5 314.5 c 128,-1,25
 390 267 390 267 426.5 234.5 c 128,-1,26
 463 202 463 202 528 200 c 0,27,28
 596 198 596 198 645.5 228.5 c 128,-1,29
 695 259 695 259 728.5 307.5 c 128,-1,30
 762 356 762 356 780.5 415.5 c 128,-1,31
 799 475 799 475 807 532 c 2,32,-1
 809 553 l 2,33,34
 812 586 812 586 813.5 622.5 c 128,-1,35
 815 659 815 659 810.5 694.5 c 128,-1,36
 806 730 806 730 795.5 762.5 c 128,-1,37
 785 795 785 795 765.5 820 c 128,-1,38
 746 845 746 845 716 860.5 c 128,-1,39
 686 876 686 876 643 878 c 0,40,41
 574 880 574 880 524.5 850 c 128,-1,42
 475 820 475 820 441.5 771 c 128,-1,43
 408 722 408 722 388.5 662 c 128,-1,44
 369 602 369 602 362 544 c 2,45,-1
 360 523 l 2,22,23
EndSplineSet
Substitution2: "'smcp' Lowercase to Small Capitals lookup 0 subtable" O.smcp
EndChar
StartChar: p
Encoding: 112 112 82
Width: 1202
Flags: W
LayerCount: 2
Back
Fore
SplineSet
1069 537 m 2,0,1
 1061 471 1061 471 1043 403.5 c 128,-1,2
 1025 336 1025 336 996.5 273 c 128,-1,3
 968 210 968 210 928.5 156 c 128,-1,4
 889 102 889 102 837.5 62 c 128,-1,5
 786 22 786 22 722.5 -0.5 c 128,-1,6
 659 -23 659 -23 582 -21 c 0,7,8
 507 -19 507 -19 443.5 9.5 c 128,-1,9
 380 38 380 38 332 96 c 1,10,-1
 235 -416 l 1,11,-1
 -36 -416 l 1,12,-1
 224 1082 l 1,13,-1
 472 1083 l 1,14,-1
 455 975 l 1,15,16
 512 1037 512 1037 582 1070.5 c 128,-1,17
 652 1104 652 1104 737 1102 c 0,18,19
 811 1100 811 1100 866 1076.5 c 128,-1,20
 921 1053 921 1053 960.5 1012.5 c 128,-1,21
 1000 972 1000 972 1024.5 919 c 128,-1,22
 1049 866 1049 866 1061.5 806.5 c 128,-1,23
 1074 747 1074 747 1075.5 683.5 c 128,-1,24
 1077 620 1077 620 1071 559 c 2,25,-1
 1069 537 l 2,0,1
799 559 m 2,26,27
 804 605 804 605 804 659.5 c 128,-1,28
 804 714 804 714 789.5 761.5 c 128,-1,29
 775 809 775 809 742 841.5 c 128,-1,30
 709 874 709 874 647 876 c 0,31,32
 581 878 581 878 530.5 849 c 128,-1,33
 480 820 480 820 441 768 c 1,34,-1
 361 314 l 1,35,36
 383 257 383 257 425.5 230.5 c 128,-1,37
 468 204 468 204 528 202 c 0,38,39
 596 200 596 200 644 231 c 128,-1,40
 692 262 692 262 724 311.5 c 128,-1,41
 756 361 756 361 773 421.5 c 128,-1,42
 790 482 790 482 797 538 c 2,43,-1
 799 559 l 2,26,27
EndSplineSet
Substitution2: "'smcp' Lowercase to Small Capitals lookup 0 subtable" P.smcp
EndChar
StartChar: q
Encoding: 113 113 83
Width: 1202
Flags: W
LayerCount: 2
Back
Fore
SplineSet
101 543 m 2,0,1
 113 645 113 645 147.5 746 c 128,-1,2
 182 847 182 847 242 927.5 c 128,-1,3
 302 1008 302 1008 389 1056.5 c 128,-1,4
 476 1105 476 1105 593 1102 c 0,5,6
 672 1100 672 1100 738 1068 c 128,-1,7
 804 1036 804 1036 849 971 c 1,8,-1
 891 1082 l 1,9,-1
 1133 1082 l 1,10,-1
 873 -416 l 1,11,-1
 601 -416 l 1,12,-1
 700 93 l 1,13,14
 644 38 644 38 578 8 c 128,-1,15
 512 -22 512 -22 433 -20 c 0,16,17
 361 -19 361 -19 306 5.5 c 128,-1,18
 251 30 251 30 211.5 70.5 c 128,-1,19
 172 111 172 111 147.5 164.5 c 128,-1,20
 123 218 123 218 110 277.5 c 128,-1,21
 97 337 97 337 94.5 400 c 128,-1,22
 92 463 92 463 99 522 c 2,23,-1
 101 543 l 2,0,1
370 522 m 2,24,25
 367 492 367 492 365.5 457 c 128,-1,26
 364 422 364 422 367 387 c 128,-1,27
 370 352 370 352 379 319.5 c 128,-1,28
 388 287 388 287 405.5 261.5 c 128,-1,29
 423 236 423 236 451 220 c 128,-1,30
 479 204 479 204 520 203 c 0,31,32
 586 201 586 201 636.5 230.5 c 128,-1,33
 687 260 687 260 726 311 c 1,34,-1
 808 774 l 1,35,36
 785 827 785 827 743 852 c 128,-1,37
 701 877 701 877 643 879 c 0,38,39
 575 880 575 880 526.5 849.5 c 128,-1,40
 478 819 478 819 446 769.5 c 128,-1,41
 414 720 414 720 396.5 660 c 128,-1,42
 379 600 379 600 372 543 c 2,43,-1
 370 522 l 2,24,25
EndSplineSet
Substitution2: "'smcp' Lowercase to Small Capitals lookup 0 subtable" Q.smcp
EndChar
StartChar: r
Encoding: 114 114 84
Width: 1202
Flags: W
LayerCount: 2
Back
Fore
SplineSet
962 1104 m 0,0,1
 1014 1103 1014 1103 1064.5 1095.5 c 128,-1,2
 1115 1088 1115 1088 1166 1075 c 1,3,-1
 1092 798 l 1,4,5
 1040 811 1040 811 988 818.5 c 128,-1,6
 936 826 936 826 882 827 c 0,7,8
 670 829 670 829 558 651 c 1,9,-1
 445 0 l 1,10,-1
 174 0 l 1,11,-1
 362 1082 l 1,12,-1
 614 1082 l 1,13,-1
 586 904 l 1,14,15
 622 948 622 948 663 985 c 128,-1,16
 704 1022 704 1022 751 1048.5 c 128,-1,17
 798 1075 798 1075 850.5 1089.5 c 128,-1,18
 903 1104 903 1104 962 1104 c 0,0,1
EndSplineSet
Substitution2: "'smcp' Lowercase to Small Capitals lookup 0 subtable" R.smcp
EndChar
StartChar: s
Encoding: 115 115 85
Width: 1202
Flags: W
LayerCount: 2
Back
Fore
SplineSet
767 303 m 0,0,1
 772 328 772 328 762 346.5 c 128,-1,2
 752 365 752 365 734 378.5 c 128,-1,3
 716 392 716 392 691.5 401.5 c 128,-1,4
 667 411 667 411 642 417.5 c 128,-1,5
 617 424 617 424 593.5 428 c 128,-1,6
 570 432 570 432 554 436 c 0,7,8
 492 451 492 451 424.5 474.5 c 128,-1,9
 357 498 357 498 301.5 535.5 c 128,-1,10
 246 573 246 573 211 628 c 128,-1,11
 176 683 176 683 179 760 c 0,12,13
 181 820 181 820 204 869.5 c 128,-1,14
 227 919 227 919 263.5 957 c 128,-1,15
 300 995 300 995 347.5 1023 c 128,-1,16
 395 1051 395 1051 448.5 1068.5 c 128,-1,17
 502 1086 502 1086 557 1094.5 c 128,-1,18
 612 1103 612 1103 664 1102 c 0,19,20
 746 1101 746 1101 824 1080.5 c 128,-1,21
 902 1060 902 1060 963.5 1017 c 128,-1,22
 1025 974 1025 974 1062.5 908.5 c 128,-1,23
 1100 843 1100 843 1100 752 c 1,24,-1
 830 753 l 1,25,26
 831 792 831 792 817.5 820 c 128,-1,27
 804 848 804 848 780 865.5 c 128,-1,28
 756 883 756 883 723.5 891.5 c 128,-1,29
 691 900 691 900 654 900 c 0,30,31
 623 900 623 900 588 894 c 128,-1,32
 553 888 553 888 522 873.5 c 128,-1,33
 491 859 491 859 468.5 834.5 c 128,-1,34
 446 810 446 810 440 774 c 0,35,36
 433 736 433 736 452 713 c 128,-1,37
 471 690 471 690 501 676.5 c 128,-1,38
 531 663 531 663 566 656 c 128,-1,39
 601 649 601 649 627 644 c 0,40,41
 694 631 694 631 767 609.5 c 128,-1,42
 840 588 840 588 899.5 551 c 128,-1,43
 959 514 959 514 996.5 457 c 128,-1,44
 1034 400 1034 400 1030 316 c 0,45,46
 1027 253 1027 253 1003 203.5 c 128,-1,47
 979 154 979 154 940.5 116 c 128,-1,48
 902 78 902 78 851.5 51.5 c 128,-1,49
 801 25 801 25 745.5 8.5 c 128,-1,50
 690 -8 690 -8 632.5 -15 c 128,-1,51
 575 -22 575 -22 523 -21 c 0,52,53
 440 -20 440 -20 360 3 c 128,-1,54
 280 26 280 26 216.5 71.5 c 128,-1,55
 153 117 153 117 113.5 184.5 c 128,-1,56
 74 252 74 252 74 344 c 1,57,-1
 331 343 l 1,58,59
 333 299 333 299 350 268 c 128,-1,60
 367 237 367 237 395.5 217.5 c 128,-1,61
 424 198 424 198 460.5 189 c 128,-1,62
 497 180 497 180 538 180 c 0,63,64
 569 180 569 180 606.5 185 c 128,-1,65
 644 190 644 190 677.5 203.5 c 128,-1,66
 711 217 711 217 735.5 241 c 128,-1,67
 760 265 760 265 767 303 c 0,0,1
EndSplineSet
Substitution2: "'smcp' Lowercase to Small Capitals lookup 0 subtable" S.smcp
EndChar
StartChar: t
Encoding: 116 116 86
Width: 1202
Flags: W
LayerCount: 2
Back
Fore
SplineSet
762 1347 m 1,0,-1
 716 1082 l 1,1,-1
 1108 1082 l 1,2,-1
 1072 877 l 1,3,-1
 680 877 l 1,4,-1
 604 411 l 2,5,6
 599 368 599 368 602.5 332 c 128,-1,7
 606 296 606 296 621.5 269 c 128,-1,8
 637 242 637 242 666.5 226 c 128,-1,9
 696 210 696 210 743 209 c 0,10,11
 801 207 801 207 858 216 c 128,-1,12
 915 225 915 225 972 237 c 1,13,-1
 981 44 l 1,14,15
 945 24 945 24 904.5 11 c 128,-1,16
 864 -2 864 -2 821.5 -9 c 128,-1,17
 779 -16 779 -16 736 -18.5 c 128,-1,18
 693 -21 693 -21 653 -20 c 0,19,20
 562 -19 562 -19 496.5 12.5 c 128,-1,21
 431 44 431 44 390.5 98 c 128,-1,22
 350 152 350 152 334.5 225.5 c 128,-1,23
 319 299 319 299 328 385 c 1,24,-1
 409 877 l 1,25,-1
 169 877 l 1,26,-1
 205 1082 l 1,27,-1
 445 1082 l 1,28,-1
 491 1347 l 1,29,-1
 762 1347 l 1,0,-1
EndSplineSet
Substitution2: "'smcp' Lowercase to Small Capitals lookup 0 subtable" T.smcp
EndChar
StartChar: u
Encoding: 117 117 87
Width: 1202
Flags: W
LayerCount: 2
Back
Fore
SplineSet
739 153 m 1,0,1
 709 115 709 115 675 83 c 128,-1,2
 641 51 641 51 602 27.5 c 128,-1,3
 563 4 563 4 518.5 -9 c 128,-1,4
 474 -22 474 -22 425 -21 c 0,5,6
 359 -20 359 -20 309.5 -1 c 128,-1,7
 260 18 260 18 224 51 c 128,-1,8
 188 84 188 84 165.5 128 c 128,-1,9
 143 172 143 172 131 223 c 128,-1,10
 119 274 119 274 117.5 330 c 128,-1,11
 116 386 116 386 122 442 c 2,12,-1
 229 1082 l 1,13,-1
 500 1082 l 1,14,-1
 393 439 l 2,15,16
 388 397 388 397 387.5 355.5 c 128,-1,17
 387 314 387 314 398.5 281 c 128,-1,18
 410 248 410 248 438 227 c 128,-1,19
 466 206 466 206 518 205 c 0,20,21
 591 203 591 203 647.5 233.5 c 128,-1,22
 704 264 704 264 746 322 c 1,23,-1
 879 1082 l 1,24,-1
 1151 1082 l 1,25,-1
 963 0 l 1,26,-1
 718 0 l 1,27,-1
 739 153 l 1,0,1
EndSplineSet
Substitution2: "'smcp' Lowercase to Small Capitals lookup 0 subtable" U.smcp
EndChar
StartChar: v
Encoding: 118 118 88
Width: 1202
Flags: W
LayerCount: 2
Back
Fore
SplineSet
537 321 m 1,0,-1
 539 248 l 1,1,-1
 567 329 l 1,2,-1
 912 1082 l 1,3,-1
 1203 1082 l 1,4,-1
 635 0 l 1,5,-1
 381 0 l 1,6,-1
 149 1082 l 1,7,-1
 418 1083 l 1,8,-1
 537 321 l 1,0,-1
EndSplineSet
Substitution2: "'smcp' Lowercase to Small Capitals lookup 0 subtable" V.smcp
EndChar
StartChar: w
Encoding: 119 119 89
Width: 1202
Flags: W
LayerCount: 2
Back
Fore
SplineSet
761 342 m 1,0,-1
 980 1082 l 1,1,-1
 1234 1082 l 1,2,-1
 858 0 l 1,3,-1
 620 0 l 1,4,-1
 602 684 l 1,5,-1
 351 0 l 1,6,-1
 112 0 l 1,7,-1
 112 1082 l 1,8,-1
 356 1082 l 1,9,-1
 317 344 l 1,10,-1
 576 1082 l 1,11,-1
 758 1082 l 1,12,-1
 761 342 l 1,0,-1
EndSplineSet
Substitution2: "'smcp' Lowercase to Small Capitals lookup 0 subtable" W.smcp
EndChar
StartChar: x
Encoding: 120 120 90
Width: 1202
Flags: W
LayerCount: 2
Back
Fore
SplineSet
632 745 m 1,0,-1
 915 1082 l 1,1,-1
 1221 1082 l 1,2,-1
 777 540 l 1,3,-1
 1050 0 l 1,4,-1
 773 0 l 1,5,-1
 587 353 l 1,6,-1
 293 0 l 1,7,-1
 -15 0 l 1,8,-1
 445 562 l 1,9,-1
 182 1082 l 1,10,-1
 459 1082 l 1,11,-1
 632 745 l 1,0,-1
EndSplineSet
Substitution2: "'smcp' Lowercase to Small Capitals lookup 0 subtable" X.smcp
EndChar
StartChar: y
Encoding: 121 121 91
Width: 1202
Flags: W
LayerCount: 2
Back
Fore
SplineSet
557 442 m 1,0,-1
 566 343 l 1,1,-1
 972 1082 l 1,2,-1
 1283 1082 l 1,3,-1
 536 -163 l 2,4,5
 503 -220 503 -220 463.5 -271 c 128,-1,6
 424 -322 424 -322 376 -359.5 c 128,-1,7
 328 -397 328 -397 269.5 -418.5 c 128,-1,8
 211 -440 211 -440 140 -440 c 0,9,10
 104 -439 104 -439 69.5 -432.5 c 128,-1,11
 35 -426 35 -426 0 -417 c 1,12,-1
 55 -206 l 1,13,14
 75 -207 75 -207 97 -210 c 128,-1,15
 119 -213 119 -213 139 -211 c 0,16,17
 168 -209 168 -209 191 -196 c 128,-1,18
 214 -183 214 -183 233.5 -164 c 128,-1,19
 253 -145 253 -145 270.5 -122.5 c 128,-1,20
 288 -100 288 -100 305 -80 c 2,21,-1
 401 59 l 1,22,-1
 139 1082 l 1,23,-1
 425 1082 l 1,24,-1
 557 442 l 1,0,-1
EndSplineSet
Substitution2: "'smcp' Lowercase to Small Capitals lookup 0 subtable" Y.smcp
EndChar
StartChar: z
Encoding: 122 122 92
Width: 1202
Flags: W
LayerCount: 2
Back
Fore
SplineSet
433 223 m 1,0,-1
 1043 223 l 1,1,-1
 1008 0 l 1,2,-1
 20 0 l 1,3,-1
 49 182 l 1,4,-1
 733 856 l 1,5,-1
 167 856 l 1,6,-1
 203 1082 l 1,7,-1
 1153 1082 l 1,8,-1
 1125 905 l 1,9,-1
 433 223 l 1,0,-1
EndSplineSet
Substitution2: "'smcp' Lowercase to Small Capitals lookup 0 subtable" Z.smcp
EndChar
StartChar: braceleft
Encoding: 123 123 93
Width: 1202
Flags: W
LayerCount: 2
Back
Fore
SplineSet
774 -359 m 1,0,1
 714 -356 714 -356 666.5 -335 c 128,-1,2
 619 -314 619 -314 583 -280 c 128,-1,3
 547 -246 547 -246 522.5 -201 c 128,-1,4
 498 -156 498 -156 484 -105.5 c 128,-1,5
 470 -55 470 -55 465.5 -1 c 128,-1,6
 461 53 461 53 467 106 c 2,7,-1
 488 270 l 2,8,9
 495 329 495 329 487.5 374 c 128,-1,10
 480 419 480 419 456.5 449.5 c 128,-1,11
 433 480 433 480 392.5 497 c 128,-1,12
 352 514 352 514 292 517 c 1,13,-1
 312 717 l 1,14,15
 439 719 439 719 512 780.5 c 128,-1,16
 585 842 585 842 603 969 c 2,17,-1
 624 1132 l 2,18,19
 636 1225 636 1225 668.5 1308 c 128,-1,20
 701 1391 701 1391 754.5 1454.5 c 128,-1,21
 808 1518 808 1518 884 1557 c 128,-1,22
 960 1596 960 1596 1061 1600 c 1,23,-1
 1080 1441 l 1,24,25
 1016 1440 1016 1440 978 1410.5 c 128,-1,26
 940 1381 940 1381 918 1336 c 128,-1,27
 896 1291 896 1291 886.5 1237 c 128,-1,28
 877 1183 877 1183 870 1132 c 2,29,-1
 849 969 l 2,30,31
 832 834 832 834 757 748.5 c 128,-1,32
 682 663 682 663 558 613 c 1,33,34
 607 587 607 587 643 550.5 c 128,-1,35
 679 514 679 514 700.5 470 c 128,-1,36
 722 426 722 426 730.5 375 c 128,-1,37
 739 324 739 324 734 269 c 2,38,-1
 713 105 l 2,39,40
 710 80 710 80 706.5 48 c 128,-1,41
 703 16 703 16 703 -16.5 c 128,-1,42
 703 -49 703 -49 707.5 -80.5 c 128,-1,43
 712 -112 712 -112 724.5 -137.5 c 128,-1,44
 737 -163 737 -163 759.5 -180 c 128,-1,45
 782 -197 782 -197 817 -200 c 1,46,-1
 774 -359 l 1,0,1
EndSplineSet
EndChar
StartChar: braceright
Encoding: 125 125 95
Width: 1202
Flags: W
LayerCount: 2
Back
Fore
SplineSet
193 -203 m 1,0,1
 251 -202 251 -202 288.5 -171 c 128,-1,2
 326 -140 326 -140 349.5 -93.5 c 128,-1,3
 373 -47 373 -47 385 6.5 c 128,-1,4
 397 60 397 60 403 106 c 2,5,-1
 424 269 l 2,6,7
 441 400 441 400 512 485.5 c 128,-1,8
 583 571 583 571 702 622 c 1,9,10
 608 678 608 678 568.5 770 c 128,-1,11
 529 862 529 862 539 969 c 2,12,-1
 560 1133 l 2,13,14
 564 1162 564 1162 568.5 1195.5 c 128,-1,15
 573 1229 573 1229 574.5 1261.5 c 128,-1,16
 576 1294 576 1294 572.5 1325 c 128,-1,17
 569 1356 569 1356 556 1380 c 128,-1,18
 543 1404 543 1404 519 1420 c 128,-1,19
 495 1436 495 1436 455 1439 c 1,20,-1
 501 1596 l 1,21,22
 593 1592 593 1592 655.5 1549 c 128,-1,23
 718 1506 718 1506 754.5 1440 c 128,-1,24
 791 1374 791 1374 803 1293 c 128,-1,25
 815 1212 815 1212 806 1132 c 2,26,-1
 785 968 l 2,27,28
 778 909 778 909 785.5 863.5 c 128,-1,29
 793 818 793 818 816 787 c 128,-1,30
 839 756 839 756 880 739 c 128,-1,31
 921 722 921 722 981 719 c 1,32,-1
 961 519 l 1,33,34
 835 517 835 517 762 456 c 128,-1,35
 689 395 689 395 671 269 c 2,36,-1
 649 106 l 2,37,38
 637 16 637 16 604.5 -67 c 128,-1,39
 572 -150 572 -150 518 -214 c 128,-1,40
 464 -278 464 -278 388.5 -318 c 128,-1,41
 313 -358 313 -358 216 -364 c 1,42,-1
 193 -203 l 1,0,1
EndSplineSet
EndChar
StartChar: asciitilde
Encoding: 126 126 96
Width: 1202
Flags: W
LayerCount: 2
Back
Fore
SplineSet
1128 753 m 1,0,1
 1122 683 1122 683 1098.5 615 c 128,-1,2
 1075 547 1075 547 1034 494 c 128,-1,3
 993 441 993 441 933.5 408.5 c 128,-1,4
 874 376 874 376 795 377 c 0,5,6
 751 377 751 377 712.5 387.5 c 128,-1,7
 674 398 674 398 639.5 416 c 128,-1,8
 605 434 605 434 573 458.5 c 128,-1,9
 541 483 541 483 510 512 c 0,10,11
 493 528 493 528 473.5 543.5 c 128,-1,12
 454 559 454 559 432 571 c 128,-1,13
 410 583 410 583 386.5 590.5 c 128,-1,14
 363 598 363 598 339 598 c 0,15,16
 306 598 306 598 279.5 583 c 128,-1,17
 253 568 253 568 233 545 c 128,-1,18
 213 522 213 522 199.5 493 c 128,-1,19
 186 464 186 464 180 436 c 1,20,-1
 8 457 l 1,21,22
 14 527 14 527 37 593.5 c 128,-1,23
 60 660 60 660 101 712 c 128,-1,24
 142 764 142 764 201.5 795 c 128,-1,25
 261 826 261 826 339 825 c 0,26,27
 426 824 426 824 496 786 c 128,-1,28
 566 748 566 748 627 691 c 0,29,30
 644 675 644 675 663 659.5 c 128,-1,31
 682 644 682 644 703 631.5 c 128,-1,32
 724 619 724 619 747 612 c 128,-1,33
 770 605 770 605 795 605 c 0,34,35
 828 605 828 605 853.5 620.5 c 128,-1,36
 879 636 879 636 898 660 c 128,-1,37
 917 684 917 684 929.5 713 c 128,-1,38
 942 742 942 742 947 771 c 1,39,-1
 1128 753 l 1,0,1
EndSplineSet
EndChar
StartChar: exclamdown
Encoding: 161 161 97
Width: 1202
Flags: W
LayerCount: 2
Back
Fore
SplineSet
492 565 m 1,0,-1
 739 565 l 1,1,-1
 590 -380 l 1,2,-1
 311 -380 l 1,3,-1
 492 565 l 1,0,-1
844 953 m 0,4,5
 844 919 844 919 831.5 890 c 128,-1,6
 819 861 819 861 797.5 840 c 128,-1,7
 776 819 776 819 747 807 c 128,-1,8
 718 795 718 795 685 795 c 0,9,10
 652 794 652 794 623.5 804.5 c 128,-1,11
 595 815 595 815 574 834.5 c 128,-1,12
 553 854 553 854 540.5 881 c 128,-1,13
 528 908 528 908 528 941 c 0,14,15
 528 975 528 975 539.5 1004.5 c 128,-1,16
 551 1034 551 1034 572.5 1056 c 128,-1,17
 594 1078 594 1078 623 1090.5 c 128,-1,18
 652 1103 652 1103 687 1104 c 0,19,20
 720 1105 720 1105 748.5 1093.5 c 128,-1,21
 777 1082 777 1082 798 1062 c 128,-1,22
 819 1042 819 1042 831.5 1014 c 128,-1,23
 844 986 844 986 844 953 c 0,4,5
EndSplineSet
EndChar
StartChar: cent
Encoding: 162 162 98
Width: 1202
Flags: W
LayerCount: 2
Back
Fore
SplineSet
555 201 m 0,0,1
 595 200 595 200 631.5 211 c 128,-1,2
 668 222 668 222 697.5 243.5 c 128,-1,3
 727 265 727 265 747.5 297 c 128,-1,4
 768 329 768 329 774 369 c 1,5,-1
 1028 371 l 1,6,7
 1023 288 1023 288 987 220.5 c 128,-1,8
 951 153 951 153 894 103 c 128,-1,9
 837 53 837 53 764.5 22.5 c 128,-1,10
 692 -8 692 -8 614 -17 c 1,11,-1
 574 -245 l 1,12,-1
 378 -245 l 1,13,-1
 421 -4 l 1,14,15
 337 18 337 18 276.5 69 c 128,-1,16
 216 120 216 120 179.5 190 c 128,-1,17
 143 260 143 260 130 345 c 128,-1,18
 117 430 117 430 126 522 c 2,19,-1
 129 553 l 2,20,21
 141 656 141 656 179.5 749 c 128,-1,22
 218 842 218 842 280 915 c 128,-1,23
 342 988 342 988 425.5 1036 c 128,-1,24
 509 1084 509 1084 611 1097 c 1,25,-1
 650 1318 l 1,26,-1
 846 1318 l 1,27,-1
 805 1088 l 1,28,29
 874 1071 874 1071 929 1034.5 c 128,-1,30
 984 998 984 998 1022 945.5 c 128,-1,31
 1060 893 1060 893 1078 826 c 128,-1,32
 1096 759 1096 759 1092 681 c 1,33,-1
 837 682 l 1,34,35
 840 722 840 722 831 757.5 c 128,-1,36
 822 793 822 793 801 819 c 128,-1,37
 780 845 780 845 748 860.5 c 128,-1,38
 716 876 716 876 673 878 c 0,39,40
 604 880 604 880 555.5 851 c 128,-1,41
 507 822 507 822 475 774.5 c 128,-1,42
 443 727 443 727 425 668.5 c 128,-1,43
 407 610 407 610 400 553 c 2,44,-1
 396 523 l 2,45,46
 391 475 391 475 391 419 c 128,-1,47
 391 363 391 363 406 315.5 c 128,-1,48
 421 268 421 268 455.5 235.5 c 128,-1,49
 490 203 490 203 555 201 c 0,0,1
EndSplineSet
EndChar
StartChar: sterling
Encoding: 163 163 99
Width: 1202
Flags: W
LayerCount: 2
Back
Fore
SplineSet
541 585 m 1,0,-1
 523 433 l 2,1,2
 514 370 514 370 489 319 c 128,-1,3
 464 268 464 268 420 223 c 1,4,-1
 1074 226 l 1,5,-1
 1035 0 l 1,6,-1
 10 0 l 1,7,-1
 50 225 l 1,8,-1
 125 223 l 1,9,10
 156 235 156 235 176.5 255.5 c 128,-1,11
 197 276 197 276 210.5 302.5 c 128,-1,12
 224 329 224 329 231 359 c 128,-1,13
 238 389 238 389 243 419 c 2,14,-1
 266 585 l 1,15,-1
 108 585 l 1,16,-1
 147 806 l 1,17,-1
 298 806 l 1,18,-1
 328 1040 l 2,19,20
 340 1139 340 1139 382 1220 c 128,-1,21
 424 1301 424 1301 490 1358.5 c 128,-1,22
 556 1416 556 1416 642.5 1447 c 128,-1,23
 729 1478 729 1478 829 1476 c 0,24,25
 923 1474 923 1474 996 1444 c 128,-1,26
 1069 1414 1069 1414 1118 1360 c 128,-1,27
 1167 1306 1167 1306 1191 1230.5 c 128,-1,28
 1215 1155 1215 1155 1211 1063 c 1,29,-1
 948 1064 l 1,30,31
 950 1103 950 1103 943.5 1136.5 c 128,-1,32
 937 1170 937 1170 919.5 1194.5 c 128,-1,33
 902 1219 902 1219 873.5 1234 c 128,-1,34
 845 1249 845 1249 802 1250 c 0,35,36
 757 1251 757 1251 722 1233.5 c 128,-1,37
 687 1216 687 1216 662 1186.5 c 128,-1,38
 637 1157 637 1157 621.5 1119 c 128,-1,39
 606 1081 606 1081 600 1041 c 2,40,-1
 572 806 l 1,41,-1
 873 806 l 1,42,-1
 834 585 l 1,43,-1
 541 585 l 1,0,-1
EndSplineSet
EndChar
StartChar: currency
Encoding: 164 164 100
Width: 1202
Flags: W
LayerCount: 2
Back
Fore
SplineSet
800 76 m 1,0,1
 733 31 733 31 659.5 4.5 c 128,-1,2
 586 -22 586 -22 504 -20 c 0,3,4
 431 -19 431 -19 362.5 5 c 128,-1,5
 294 29 294 29 237 76 c 1,6,-1
 119 -26 l 1,7,-1
 -1 129 l 1,8,-1
 121 230 l 1,9,10
 103 297 103 297 96.5 365 c 128,-1,11
 90 433 90 433 98 502 c 0,12,13
 109 587 109 587 142 662.5 c 128,-1,14
 175 738 175 738 229 806 c 1,15,-1
 137 931 l 1,16,-1
 288 1064 l 1,17,-1
 375 949 l 1,18,19
 440 988 440 988 509.5 1011.5 c 128,-1,20
 579 1035 579 1035 655 1034 c 0,21,22
 725 1033 725 1033 790 1011 c 128,-1,23
 855 989 855 989 911 946 c 1,24,-1
 1048 1065 l 1,25,-1
 1169 909 l 1,26,-1
 1032 795 l 1,27,28
 1053 726 1053 726 1060.5 656.5 c 128,-1,29
 1068 587 1068 587 1059 515 c 0,30,31
 1049 434 1049 434 1018.5 363 c 128,-1,32
 988 292 988 292 940 228 c 1,33,-1
 1031 107 l 1,34,-1
 879 -27 l 1,35,-1
 800 76 l 1,0,1
281 499 m 0,36,37
 273 440 273 440 284.5 381.5 c 128,-1,38
 296 323 296 323 325.5 276 c 128,-1,39
 355 229 355 229 402.5 199 c 128,-1,40
 450 169 450 169 516 167 c 0,41,42
 588 165 588 165 650.5 194 c 128,-1,43
 713 223 713 223 760.5 272.5 c 128,-1,44
 808 322 808 322 838.5 386 c 128,-1,45
 869 450 869 450 878 517 c 0,46,47
 885 575 885 575 874 633 c 128,-1,48
 863 691 863 691 833.5 737.5 c 128,-1,49
 804 784 804 784 756 814 c 128,-1,50
 708 844 708 844 643 846 c 0,51,52
 571 848 571 848 508.5 819.5 c 128,-1,53
 446 791 446 791 398 742 c 128,-1,54
 350 693 350 693 319.5 629.5 c 128,-1,55
 289 566 289 566 281 499 c 0,36,37
EndSplineSet
EndChar
StartChar: yen
Encoding: 165 165 101
Width: 1202
Flags: W
LayerCount: 2
Back
Fore
SplineSet
639 839 m 1,0,-1
 1030 1456 l 1,1,-1
 1344 1456 l 1,2,-1
 848 742 l 1,3,-1
 1084 742 l 1,4,-1
 1055 576 l 1,5,-1
 735 576 l 1,6,-1
 712 452 l 1,7,-1
 1034 452 l 1,8,-1
 1005 287 l 1,9,-1
 684 287 l 1,10,-1
 634 0 l 1,11,-1
 360 0 l 1,12,-1
 410 287 l 1,13,-1
 77 287 l 1,14,-1
 106 452 l 1,15,-1
 438 452 l 1,16,-1
 460 576 l 1,17,-1
 127 576 l 1,18,-1
 156 742 l 1,19,-1
 424 742 l 1,20,-1
 175 1456 l 1,21,-1
 464 1456 l 1,22,-1
 639 839 l 1,0,-1
EndSplineSet
EndChar
StartChar: section
Encoding: 167 167 103
Width: 1202
Flags: W
LayerCount: 2
Back
Fore
SplineSet
1112 483 m 0,0,1
 1104 382 1104 382 1048.5 313.5 c 128,-1,2
 993 245 993 245 907 198 c 1,3,4
 959 140 959 140 977.5 70.5 c 128,-1,5
 996 1 996 1 990 -76 c 0,6,7
 985 -146 985 -146 959.5 -202 c 128,-1,8
 934 -258 934 -258 894 -301 c 128,-1,9
 854 -344 854 -344 802 -374 c 128,-1,10
 750 -404 750 -404 691 -423 c 128,-1,11
 632 -442 632 -442 569 -450.5 c 128,-1,12
 506 -459 506 -459 444 -458 c 0,13,14
 343 -457 343 -457 254.5 -432 c 128,-1,15
 166 -407 166 -407 101 -355.5 c 128,-1,16
 36 -304 36 -304 -1 -225.5 c 128,-1,17
 -38 -147 -38 -147 -35 -37 c 1,18,-1
 240 -37 l 1,19,20
 237 -90 237 -90 253 -126.5 c 128,-1,21
 269 -163 269 -163 298.5 -186 c 128,-1,22
 328 -209 328 -209 369 -220 c 128,-1,23
 410 -231 410 -231 459 -231 c 0,24,25
 498 -232 498 -232 541 -225 c 128,-1,26
 584 -218 584 -218 621 -200.5 c 128,-1,27
 658 -183 658 -183 684.5 -153 c 128,-1,28
 711 -123 711 -123 719 -78 c 0,29,30
 724 -47 724 -47 714.5 -22.5 c 128,-1,31
 705 2 705 2 685.5 21 c 128,-1,32
 666 40 666 40 639.5 54 c 128,-1,33
 613 68 613 68 584 79 c 128,-1,34
 555 90 555 90 527.5 98 c 128,-1,35
 500 106 500 106 478 113 c 0,36,37
 401 138 401 138 325.5 170 c 128,-1,38
 250 202 250 202 192.5 250 c 128,-1,39
 135 298 135 298 102 365 c 128,-1,40
 69 432 69 432 76 527 c 0,41,42
 84 628 84 628 140 697 c 128,-1,43
 196 766 196 766 282 813 c 1,44,45
 230 872 230 872 211 941 c 128,-1,46
 192 1010 192 1010 198 1088 c 0,47,48
 203 1158 203 1158 229 1214 c 128,-1,49
 255 1270 255 1270 295.5 1313.5 c 128,-1,50
 336 1357 336 1357 388.5 1388 c 128,-1,51
 441 1419 441 1419 500.5 1439 c 128,-1,52
 560 1459 560 1459 623 1468 c 128,-1,53
 686 1477 686 1477 748 1476 c 0,54,55
 849 1474 849 1474 933.5 1447 c 128,-1,56
 1018 1420 1018 1420 1078 1366.5 c 128,-1,57
 1138 1313 1138 1313 1170 1233 c 128,-1,58
 1202 1153 1202 1153 1198 1047 c 1,59,-1
 927 1048 l 1,60,61
 931 1143 931 1143 879.5 1196 c 128,-1,62
 828 1249 828 1249 732 1251 c 0,63,64
 691 1252 691 1252 648 1244.5 c 128,-1,65
 605 1237 605 1237 568.5 1218 c 128,-1,66
 532 1199 532 1199 505 1168 c 128,-1,67
 478 1137 478 1137 471 1091 c 0,68,69
 462 1040 462 1040 484.5 1008 c 128,-1,70
 507 976 507 976 544.5 955 c 128,-1,71
 582 934 582 934 627 921 c 128,-1,72
 672 908 672 908 709 897 c 0,73,74
 787 873 787 873 862.5 841 c 128,-1,75
 938 809 938 809 996 761 c 128,-1,76
 1054 713 1054 713 1086.5 645.5 c 128,-1,77
 1119 578 1119 578 1112 483 c 0,0,1
601 663 m 0,78,79
 567 674 567 674 533.5 685 c 128,-1,80
 500 696 500 696 467 709 c 1,81,82
 419 683 419 683 390.5 645 c 128,-1,83
 362 607 362 607 353 553 c 0,84,85
 344 501 344 501 364.5 467 c 128,-1,86
 385 433 385 433 421 410.5 c 128,-1,87
 457 388 457 388 501.5 373.5 c 128,-1,88
 546 359 546 359 585 346 c 0,89,90
 619 335 619 335 653 324.5 c 128,-1,91
 687 314 687 314 720 301 c 1,92,93
 766 328 766 328 797.5 365.5 c 128,-1,94
 829 403 829 403 839 457 c 0,95,96
 848 506 848 506 825 540 c 128,-1,97
 802 574 802 574 764 597.5 c 128,-1,98
 726 621 726 621 681.5 636 c 128,-1,99
 637 651 637 651 601 663 c 0,78,79
EndSplineSet
EndChar
StartChar: dieresis
Encoding: 168 168 104
Width: 1202
Flags: W
LayerCount: 2
Back
Fore
SplineSet
376 1361 m 0,0,1
 376 1389 376 1389 386.5 1412.5 c 128,-1,2
 397 1436 397 1436 415 1453 c 128,-1,3
 433 1470 433 1470 457 1480 c 128,-1,4
 481 1490 481 1490 508 1491 c 0,5,6
 534 1491 534 1491 558 1482.5 c 128,-1,7
 582 1474 582 1474 600.5 1457.5 c 128,-1,8
 619 1441 619 1441 630 1418.5 c 128,-1,9
 641 1396 641 1396 641 1369 c 0,10,11
 641 1341 641 1341 630.5 1318 c 128,-1,12
 620 1295 620 1295 602 1277.5 c 128,-1,13
 584 1260 584 1260 560.5 1250.5 c 128,-1,14
 537 1241 537 1241 510 1240 c 0,15,16
 483 1240 483 1240 459 1248.5 c 128,-1,17
 435 1257 435 1257 416.5 1273 c 128,-1,18
 398 1289 398 1289 387 1311.5 c 128,-1,19
 376 1334 376 1334 376 1361 c 0,0,1
842 1361 m 0,20,21
 842 1389 842 1389 852 1412 c 128,-1,22
 862 1435 862 1435 880 1452.5 c 128,-1,23
 898 1470 898 1470 922 1479.5 c 128,-1,24
 946 1489 946 1489 973 1490 c 0,25,26
 999 1490 999 1490 1023 1481.5 c 128,-1,27
 1047 1473 1047 1473 1065.5 1457 c 128,-1,28
 1084 1441 1084 1441 1095.5 1418.5 c 128,-1,29
 1107 1396 1107 1396 1107 1369 c 0,30,31
 1107 1341 1107 1341 1096.5 1317.5 c 128,-1,32
 1086 1294 1086 1294 1068 1276.5 c 128,-1,33
 1050 1259 1050 1259 1026 1249 c 128,-1,34
 1002 1239 1002 1239 975 1238 c 0,35,36
 948 1238 948 1238 924 1246.5 c 128,-1,37
 900 1255 900 1255 882 1271.5 c 128,-1,38
 864 1288 864 1288 853 1311 c 128,-1,39
 842 1334 842 1334 842 1361 c 0,20,21
EndSplineSet
EndChar
StartChar: copyright
Encoding: 169 169 105
Width: 1202
Flags: W
LayerCount: 2
Back
Fore
SplineSet
810 442 m 1,0,1
 804 386 804 386 783.5 342 c 128,-1,2
 763 298 763 298 730 267.5 c 128,-1,3
 697 237 697 237 651.5 221 c 128,-1,4
 606 205 606 205 548 207 c 0,5,6
 487 208 487 208 443.5 233 c 128,-1,7
 400 258 400 258 372.5 297.5 c 128,-1,8
 345 337 345 337 333.5 388.5 c 128,-1,9
 322 440 322 440 325 496 c 2,10,-1
 333 586 l 2,11,12
 339 645 339 645 360.5 698.5 c 128,-1,13
 382 752 382 752 418 792 c 128,-1,14
 454 832 454 832 504 855.5 c 128,-1,15
 554 879 554 879 618 878 c 0,16,17
 730 876 730 876 788 812.5 c 128,-1,18
 846 749 846 749 841 639 c 1,19,-1
 726 640 l 1,20,21
 727 671 727 671 722.5 696 c 128,-1,22
 718 721 718 721 705 739 c 128,-1,23
 692 757 692 757 669.5 767 c 128,-1,24
 647 777 647 777 613 777 c 0,25,26
 573 777 573 777 544 760.5 c 128,-1,27
 515 744 515 744 495.5 717 c 128,-1,28
 476 690 476 690 464.5 656 c 128,-1,29
 453 622 453 622 449 587 c 2,30,-1
 441 495 l 2,31,32
 439 464 439 464 442 431.5 c 128,-1,33
 445 399 445 399 457 372 c 128,-1,34
 469 345 469 345 492 327 c 128,-1,35
 515 309 515 309 553 308 c 0,36,37
 587 307 587 307 611.5 316 c 128,-1,38
 636 325 636 325 653 343 c 128,-1,39
 670 361 670 361 681 386 c 128,-1,40
 692 411 692 411 699 441 c 1,41,-1
 810 442 l 1,0,1
168 534 m 0,42,43
 158 449 158 449 177 367 c 128,-1,44
 196 285 196 285 241.5 220 c 128,-1,45
 287 155 287 155 357 114.5 c 128,-1,46
 427 74 427 74 520 72 c 0,47,48
 619 69 619 69 705 108.5 c 128,-1,49
 791 148 791 148 857.5 215 c 128,-1,50
 924 282 924 282 966 369.5 c 128,-1,51
 1008 457 1008 457 1019 550 c 0,52,53
 1029 635 1029 635 1009.5 716 c 128,-1,54
 990 797 990 797 945 861.5 c 128,-1,55
 900 926 900 926 830 966 c 128,-1,56
 760 1006 760 1006 669 1008 c 0,57,58
 570 1011 570 1011 483.5 972 c 128,-1,59
 397 933 397 933 330.5 867 c 128,-1,60
 264 801 264 801 221 714.5 c 128,-1,61
 178 628 178 628 168 534 c 0,42,43
77 534 m 0,62,63
 85 609 85 609 110 681 c 128,-1,64
 135 753 135 753 175 816.5 c 128,-1,65
 215 880 215 880 268 933.5 c 128,-1,66
 321 987 321 987 384.5 1025 c 128,-1,67
 448 1063 448 1063 520.5 1083.5 c 128,-1,68
 593 1104 593 1104 672 1102 c 0,69,70
 746 1100 746 1100 809 1078 c 128,-1,71
 872 1056 872 1056 923 1017.5 c 128,-1,72
 974 979 974 979 1012.5 927 c 128,-1,73
 1051 875 1051 875 1075 814.5 c 128,-1,74
 1099 754 1099 754 1108.5 686.5 c 128,-1,75
 1118 619 1118 619 1111 550 c 0,76,77
 1103 475 1103 475 1078 403 c 128,-1,78
 1053 331 1053 331 1013.5 267 c 128,-1,79
 974 203 974 203 920.5 149.5 c 128,-1,80
 867 96 867 96 803.5 58 c 128,-1,81
 740 20 740 20 667.5 -1 c 128,-1,82
 595 -22 595 -22 517 -20 c 0,83,84
 406 -17 406 -17 319.5 30.5 c 128,-1,85
 233 78 233 78 175.5 155.5 c 128,-1,86
 118 233 118 233 92 331.5 c 128,-1,87
 66 430 66 430 77 534 c 0,62,63
EndSplineSet
EndChar
StartChar: ordfeminine
Encoding: 170 170 106
Width: 1202
Flags: W
LayerCount: 2
Back
Fore
SplineSet
767 704 m 1,0,1
 761 751 761 751 764 798 c 1,2,3
 719 747 719 747 663 718.5 c 128,-1,4
 607 690 607 690 538 691 c 0,5,6
 488 691 488 691 446.5 706.5 c 128,-1,7
 405 722 405 722 376 750.5 c 128,-1,8
 347 779 347 779 332 820 c 128,-1,9
 317 861 317 861 319 912 c 0,10,11
 322 982 322 982 355.5 1028.5 c 128,-1,12
 389 1075 389 1075 440 1102 c 128,-1,13
 491 1129 491 1129 552.5 1140 c 128,-1,14
 614 1151 614 1151 673 1151 c 2,15,-1
 809 1150 l 1,16,-1
 817 1203 l 2,17,18
 820 1228 820 1228 817 1250.5 c 128,-1,19
 814 1273 814 1273 804.5 1290 c 128,-1,20
 795 1307 795 1307 776.5 1317 c 128,-1,21
 758 1327 758 1327 730 1328 c 0,22,23
 676 1330 676 1330 638.5 1306 c 128,-1,24
 601 1282 601 1282 587 1230 c 1,25,-1
 416 1243 l 1,26,27
 424 1304 424 1304 455 1348.5 c 128,-1,28
 486 1393 486 1393 531 1422 c 128,-1,29
 576 1451 576 1451 631 1464 c 128,-1,30
 686 1477 686 1477 743 1476 c 0,31,32
 805 1475 805 1475 853.5 1454.5 c 128,-1,33
 902 1434 902 1434 934 1398 c 128,-1,34
 966 1362 966 1362 981 1311.5 c 128,-1,35
 996 1261 996 1261 990 1200 c 2,36,-1
 940 886 l 2,37,38
 932 840 932 840 930.5 795.5 c 128,-1,39
 929 751 929 751 936 704 c 1,40,-1
 767 704 l 1,0,1
591 833 m 0,41,42
 617 833 617 833 643 840 c 128,-1,43
 669 847 669 847 693 860 c 128,-1,44
 717 873 717 873 738 890.5 c 128,-1,45
 759 908 759 908 775 929 c 1,46,-1
 793 1033 l 1,47,-1
 670 1033 l 2,48,49
 643 1032 643 1032 613.5 1025.5 c 128,-1,50
 584 1019 584 1019 559 1005 c 128,-1,51
 534 991 534 991 516.5 969 c 128,-1,52
 499 947 499 947 496 916 c 0,53,54
 493 893 493 893 500 877 c 128,-1,55
 507 861 507 861 520.5 851.5 c 128,-1,56
 534 842 534 842 552.5 837.5 c 128,-1,57
 571 833 571 833 591 833 c 0,41,42
EndSplineSet
EndChar
StartChar: logicalnot
Encoding: 172 172 108
Width: 1202
Flags: W
LayerCount: 2
Back
Fore
SplineSet
951 374 m 1,0,-1
 755 374 l 1,1,-1
 801 634 l 1,2,-1
 184 634 l 1,3,-1
 215 805 l 1,4,-1
 1026 805 l 1,5,-1
 951 374 l 1,0,-1
EndSplineSet
EndChar
StartChar: registered
Encoding: 174 174 109
Width: 1202
Flags: W
LayerCount: 2
Back
Fore
SplineSet
76 534 m 0,0,1
 83 609 83 609 108 680.5 c 128,-1,2
 133 752 133 752 173 816 c 128,-1,3
 213 880 213 880 266 933 c 128,-1,4
 319 986 319 986 382.5 1024.5 c 128,-1,5
 446 1063 446 1063 518.5 1083.5 c 128,-1,6
 591 1104 591 1104 670 1102 c 0,7,8
 781 1099 781 1099 867.5 1051.5 c 128,-1,9
 954 1004 954 1004 1011 926.5 c 128,-1,10
 1068 849 1068 849 1093.5 750.5 c 128,-1,11
 1119 652 1119 652 1109 548 c 0,12,13
 1101 473 1101 473 1076 401 c 128,-1,14
 1051 329 1051 329 1011.5 265.5 c 128,-1,15
 972 202 972 202 919 148.5 c 128,-1,16
 866 95 866 95 802.5 57 c 128,-1,17
 739 19 739 19 666.5 -2 c 128,-1,18
 594 -23 594 -23 515 -21 c 0,19,20
 441 -19 441 -19 377.5 3.5 c 128,-1,21
 314 26 314 26 263 64.5 c 128,-1,22
 212 103 212 103 173.5 155 c 128,-1,23
 135 207 135 207 111 268 c 128,-1,24
 87 329 87 329 78 396.5 c 128,-1,25
 69 464 69 464 76 534 c 0,0,1
167 533 m 0,26,27
 157 448 157 448 176.5 366.5 c 128,-1,28
 196 285 196 285 241 220.5 c 128,-1,29
 286 156 286 156 356 115.5 c 128,-1,30
 426 75 426 75 518 73 c 0,31,32
 617 70 617 70 703.5 109 c 128,-1,33
 790 148 790 148 856.5 215 c 128,-1,34
 923 282 923 282 965 369 c 128,-1,35
 1007 456 1007 456 1018 549 c 0,36,37
 1028 634 1028 634 1008.5 715.5 c 128,-1,38
 989 797 989 797 944 861.5 c 128,-1,39
 899 926 899 926 829 966 c 128,-1,40
 759 1006 759 1006 667 1008 c 0,41,42
 568 1011 568 1011 481.5 972 c 128,-1,43
 395 933 395 933 328.5 867 c 128,-1,44
 262 801 262 801 219.5 714 c 128,-1,45
 177 627 177 627 167 533 c 0,26,27
480 484 m 1,46,-1
 440 232 l 1,47,-1
 328 232 l 1,48,-1
 428 869 l 1,49,-1
 626 868 l 2,50,51
 669 867 669 867 709 856.5 c 128,-1,52
 749 846 749 846 779 823.5 c 128,-1,53
 809 801 809 801 826 766 c 128,-1,54
 843 731 843 731 840 682 c 0,55,56
 838 648 838 648 824 622 c 128,-1,57
 810 596 810 596 788.5 576.5 c 128,-1,58
 767 557 767 557 740 542.5 c 128,-1,59
 713 528 713 528 684 516 c 1,60,-1
 779 232 l 1,61,-1
 670 232 l 1,62,-1
 596 484 l 1,63,-1
 480 484 l 1,46,-1
495 585 m 1,64,-1
 601 585 l 2,65,66
 622 586 622 586 643.5 591.5 c 128,-1,67
 665 597 665 597 683 608.5 c 128,-1,68
 701 620 701 620 713.5 636.5 c 128,-1,69
 726 653 726 653 730 677 c 0,70,71
 735 705 735 705 728 722.5 c 128,-1,72
 721 740 721 740 706 750 c 128,-1,73
 691 760 691 760 670 763.5 c 128,-1,74
 649 767 649 767 625 768 c 2,75,-1
 525 769 l 1,76,-1
 495 585 l 1,64,-1
EndSplineSet
EndChar
StartChar: degree
Encoding: 176 176 111
Width: 1202
Flags: W
LayerCount: 2
Back
Fore
SplineSet
451 1193 m 0,0,1
 454 1250 454 1250 478.5 1301.5 c 128,-1,2
 503 1353 503 1353 542.5 1392.5 c 128,-1,3
 582 1432 582 1432 633.5 1455 c 128,-1,4
 685 1478 685 1478 743 1477 c 0,5,6
 796 1476 796 1476 839.5 1453 c 128,-1,7
 883 1430 883 1430 913 1393 c 128,-1,8
 943 1356 943 1356 958.5 1308.5 c 128,-1,9
 974 1261 974 1261 971 1211 c 0,10,11
 968 1155 968 1155 944.5 1103.5 c 128,-1,12
 921 1052 921 1052 882.5 1013 c 128,-1,13
 844 974 844 974 793.5 951.5 c 128,-1,14
 743 929 743 929 685 930 c 0,15,16
 632 931 632 931 587.5 953 c 128,-1,17
 543 975 543 975 511.5 1011 c 128,-1,18
 480 1047 480 1047 464 1094 c 128,-1,19
 448 1141 448 1141 451 1193 c 0,0,1
593 1196 m 0,20,21
 591 1172 591 1172 598 1150.5 c 128,-1,22
 605 1129 605 1129 619 1113 c 128,-1,23
 633 1097 633 1097 653 1087.5 c 128,-1,24
 673 1078 673 1078 697 1078 c 0,25,26
 724 1078 724 1078 747 1089 c 128,-1,27
 770 1100 770 1100 787.5 1118 c 128,-1,28
 805 1136 805 1136 816 1159 c 128,-1,29
 827 1182 827 1182 830 1208 c 0,30,31
 833 1231 833 1231 827 1253 c 128,-1,32
 821 1275 821 1275 808.5 1292.5 c 128,-1,33
 796 1310 796 1310 776.5 1320.5 c 128,-1,34
 757 1331 757 1331 732 1331 c 0,35,36
 705 1331 705 1331 681 1319.5 c 128,-1,37
 657 1308 657 1308 638 1289 c 128,-1,38
 619 1270 619 1270 607.5 1246 c 128,-1,39
 596 1222 596 1222 593 1196 c 0,20,21
EndSplineSet
EndChar
StartChar: plusminus
Encoding: 177 177 112
Width: 1202
Flags: W
LayerCount: 2
Back
Fore
SplineSet
763 933 m 1,0,-1
 1084 933 l 1,1,-1
 1048 701 l 1,2,-1
 727 701 l 1,3,-1
 669 331 l 1,4,-1
 430 331 l 1,5,-1
 488 701 l 1,6,-1
 157 701 l 1,7,-1
 194 933 l 1,8,-1
 524 933 l 1,9,-1
 579 1284 l 1,10,-1
 818 1284 l 1,11,-1
 763 933 l 1,0,-1
908 0 m 1,12,-1
 72 0 l 1,13,-1
 112 227 l 1,14,-1
 948 227 l 1,15,-1
 908 0 l 1,12,-1
EndSplineSet
EndChar
StartChar: twosuperior
Encoding: 178 178 113
Width: 1202
Flags: W
LayerCount: 2
Back
Fore
SplineSet
918 667 m 1,0,-1
 317 667 l 1,1,-1
 342 811 l 1,2,-1
 652 1062 l 2,3,4
 670 1077 670 1077 691.5 1096 c 128,-1,5
 713 1115 713 1115 732.5 1136 c 128,-1,6
 752 1157 752 1157 766 1180.5 c 128,-1,7
 780 1204 780 1204 785 1229 c 0,8,9
 792 1267 792 1267 773 1288.5 c 128,-1,10
 754 1310 754 1310 717 1310 c 0,11,12
 690 1310 690 1310 669.5 1301 c 128,-1,13
 649 1292 649 1292 633.5 1276 c 128,-1,14
 618 1260 618 1260 608 1239.5 c 128,-1,15
 598 1219 598 1219 593 1195 c 1,16,-1
 395 1194 l 1,17,18
 400 1258 400 1258 426.5 1309 c 128,-1,19
 453 1360 453 1360 495.5 1396 c 128,-1,20
 538 1432 538 1432 593.5 1451 c 128,-1,21
 649 1470 649 1470 712 1469 c 0,22,23
 768 1468 768 1468 819 1453.5 c 128,-1,24
 870 1439 870 1439 909 1409.5 c 128,-1,25
 948 1380 948 1380 970 1335 c 128,-1,26
 992 1290 992 1290 989 1228 c 0,27,28
 987 1174 987 1174 963 1129.5 c 128,-1,29
 939 1085 939 1085 903 1047.5 c 128,-1,30
 867 1010 867 1010 824.5 978.5 c 128,-1,31
 782 947 782 947 742 919 c 2,32,-1
 610 828 l 1,33,-1
 946 826 l 1,34,-1
 918 667 l 1,0,-1
EndSplineSet
EndChar
StartChar: threesuperior
Encoding: 179 179 114
Width: 1202
Flags: W
LayerCount: 2
Back
Fore
SplineSet
585 1135 m 1,0,-1
 667 1135 l 2,1,2
 690 1136 690 1136 712.5 1142 c 128,-1,3
 735 1148 735 1148 754 1159.5 c 128,-1,4
 773 1171 773 1171 786 1188.5 c 128,-1,5
 799 1206 799 1206 803 1232 c 0,6,7
 806 1251 806 1251 800.5 1265 c 128,-1,8
 795 1279 795 1279 783 1288 c 128,-1,9
 771 1297 771 1297 755 1301.5 c 128,-1,10
 739 1306 739 1306 722 1306 c 0,11,12
 685 1306 685 1306 656 1291 c 128,-1,13
 627 1276 627 1276 612 1242 c 1,14,-1
 410 1241 l 1,15,16
 415 1301 415 1301 442.5 1344 c 128,-1,17
 470 1387 470 1387 512 1414.5 c 128,-1,18
 554 1442 554 1442 606.5 1455 c 128,-1,19
 659 1468 659 1468 715 1468 c 0,20,21
 765 1467 765 1467 817 1455 c 128,-1,22
 869 1443 869 1443 910.5 1417 c 128,-1,23
 952 1391 952 1391 977.5 1349.5 c 128,-1,24
 1003 1308 1003 1308 1000 1248 c 0,25,26
 998 1212 998 1212 984.5 1183.5 c 128,-1,27
 971 1155 971 1155 949.5 1133.5 c 128,-1,28
 928 1112 928 1112 900 1095 c 128,-1,29
 872 1078 872 1078 841 1064 c 1,30,31
 900 1044 900 1044 929 1000 c 128,-1,32
 958 956 958 956 956 894 c 0,33,34
 954 828 954 828 922.5 782 c 128,-1,35
 891 736 891 736 842 707.5 c 128,-1,36
 793 679 793 679 733.5 666.5 c 128,-1,37
 674 654 674 654 618 655 c 0,38,39
 560 656 560 656 509 671.5 c 128,-1,40
 458 687 458 687 419.5 717.5 c 128,-1,41
 381 748 381 748 358 794 c 128,-1,42
 335 840 335 840 335 902 c 1,43,-1
 527 901 l 1,44,45
 530 856 530 856 558.5 836.5 c 128,-1,46
 587 817 587 817 632 817 c 0,47,48
 654 817 654 817 676.5 823 c 128,-1,49
 699 829 699 829 717.5 840.5 c 128,-1,50
 736 852 736 852 748.5 870 c 128,-1,51
 761 888 761 888 765 912 c 0,52,53
 769 938 769 938 762.5 954.5 c 128,-1,54
 756 971 756 971 741.5 980.5 c 128,-1,55
 727 990 727 990 707 994 c 128,-1,56
 687 998 687 998 666 999 c 2,57,-1
 574 999 l 1,58,-1
 585 1135 l 1,0,-1
EndSplineSet
EndChar
StartChar: mu
Encoding: 181 181 116
Width: 1202
Flags: W
LayerCount: 2
Back
Fore
SplineSet
521 1082 m 1,0,-1
 419 460 l 2,1,2
 414 418 414 418 413 373.5 c 128,-1,3
 412 329 412 329 423 292.5 c 128,-1,4
 434 256 434 256 462 231.5 c 128,-1,5
 490 207 490 207 544 206 c 0,6,7
 614 204 614 204 669 231 c 128,-1,8
 724 258 724 258 767 312 c 1,9,-1
 902 1082 l 1,10,-1
 1174 1082 l 1,11,-1
 986 0 l 1,12,-1
 744 0 l 1,13,-1
 753 72 l 1,14,15
 702 27 702 27 645 3 c 128,-1,16
 588 -21 588 -21 519 -21 c 0,17,18
 424 -21 424 -21 346 29 c 1,19,-1
 261 -416 l 1,20,-1
 -10 -416 l 1,21,-1
 250 1082 l 1,22,-1
 521 1082 l 1,0,-1
EndSplineSet
EndChar
StartChar: paragraph
Encoding: 182 182 117
Width: 1202
Flags: W
LayerCount: 2
Back
Fore
SplineSet
663 0 m 1,0,-1
 753 520 l 1,1,-1
 688 521 l 2,2,3
 587 524 587 524 506.5 558 c 128,-1,4
 426 592 426 592 372 652.5 c 128,-1,5
 318 713 318 713 293 797 c 128,-1,6
 268 881 268 881 277 982 c 0,7,8
 287 1092 287 1092 332.5 1180 c 128,-1,9
 378 1268 378 1268 450.5 1329.5 c 128,-1,10
 523 1391 523 1391 618 1424 c 128,-1,11
 713 1457 713 1457 821 1457 c 2,12,-1
 1126 1456 l 1,13,-1
 874 0 l 1,14,-1
 663 0 l 1,0,-1
EndSplineSet
EndChar
StartChar: periodcentered
Encoding: 183 183 118
Width: 1202
Flags: W
LayerCount: 2
Back
Fore
SplineSet
497 696 m 256,0,1
 497 729 497 729 508.5 757.5 c 128,-1,2
 520 786 520 786 540.5 807 c 128,-1,3
 561 828 561 828 589.5 840 c 128,-1,4
 618 852 618 852 651 852 c 0,5,6
 683 853 683 853 710.5 842.5 c 128,-1,7
 738 832 738 832 759 812.5 c 128,-1,8
 780 793 780 793 792 766 c 128,-1,9
 804 739 804 739 804 706 c 256,10,11
 804 673 804 673 792.5 644.5 c 128,-1,12
 781 616 781 616 760 595.5 c 128,-1,13
 739 575 739 575 711 563 c 128,-1,14
 683 551 683 551 650 551 c 0,15,16
 618 550 618 550 590 560.5 c 128,-1,17
 562 571 562 571 541.5 590 c 128,-1,18
 521 609 521 609 509 636 c 128,-1,19
 497 663 497 663 497 696 c 256,0,1
EndSplineSet
EndChar
StartChar: cedilla
Encoding: 184 184 119
Width: 1202
Flags: W
LayerCount: 2
Back
Fore
SplineSet
547 5 m 1,0,-1
 526 -54 l 1,1,2
 588 -68 588 -68 618.5 -111 c 128,-1,3
 649 -154 649 -154 648 -217 c 0,4,5
 647 -265 647 -265 631 -302 c 128,-1,6
 615 -339 615 -339 587.5 -365.5 c 128,-1,7
 560 -392 560 -392 524 -410 c 128,-1,8
 488 -428 488 -428 447.5 -439 c 128,-1,9
 407 -450 407 -450 365 -455.5 c 128,-1,10
 323 -461 323 -461 284 -462 c 1,11,-1
 290 -298 l 1,12,13
 312 -297 312 -297 334 -292 c 128,-1,14
 356 -287 356 -287 374.5 -277 c 128,-1,15
 393 -267 393 -267 406 -250.5 c 128,-1,16
 419 -234 419 -234 424 -208 c 0,17,18
 428 -182 428 -182 416 -168 c 128,-1,19
 404 -154 404 -154 384 -147.5 c 128,-1,20
 364 -141 364 -141 340.5 -139.5 c 128,-1,21
 317 -138 317 -138 300 -136 c 1,22,-1
 344 4 l 1,23,-1
 547 5 l 1,0,-1
EndSplineSet
EndChar
StartChar: onesuperior
Encoding: 185 185 120
Width: 1202
Flags: W
LayerCount: 2
Back
Fore
SplineSet
772 659 m 1,0,-1
 577 659 l 1,1,-1
 672 1208 l 1,2,-1
 479 1166 l 1,3,-1
 508 1329 l 1,4,-1
 877 1445 l 1,5,-1
 901 1445 l 1,6,-1
 772 659 l 1,0,-1
EndSplineSet
EndChar
StartChar: ordmasculine
Encoding: 186 186 121
Width: 1202
Flags: W
LayerCount: 2
Back
Fore
SplineSet
347 1140 m 2,0,1
 356 1215 356 1215 388.5 1277.5 c 128,-1,2
 421 1340 421 1340 471 1385 c 128,-1,3
 521 1430 521 1430 587 1454 c 128,-1,4
 653 1478 653 1478 730 1476 c 0,5,6
 803 1474 803 1474 860 1448 c 128,-1,7
 917 1422 917 1422 955.5 1377.5 c 128,-1,8
 994 1333 994 1333 1011.5 1272.5 c 128,-1,9
 1029 1212 1029 1212 1022 1141 c 2,10,-1
 1009 1024 l 2,11,12
 1000 949 1000 949 967.5 886.5 c 128,-1,13
 935 824 935 824 885 779.5 c 128,-1,14
 835 735 835 735 769 711.5 c 128,-1,15
 703 688 703 688 627 690 c 0,16,17
 555 692 555 692 497.5 717.5 c 128,-1,18
 440 743 440 743 401.5 787.5 c 128,-1,19
 363 832 363 832 345.5 892.5 c 128,-1,20
 328 953 328 953 334 1024 c 2,21,-1
 347 1140 l 2,0,1
509 1021 m 2,22,23
 506 985 506 985 512 951.5 c 128,-1,24
 518 918 518 918 534 892.5 c 128,-1,25
 550 867 550 867 577 851 c 128,-1,26
 604 835 604 835 645 834 c 0,27,28
 687 833 687 833 720.5 848 c 128,-1,29
 754 863 754 863 778 889 c 128,-1,30
 802 915 802 915 816.5 949.5 c 128,-1,31
 831 984 831 984 836 1023 c 2,32,-1
 849 1142 l 2,33,34
 852 1178 852 1178 846.5 1211.5 c 128,-1,35
 841 1245 841 1245 824.5 1271 c 128,-1,36
 808 1297 808 1297 780 1312.5 c 128,-1,37
 752 1328 752 1328 712 1329 c 0,38,39
 670 1330 670 1330 636.5 1315.5 c 128,-1,40
 603 1301 603 1301 579 1275 c 128,-1,41
 555 1249 555 1249 540.5 1214.5 c 128,-1,42
 526 1180 526 1180 521 1141 c 2,43,-1
 509 1021 l 2,22,23
EndSplineSet
EndChar
StartChar: questiondown
Encoding: 191 191 126
Width: 1202
Flags: W
LayerCount: 2
Back
Fore
SplineSet
765 640 m 1,0,1
 760 580 760 580 751.5 533.5 c 128,-1,2
 743 487 743 487 725.5 447.5 c 128,-1,3
 708 408 708 408 678.5 372.5 c 128,-1,4
 649 337 649 337 601 299 c 0,5,6
 566 271 566 271 528 236.5 c 128,-1,7
 490 202 490 202 457 162.5 c 128,-1,8
 424 123 424 123 400.5 79.5 c 128,-1,9
 377 36 377 36 370 -11 c 0,10,11
 361 -78 361 -78 390 -122 c 128,-1,12
 419 -166 419 -166 490 -168 c 0,13,14
 572 -170 572 -170 620 -122 c 128,-1,15
 668 -74 668 -74 684 2 c 1,16,-1
 955 3 l 1,17,18
 946 -95 946 -95 905.5 -169.5 c 128,-1,19
 865 -244 865 -244 801 -294.5 c 128,-1,20
 737 -345 737 -345 653.5 -370 c 128,-1,21
 570 -395 570 -395 475 -393 c 0,22,23
 387 -391 387 -391 313.5 -365.5 c 128,-1,24
 240 -340 240 -340 188 -292 c 128,-1,25
 136 -244 136 -244 110 -173.5 c 128,-1,26
 84 -103 84 -103 92 -10 c 0,27,28
 98 64 98 64 128.5 125 c 128,-1,29
 159 186 159 186 204 238.5 c 128,-1,30
 249 291 249 291 303.5 336.5 c 128,-1,31
 358 382 358 382 411 425 c 0,32,33
 440 449 440 449 460 471.5 c 128,-1,34
 480 494 480 494 493 519.5 c 128,-1,35
 506 545 506 545 513.5 574 c 128,-1,36
 521 603 521 603 527 639 c 1,37,-1
 765 640 l 1,0,1
581 938 m 0,38,39
 581 999 581 999 613.5 1037 c 128,-1,40
 646 1075 646 1075 709 1077 c 0,41,42
 771 1079 771 1079 806 1043 c 128,-1,43
 841 1007 841 1007 841 946 c 0,44,45
 842 886 842 886 806.5 852 c 128,-1,46
 771 818 771 818 711 816 c 0,47,48
 652 814 652 814 617 846 c 128,-1,49
 582 878 582 878 581 938 c 0,38,39
EndSplineSet
EndChar
StartChar: AE
Encoding: 198 198 127
Width: 1202
Flags: W
LayerCount: 2
Back
Fore
SplineSet
1039 0 m 1,0,-1
 517 0 l 1,1,-1
 575 334 l 1,2,-1
 371 334 l 1,3,-1
 221 0 l 1,4,-1
 -63 0 l 1,5,-1
 655 1456 l 1,6,-1
 1271 1456 l 1,7,-1
 1231 1228 l 1,8,-1
 991 1228 l 1,9,-1
 927 862 l 1,10,-1
 1138 862 l 1,11,-1
 1098 635 l 1,12,-1
 888 635 l 1,13,-1
 817 226 l 1,14,-1
 1078 226 l 1,15,-1
 1039 0 l 1,0,-1
616 574 m 1,16,-1
 706 1086 l 1,17,-1
 476 574 l 1,18,-1
 616 574 l 1,16,-1
EndSplineSet
EndChar
StartChar: Eth
Encoding: 208 208 486
Width: 1232
Flags: W
LayerCount: 2
Back
Fore
SplineSet
47 0 m 1,0,-1
 158 643 l 1,1,-1
 -19 643 l 1,2,-1
 13 823 l 1,3,-1
 189 823 l 1,4,-1
 299 1456 l 1,5,-1
 651 1455 l 2,6,7
 792 1452 792 1452 896 1396.5 c 128,-1,8
 1000 1341 1000 1341 1066 1249.5 c 128,-1,9
 1132 1158 1132 1158 1157.5 1038.5 c 128,-1,10
 1183 919 1183 919 1167 787 c 2,11,-1
 1150 667 l 2,12,13
 1130 530 1130 530 1071 408 c 128,-1,14
 1012 286 1012 286 920.5 195.5 c 128,-1,15
 829 105 829 105 707.5 52 c 128,-1,16
 586 -1 586 -1 441 0 c 2,17,-1
 47 0 l 1,0,-1
654 643 m 1,18,-1
 434 643 l 1,19,-1
 362 226 l 1,20,-1
 453 224 l 2,21,22
 548 224 548 224 620 261.5 c 128,-1,23
 692 299 692 299 743 360.5 c 128,-1,24
 794 422 794 422 825.5 502 c 128,-1,25
 857 582 857 582 870 667 c 2,26,-1
 887 790 l 2,27,28
 893 838 893 838 893.5 888.5 c 128,-1,29
 894 939 894 939 886.5 987 c 128,-1,30
 879 1035 879 1035 861.5 1077.5 c 128,-1,31
 844 1120 844 1120 814.5 1152.5 c 128,-1,32
 785 1185 785 1185 742 1204.5 c 128,-1,33
 699 1224 699 1224 640 1227 c 2,34,-1
 536 1228 l 1,35,-1
 465 823 l 1,36,-1
 686 823 l 1,37,-1
 654 643 l 1,18,-1
EndSplineSet
Substitution2: "'smcp' Lowercase to Small Capitals lookup 0 subtable" Eth.smcp
EndChar
StartChar: multiply
Encoding: 215 215 128
Width: 1202
Flags: W
LayerCount: 2
Back
Fore
SplineSet
114 382 m 1,0,-1
 469 696 l 1,1,-1
 223 1012 l 1,2,-1
 401 1165 l 1,3,-1
 644 853 l 1,4,-1
 996 1165 l 1,5,-1
 1137 991 l 1,6,-1
 782 676 l 1,7,-1
 1028 360 l 1,8,-1
 850 207 l 1,9,-1
 607 519 l 1,10,-1
 255 207 l 1,11,-1
 114 382 l 1,0,-1
EndSplineSet
EndChar
StartChar: Oslash
Encoding: 216 216 129
Width: 1202
Flags: W
LayerCount: 2
Back
Fore
SplineSet
1124 622 m 2,0,1
 1111 541 1111 541 1086 461 c 128,-1,2
 1061 381 1061 381 1022.5 309 c 128,-1,3
 984 237 984 237 932.5 175.5 c 128,-1,4
 881 114 881 114 816 70 c 128,-1,5
 751 26 751 26 673 2 c 128,-1,6
 595 -22 595 -22 503 -20 c 0,7,8
 417 -18 417 -18 351.5 7.5 c 128,-1,9
 286 33 286 33 236 78 c 1,10,-1
 111 -95 l 1,11,-1
 -82 -95 l 1,12,-1
 139 212 l 1,13,14
 97 302 97 302 85.5 408.5 c 128,-1,15
 74 515 74 515 88 621 c 2,16,-1
 121 833 l 2,17,18
 133 913 133 913 157.5 992.5 c 128,-1,19
 182 1072 182 1072 218.5 1144 c 128,-1,20
 255 1216 255 1216 305 1278 c 128,-1,21
 355 1340 355 1340 418 1384.5 c 128,-1,22
 481 1429 481 1429 558 1453.5 c 128,-1,23
 635 1478 635 1478 726 1476 c 0,24,25
 807 1474 807 1474 871.5 1450.5 c 128,-1,26
 936 1427 936 1427 987 1386 c 1,27,-1
 1082 1518 l 1,28,-1
 1276 1518 l 1,29,-1
 1090 1261 l 1,30,31
 1115 1216 1115 1216 1131.5 1164.5 c 128,-1,32
 1148 1113 1148 1113 1156 1058 c 128,-1,33
 1164 1003 1164 1003 1164 946 c 128,-1,34
 1164 889 1164 889 1157 833 c 2,35,-1
 1124 622 l 2,0,1
879 836 m 2,36,37
 883 868 883 868 886 905 c 128,-1,38
 889 942 889 942 888 981 c 1,39,-1
 389 290 l 1,40,41
 409 255 409 255 441.5 233.5 c 128,-1,42
 474 212 474 212 525 210 c 0,43,44
 579 208 579 208 622 225.5 c 128,-1,45
 665 243 665 243 698.5 274 c 128,-1,46
 732 305 732 305 757 347 c 128,-1,47
 782 389 782 389 799.5 435.5 c 128,-1,48
 817 482 817 482 828 530 c 128,-1,49
 839 578 839 578 846 621 c 2,50,-1
 879 836 l 2,36,37
366 620 m 2,51,52
 363 596 363 596 360 568.5 c 128,-1,53
 357 541 357 541 355 511 c 1,54,-1
 836 1178 l 1,55,56
 815 1207 815 1207 783 1224.5 c 128,-1,57
 751 1242 751 1242 704 1244 c 0,58,59
 649 1246 649 1246 607 1228.5 c 128,-1,60
 565 1211 565 1211 533.5 1179.5 c 128,-1,61
 502 1148 502 1148 479 1106.5 c 128,-1,62
 456 1065 456 1065 440.5 1019 c 128,-1,63
 425 973 425 973 415 925.5 c 128,-1,64
 405 878 405 878 399 835 c 2,65,-1
 366 620 l 2,51,52
EndSplineSet
EndChar
StartChar: Thorn
Encoding: 222 222 130
Width: 1202
Flags: W
LayerCount: 2
Back
Fore
SplineSet
552 1456 m 1,0,-1
 505 1185 l 1,1,-1
 710 1184 l 2,2,3
 809 1182 809 1182 895 1153 c 128,-1,4
 981 1124 981 1124 1043.5 1068.5 c 128,-1,5
 1106 1013 1106 1013 1139 932 c 128,-1,6
 1172 851 1172 851 1163 745 c 0,7,8
 1153 629 1153 629 1101.5 543.5 c 128,-1,9
 1050 458 1050 458 971 401 c 128,-1,10
 892 344 892 344 791.5 316 c 128,-1,11
 691 288 691 288 584 288 c 2,12,-1
 350 289 l 1,13,-1
 299 0 l 1,14,-1
 27 0 l 1,15,-1
 280 1456 l 1,16,-1
 552 1456 l 1,0,-1
466 961 m 1,17,-1
 388 513 l 1,18,-1
 595 511 l 2,19,20
 650 512 650 512 700 526.5 c 128,-1,21
 750 541 750 541 790 570.5 c 128,-1,22
 830 600 830 600 856.5 643 c 128,-1,23
 883 686 883 686 891 744 c 0,24,25
 898 793 898 793 887 832.5 c 128,-1,26
 876 872 876 872 850.5 899.5 c 128,-1,27
 825 927 825 927 786.5 942.5 c 128,-1,28
 748 958 748 958 699 960 c 2,29,-1
 466 961 l 1,17,-1
EndSplineSet
EndChar
StartChar: germandbls
Encoding: 223 223 131
Width: 1202
Flags: W
LayerCount: 2
Back
Fore
SplineSet
323 0 m 1,0,-1
 52 0 l 1,1,-1
 236 1076 l 2,2,3
 251 1180 251 1180 292 1270 c 128,-1,4
 333 1360 333 1360 399 1426 c 128,-1,5
 465 1492 465 1492 555 1528.5 c 128,-1,6
 645 1565 645 1565 756 1562 c 0,7,8
 834 1560 834 1560 898.5 1534 c 128,-1,9
 963 1508 963 1508 1008.5 1461 c 128,-1,10
 1054 1414 1054 1414 1076.5 1349 c 128,-1,11
 1099 1284 1099 1284 1093 1204 c 0,12,13
 1088 1147 1088 1147 1066 1100.5 c 128,-1,14
 1044 1054 1044 1054 1017 1010 c 128,-1,15
 990 966 990 966 965 921.5 c 128,-1,16
 940 877 940 877 930 823 c 0,17,18
 923 784 923 784 934 746.5 c 128,-1,19
 945 709 945 709 965 672.5 c 128,-1,20
 985 636 985 636 1010 599 c 128,-1,21
 1035 562 1035 562 1056.5 523.5 c 128,-1,22
 1078 485 1078 485 1091.5 444 c 128,-1,23
 1105 403 1105 403 1102 359 c 0,24,25
 1096 267 1096 267 1061.5 195.5 c 128,-1,26
 1027 124 1027 124 969.5 75 c 128,-1,27
 912 26 912 26 835.5 1 c 128,-1,28
 759 -24 759 -24 669 -23 c 0,29,30
 599 -22 599 -22 526 -9.5 c 128,-1,31
 453 3 453 3 391 39 c 1,32,-1
 468 258 l 1,33,34
 514 230 514 230 568.5 214.5 c 128,-1,35
 623 199 623 199 677 201 c 0,36,37
 743 203 743 203 784 246 c 128,-1,38
 825 289 825 289 835 352 c 0,39,40
 842 393 842 393 830 430.5 c 128,-1,41
 818 468 818 468 797 503.5 c 128,-1,42
 776 539 776 539 750 574.5 c 128,-1,43
 724 610 724 610 702.5 647 c 128,-1,44
 681 684 681 684 667.5 724.5 c 128,-1,45
 654 765 654 765 658 812 c 0,46,47
 662 867 662 867 685.5 913 c 128,-1,48
 709 959 709 959 736.5 1002.5 c 128,-1,49
 764 1046 764 1046 788 1091 c 128,-1,50
 812 1136 812 1136 818 1190 c 0,51,52
 821 1216 821 1216 816.5 1242.5 c 128,-1,53
 812 1269 812 1269 799.5 1290.5 c 128,-1,54
 787 1312 787 1312 766 1326 c 128,-1,55
 745 1340 745 1340 715 1342 c 0,56,57
 662 1345 662 1345 624.5 1319 c 128,-1,58
 587 1293 587 1293 562.5 1252 c 128,-1,59
 538 1211 538 1211 524 1163 c 128,-1,60
 510 1115 510 1115 504 1073 c 2,61,-1
 323 0 l 1,0,-1
EndSplineSet
Substitution2: "'smcp' Lowercase to Small Capitals lookup 0 subtable" Germandbls.smcp
EndChar
StartChar: ae
Encoding: 230 230 132
Width: 1202
Flags: W
LayerCount: 2
Back
Fore
SplineSet
751 -19 m 256,0,1
 715 -18 715 -18 680 -11.5 c 128,-1,2
 645 -5 645 -5 613.5 9.5 c 128,-1,3
 582 24 582 24 555 45.5 c 128,-1,4
 528 67 528 67 508 98 c 1,5,6
 458 45 458 45 399.5 12 c 128,-1,7
 341 -21 341 -21 267 -20 c 0,8,9
 198 -19 198 -19 145.5 4.5 c 128,-1,10
 93 28 93 28 57.5 69 c 128,-1,11
 22 110 22 110 5.5 166.5 c 128,-1,12
 -11 223 -11 223 -8 289 c 0,13,14
 -2 388 -2 388 41 457.5 c 128,-1,15
 84 527 84 527 151.5 570.5 c 128,-1,16
 219 614 219 614 303.5 632.5 c 128,-1,17
 388 651 388 651 477 648 c 2,18,-1
 485 648 l 1,19,-1
 509 769 l 2,20,21
 511 785 511 785 512 803.5 c 128,-1,22
 513 822 513 822 509 838.5 c 128,-1,23
 505 855 505 855 494 866 c 128,-1,24
 483 877 483 877 461 878 c 0,25,26
 436 879 436 879 419 871 c 128,-1,27
 402 863 402 863 390.5 848.5 c 128,-1,28
 379 834 379 834 372 815 c 128,-1,29
 365 796 365 796 361 775 c 1,30,-1
 103 785 l 1,31,32
 109 860 109 860 138.5 919.5 c 128,-1,33
 168 979 168 979 215 1020.5 c 128,-1,34
 262 1062 262 1062 325.5 1083.5 c 128,-1,35
 389 1105 389 1105 464 1104 c 0,36,37
 524 1103 524 1103 580 1086.5 c 128,-1,38
 636 1070 636 1070 680 1028 c 1,39,40
 732 1065 732 1065 788.5 1084 c 128,-1,41
 845 1103 845 1103 909 1101 c 0,42,43
 990 1099 990 1099 1044.5 1062 c 128,-1,44
 1099 1025 1099 1025 1129.5 967.5 c 128,-1,45
 1160 910 1160 910 1169.5 839 c 128,-1,46
 1179 768 1179 768 1172 699 c 2,47,-1
 1134 454 l 1,48,-1
 698 454 l 1,49,-1
 683 362 l 2,50,51
 674 287 674 287 706 247.5 c 128,-1,52
 738 208 738 208 814 206 c 0,53,54
 866 204 866 204 912.5 218.5 c 128,-1,55
 959 233 959 233 1006 252 c 1,56,-1
 1044 58 l 1,57,58
 1014 35 1014 35 978.5 19.5 c 128,-1,59
 943 4 943 4 904.5 -4.5 c 128,-1,60
 866 -13 866 -13 826.5 -16.5 c 128,-1,61
 787 -20 787 -20 751 -19 c 256,0,1
720 642 m 1,62,-1
 916 643 l 1,63,-1
 931 757 l 2,64,65
 933 777 933 777 932.5 798.5 c 128,-1,66
 932 820 932 820 925.5 837.5 c 128,-1,67
 919 855 919 855 904.5 866.5 c 128,-1,68
 890 878 890 878 864 879 c 0,69,70
 827 880 827 880 804 864 c 128,-1,71
 781 848 781 848 766.5 822 c 128,-1,72
 752 796 752 796 744.5 765 c 128,-1,73
 737 734 737 734 732 705 c 2,74,-1
 720 642 l 1,62,-1
342 185 m 0,75,76
 361 186 361 186 377.5 194 c 128,-1,77
 394 202 394 202 411 210 c 1,78,-1
 473 466 l 1,79,-1
 469 467 l 1,80,81
 430 469 430 469 395 454.5 c 128,-1,82
 360 440 360 440 332 414.5 c 128,-1,83
 304 389 304 389 286 354.5 c 128,-1,84
 268 320 268 320 264 283 c 0,85,86
 261 263 261 263 264.5 244.5 c 128,-1,87
 268 226 268 226 277.5 212.5 c 128,-1,88
 287 199 287 199 303 191.5 c 128,-1,89
 319 184 319 184 342 185 c 0,75,76
EndSplineSet
EndChar
StartChar: eth
Encoding: 240 240 133
Width: 1202
Flags: W
LayerCount: 2
Back
Fore
SplineSet
987 1262 m 1,0,1
 1055 1113 1055 1113 1076 961.5 c 128,-1,2
 1097 810 1097 810 1076 647 c 2,3,-1
 1067 579 l 2,4,5
 1056 500 1056 500 1030 424.5 c 128,-1,6
 1004 349 1004 349 964 281.5 c 128,-1,7
 924 214 924 214 871 157.5 c 128,-1,8
 818 101 818 101 753.5 60.5 c 128,-1,9
 689 20 689 20 613 -1.5 c 128,-1,10
 537 -23 537 -23 451 -21 c 0,11,12
 350 -18 350 -18 266 19 c 128,-1,13
 182 56 182 56 123.5 120.5 c 128,-1,14
 65 185 65 185 36 271.5 c 128,-1,15
 7 358 7 358 16 460 c 0,16,17
 25 571 25 571 69 665 c 128,-1,18
 113 759 113 759 185 827 c 128,-1,19
 257 895 257 895 352.5 932.5 c 128,-1,20
 448 970 448 970 561 967 c 0,21,22
 630 965 630 965 693 942.5 c 128,-1,23
 756 920 756 920 811 878 c 1,24,25
 809 947 809 947 792.5 1009.5 c 128,-1,26
 776 1072 776 1072 742 1131 c 1,27,-1
 485 998 l 1,28,-1
 423 1121 l 1,29,-1
 644 1233 l 1,30,31
 617 1256 617 1256 586.5 1271 c 128,-1,32
 556 1286 556 1286 524 1300 c 1,33,-1
 633 1514 l 1,34,35
 707 1492 707 1492 772.5 1455.5 c 128,-1,36
 838 1419 838 1419 894 1365 c 1,37,-1
 1112 1477 l 1,38,-1
 1172 1353 l 1,39,-1
 987 1262 l 1,0,1
809 664 m 1,40,41
 789 692 789 692 759.5 710 c 128,-1,42
 730 728 730 728 696.5 738.5 c 128,-1,43
 663 749 663 749 627.5 753.5 c 128,-1,44
 592 758 592 758 560 758 c 0,45,46
 500 758 500 758 452 731.5 c 128,-1,47
 404 705 404 705 369.5 662.5 c 128,-1,48
 335 620 335 620 313.5 567 c 128,-1,49
 292 514 292 514 286 460 c 0,50,51
 280 411 280 411 289 365.5 c 128,-1,52
 298 320 298 320 321.5 284 c 128,-1,53
 345 248 345 248 383 225.5 c 128,-1,54
 421 203 421 203 475 201 c 0,55,56
 547 199 547 199 602 231 c 128,-1,57
 657 263 657 263 695.5 314.5 c 128,-1,58
 734 366 734 366 757.5 429.5 c 128,-1,59
 781 493 781 493 791 554 c 2,60,-1
 806 650 l 1,61,-1
 809 664 l 1,40,41
EndSplineSet
Substitution2: "'smcp' Lowercase to Small Capitals lookup 0 subtable" Eth.smcp
EndChar
StartChar: divide
Encoding: 247 247 134
Width: 1202
Flags: W
LayerCount: 2
Back
Fore
SplineSet
1094 573 m 1,0,-1
 99 573 l 1,1,-1
 139 800 l 1,2,-1
 1134 800 l 1,3,-1
 1094 573 l 1,0,-1
536 1084 m 0,4,5
 536 1116 536 1116 547 1142.5 c 128,-1,6
 558 1169 558 1169 578 1188.5 c 128,-1,7
 598 1208 598 1208 625 1219.5 c 128,-1,8
 652 1231 652 1231 684 1231 c 0,9,10
 714 1232 714 1232 741 1222.5 c 128,-1,11
 768 1213 768 1213 788 1195 c 128,-1,12
 808 1177 808 1177 820 1151 c 128,-1,13
 832 1125 832 1125 832 1094 c 0,14,15
 832 1062 832 1062 821 1035 c 128,-1,16
 810 1008 810 1008 789.5 988.5 c 128,-1,17
 769 969 769 969 741.5 958 c 128,-1,18
 714 947 714 947 683 947 c 0,19,20
 653 947 653 947 626 956.5 c 128,-1,21
 599 966 599 966 579.5 984 c 128,-1,22
 560 1002 560 1002 548 1027.5 c 128,-1,23
 536 1053 536 1053 536 1084 c 0,4,5
393 273 m 0,24,25
 393 305 393 305 404 332 c 128,-1,26
 415 359 415 359 435 378.5 c 128,-1,27
 455 398 455 398 482 409.5 c 128,-1,28
 509 421 509 421 541 421 c 0,29,30
 572 422 572 422 599 412 c 128,-1,31
 626 402 626 402 646 384 c 128,-1,32
 666 366 666 366 678 340 c 128,-1,33
 690 314 690 314 690 283 c 0,34,35
 690 251 690 251 679 224 c 128,-1,36
 668 197 668 197 647.5 177.5 c 128,-1,37
 627 158 627 158 599.5 147 c 128,-1,38
 572 136 572 136 541 136 c 0,39,40
 511 136 511 136 484 145.5 c 128,-1,41
 457 155 457 155 437 173 c 128,-1,42
 417 191 417 191 405 216.5 c 128,-1,43
 393 242 393 242 393 273 c 0,24,25
EndSplineSet
EndChar
StartChar: oslash
Encoding: 248 248 135
Width: 1202
Flags: W
LayerCount: 2
Back
Fore
SplineSet
91 544 m 2,0,1
 105 658 105 658 150.5 760.5 c 128,-1,2
 196 863 196 863 269 940 c 128,-1,3
 342 1017 342 1017 441.5 1061 c 128,-1,4
 541 1105 541 1105 663 1102 c 0,5,6
 768 1099 768 1099 849 1061 c 1,7,-1
 949 1215 l 1,8,-1
 1115 1215 l 1,9,-1
 962 979 l 1,10,11
 1036 901 1036 901 1065.5 790 c 128,-1,12
 1095 679 1095 679 1082 554 c 1,13,-1
 1079 532 l 2,14,15
 1065 418 1065 418 1019.5 316.5 c 128,-1,16
 974 215 974 215 901 139 c 128,-1,17
 828 63 828 63 728.5 19.5 c 128,-1,18
 629 -24 629 -24 508 -21 c 0,19,20
 459 -20 459 -20 416.5 -11 c 128,-1,21
 374 -2 374 -2 337 13 c 1,22,-1
 237 -141 l 1,23,-1
 70 -141 l 1,24,-1
 219 90 l 1,25,26
 180 128 180 128 152 176 c 128,-1,27
 124 224 124 224 108 279.5 c 128,-1,28
 92 335 92 335 87 396.5 c 128,-1,29
 82 458 82 458 89 523 c 2,30,-1
 91 544 l 2,0,1
360 523 m 2,31,32
 355 475 355 475 356 422.5 c 128,-1,33
 357 370 357 370 371 323 c 1,34,-1
 718 859 l 1,35,36
 686 877 686 877 643 878 c 0,37,38
 574 880 574 880 524.5 850 c 128,-1,39
 475 820 475 820 441.5 771 c 128,-1,40
 408 722 408 722 388.5 662 c 128,-1,41
 369 602 369 602 362 544 c 2,42,-1
 360 523 l 2,31,32
809 553 m 2,43,44
 814 595 814 595 814 642 c 128,-1,45
 814 689 814 689 803 734 c 1,46,-1
 465 212 l 1,47,48
 492 201 492 201 528 200 c 0,49,50
 596 198 596 198 645.5 228.5 c 128,-1,51
 695 259 695 259 728.5 307.5 c 128,-1,52
 762 356 762 356 780.5 415.5 c 128,-1,53
 799 475 799 475 807 532 c 2,54,-1
 809 553 l 2,43,44
EndSplineSet
EndChar
StartChar: thorn
Encoding: 254 254 136
Width: 1202
Flags: W
LayerCount: 2
Back
Fore
SplineSet
1069 537 m 2,0,1
 1061 471 1061 471 1043 403.5 c 128,-1,2
 1025 336 1025 336 996.5 273 c 128,-1,3
 968 210 968 210 928.5 156 c 128,-1,4
 889 102 889 102 837.5 62 c 128,-1,5
 786 22 786 22 722.5 -0.5 c 128,-1,6
 659 -23 659 -23 582 -21 c 0,7,8
 507 -19 507 -19 443.5 9.5 c 128,-1,9
 380 38 380 38 332 97 c 1,10,-1
 235 -416 l 1,11,-1
 -36 -416 l 1,12,-1
 304 1543 l 1,13,-1
 575 1543 l 1,14,-1
 468 986 l 1,15,16
 524 1043 524 1043 590.5 1073.5 c 128,-1,17
 657 1104 657 1104 738 1102 c 0,18,19
 812 1100 812 1100 867 1076 c 128,-1,20
 922 1052 922 1052 961.5 1012 c 128,-1,21
 1001 972 1001 972 1025.5 919 c 128,-1,22
 1050 866 1050 866 1062 806 c 128,-1,23
 1074 746 1074 746 1075.5 682.5 c 128,-1,24
 1077 619 1077 619 1071 558 c 2,25,-1
 1069 537 l 2,0,1
799 559 m 2,26,27
 802 589 802 589 803.5 624 c 128,-1,28
 805 659 805 659 802 694 c 128,-1,29
 799 729 799 729 790 761 c 128,-1,30
 781 793 781 793 763 818.5 c 128,-1,31
 745 844 745 844 717 859.5 c 128,-1,32
 689 875 689 875 648 876 c 0,33,34
 581 878 581 878 530 849 c 128,-1,35
 479 820 479 820 441 767 c 1,36,-1
 362 314 l 1,37,38
 383 257 383 257 426 230 c 128,-1,39
 469 203 469 203 529 201 c 0,40,41
 597 199 597 199 645 230.5 c 128,-1,42
 693 262 693 262 724.5 311.5 c 128,-1,43
 756 361 756 361 773 421.5 c 128,-1,44
 790 482 790 482 797 538 c 2,45,-1
 799 559 l 2,26,27
EndSplineSet
EndChar
StartChar: Aogonek
Encoding: 260 260 549
Width: 1202
Flags: W
LayerCount: 2
Back
Fore
SplineSet
1015 0 m 1,0,-1
 1022 -3 l 1,1,2
 993 -16 993 -16 962.5 -32.5 c 128,-1,3
 932 -49 932 -49 906.5 -71 c 128,-1,4
 881 -93 881 -93 864 -121 c 128,-1,5
 847 -149 847 -149 844 -184 c 0,6,7
 842 -211 842 -211 852.5 -227 c 128,-1,8
 863 -243 863 -243 891 -245 c 0,9,10
 911 -246 911 -246 931.5 -239.5 c 128,-1,11
 952 -233 952 -233 971 -225 c 1,12,-1
 1007 -382 l 1,13,14
 967 -404 967 -404 922.5 -414 c 128,-1,15
 878 -424 878 -424 832 -423 c 0,16,17
 788 -423 788 -423 751 -408.5 c 128,-1,18
 714 -394 714 -394 687.5 -368 c 128,-1,19
 661 -342 661 -342 646.5 -305.5 c 128,-1,20
 632 -269 632 -269 633 -224 c 0,21,22
 634 -183 634 -183 648 -147 c 128,-1,23
 662 -111 662 -111 685 -80.5 c 128,-1,24
 708 -50 708 -50 738 -24 c 128,-1,25
 768 2 768 2 801 23 c 1,26,-1
 774 304 l 1,27,-1
 351 304 l 1,28,-1
 215 0 l 1,29,-1
 -82 0 l 1,30,-1
 633 1456 l 1,31,-1
 882 1456 l 1,32,-1
 1084 0 l 1,33,-1
 1015 0 l 1,0,-1
460 543 m 1,34,-1
 751 543 l 1,35,-1
 700 1076 l 1,36,-1
 460 543 l 1,34,-1
EndSplineSet
Substitution2: "'smcp' Lowercase to Small Capitals lookup 0 subtable" Aogonek.smcp
EndChar
StartChar: aogonek
Encoding: 261 261 550
Width: 1202
Flags: W
LayerCount: 2
Back
Fore
SplineSet
907 0 m 1,0,-1
 914 -3 l 1,1,2
 885 -16 885 -16 854.5 -32.5 c 128,-1,3
 824 -49 824 -49 798.5 -71 c 128,-1,4
 773 -93 773 -93 756 -121 c 128,-1,5
 739 -149 739 -149 736 -184 c 0,6,7
 734 -211 734 -211 744.5 -227 c 128,-1,8
 755 -243 755 -243 783 -245 c 0,9,10
 803 -246 803 -246 823.5 -239.5 c 128,-1,11
 844 -233 844 -233 863 -225 c 1,12,-1
 899 -382 l 1,13,14
 859 -404 859 -404 814.5 -414 c 128,-1,15
 770 -424 770 -424 724 -423 c 0,16,17
 680 -423 680 -423 643 -408.5 c 128,-1,18
 606 -394 606 -394 579.5 -368 c 128,-1,19
 553 -342 553 -342 538.5 -305.5 c 128,-1,20
 524 -269 524 -269 525 -224 c 0,21,22
 526 -183 526 -183 540 -147 c 128,-1,23
 554 -111 554 -111 577 -80 c 128,-1,24
 600 -49 600 -49 630.5 -23 c 128,-1,25
 661 3 661 3 694 24 c 1,26,27
 690 43 690 43 689.5 62 c 128,-1,28
 689 81 689 81 690 101 c 1,29,30
 627 42 627 42 552.5 10.5 c 128,-1,31
 478 -21 478 -21 390 -20 c 0,32,33
 322 -19 322 -19 260.5 3.5 c 128,-1,34
 199 26 199 26 153.5 66.5 c 128,-1,35
 108 107 108 107 83 165 c 128,-1,36
 58 223 58 223 61 295 c 256,37,38
 64 367 64 367 88.5 422 c 128,-1,39
 113 477 113 477 153 518 c 128,-1,40
 193 559 193 559 245 586.5 c 128,-1,41
 297 614 297 614 356 631 c 128,-1,42
 415 648 415 648 477.5 655 c 128,-1,43
 540 662 540 662 601 662 c 2,44,-1
 757 660 l 1,45,-1
 770 727 l 2,46,47
 776 766 776 766 767.5 797 c 128,-1,48
 759 828 759 828 738.5 849.5 c 128,-1,49
 718 871 718 871 687 882.5 c 128,-1,50
 656 894 656 894 617 895 c 0,51,52
 547 897 547 897 500 863.5 c 128,-1,53
 453 830 453 830 439 761 c 1,54,-1
 168 759 l 1,55,56
 174 849 174 849 219 914.5 c 128,-1,57
 264 980 264 980 332 1022.5 c 128,-1,58
 400 1065 400 1065 482.5 1084.5 c 128,-1,59
 565 1104 565 1104 646 1103 c 0,60,61
 731 1101 731 1101 807 1076 c 128,-1,62
 883 1051 883 1051 938.5 1003.5 c 128,-1,63
 994 956 994 956 1022.5 886 c 128,-1,64
 1051 816 1051 816 1042 723 c 1,65,-1
 967 258 l 2,66,67
 958 199 958 199 953.5 137.5 c 128,-1,68
 949 76 949 76 970 18 c 1,69,-1
 969 0 l 1,70,-1
 907 0 l 1,0,-1
461 194 m 0,71,72
 532 192 532 192 594.5 223 c 128,-1,73
 657 254 657 254 702 308 c 1,74,-1
 736 495 l 1,75,-1
 613 496 l 2,76,77
 568 496 568 496 522 487 c 128,-1,78
 476 478 476 478 437 457.5 c 128,-1,79
 398 437 398 437 371 403 c 128,-1,80
 344 369 344 369 337 317 c 0,81,82
 333 286 333 286 341 263 c 128,-1,83
 349 240 349 240 366 225 c 128,-1,84
 383 210 383 210 407.5 202 c 128,-1,85
 432 194 432 194 461 194 c 0,71,72
EndSplineSet
Substitution2: "'smcp' Lowercase to Small Capitals lookup 0 subtable" Aogonek.smcp
EndChar
StartChar: dcroat
Encoding: 273 273 995
Width: 1232
Flags: W
LayerCount: 2
Back
Fore
SplineSet
1319 1220 m 1,0,-1
 1156 1220 l 1,1,-1
 945 0 l 1,2,-1
 702 0 l 1,3,-1
 716 113 l 1,4,5
 659 50 659 50 588.5 14 c 128,-1,6
 518 -22 518 -22 430 -20 c 0,7,8
 358 -18 358 -18 304 6.5 c 128,-1,9
 250 31 250 31 211 71.5 c 128,-1,10
 172 112 172 112 147 165 c 128,-1,11
 122 218 122 218 109 277.5 c 128,-1,12
 96 337 96 337 93.5 399.5 c 128,-1,13
 91 462 91 462 97 521 c 2,14,-1
 100 543 l 2,15,16
 108 610 108 610 126 678 c 128,-1,17
 144 746 144 746 172.5 809 c 128,-1,18
 201 872 201 872 240.5 926.5 c 128,-1,19
 280 981 280 981 332 1020.5 c 128,-1,20
 384 1060 384 1060 448 1082 c 128,-1,21
 512 1104 512 1104 590 1102 c 0,22,23
 665 1100 665 1100 726.5 1070.5 c 128,-1,24
 788 1041 788 1041 835 983 c 1,25,-1
 879 1220 l 1,26,-1
 646 1220 l 1,27,-1
 678 1400 l 1,28,-1
 913 1400 l 1,29,-1
 939 1536 l 1,30,-1
 1211 1536 l 1,31,-1
 1187 1400 l 1,32,-1
 1351 1400 l 1,33,-1
 1319 1220 l 1,0,-1
369 521 m 2,34,35
 364 476 364 476 363.5 422 c 128,-1,36
 363 368 363 368 377 320.5 c 128,-1,37
 391 273 391 273 423.5 240.5 c 128,-1,38
 456 208 456 208 517 206 c 0,39,40
 586 204 586 204 637 236.5 c 128,-1,41
 688 269 688 269 727 321 c 1,42,-1
 805 761 l 1,43,44
 763 873 763 873 640 878 c 0,45,46
 572 879 572 879 524 848 c 128,-1,47
 476 817 476 817 444 768 c 128,-1,48
 412 719 412 719 395 659 c 128,-1,49
 378 599 378 599 371 542 c 2,50,-1
 369 521 l 2,34,35
EndSplineSet
Substitution2: "'smcp' Lowercase to Small Capitals lookup 0 subtable" Dcroat.smcp
EndChar
StartChar: Eogonek
Encoding: 280 280 567
Width: 1202
Flags: W
LayerCount: 2
Back
Fore
SplineSet
1004 638 m 1,0,-1
 424 638 l 1,1,-1
 352 227 l 1,2,-1
 1031 227 l 1,3,-1
 991 0 l 1,4,-1
 863 0 l 1,5,-1
 870 -3 l 1,6,7
 841 -16 841 -16 810.5 -32.5 c 128,-1,8
 780 -49 780 -49 754.5 -71 c 128,-1,9
 729 -93 729 -93 712 -121 c 128,-1,10
 695 -149 695 -149 692 -184 c 0,11,12
 690 -211 690 -211 700.5 -227 c 128,-1,13
 711 -243 711 -243 739 -245 c 0,14,15
 759 -246 759 -246 779.5 -239.5 c 128,-1,16
 800 -233 800 -233 819 -225 c 1,17,-1
 855 -382 l 1,18,19
 815 -404 815 -404 770.5 -414 c 128,-1,20
 726 -424 726 -424 680 -423 c 0,21,22
 636 -423 636 -423 599 -408.5 c 128,-1,23
 562 -394 562 -394 535.5 -368 c 128,-1,24
 509 -342 509 -342 494.5 -305.5 c 128,-1,25
 480 -269 480 -269 481 -224 c 0,26,27
 482 -188 482 -188 493 -156 c 128,-1,28
 504 -124 504 -124 522 -96 c 128,-1,29
 540 -68 540 -68 564 -44 c 128,-1,30
 588 -20 588 -20 615 0 c 1,31,-1
 38 0 l 1,32,-1
 291 1456 l 1,33,-1
 1241 1456 l 1,34,-1
 1201 1227 l 1,35,-1
 526 1227 l 1,36,-1
 462 860 l 1,37,-1
 1043 860 l 1,38,-1
 1004 638 l 1,0,-1
EndSplineSet
Substitution2: "'smcp' Lowercase to Small Capitals lookup 0 subtable" Eogonek.smcp
EndChar
StartChar: eogonek
Encoding: 281 281 568
Width: 1202
Flags: W
LayerCount: 2
Back
Fore
SplineSet
1002 175 m 1,0,1
 955 107 955 107 883.5 64.5 c 128,-1,2
 812 22 812 22 731 1 c 1,3,4
 706 -12 706 -12 682.5 -28 c 128,-1,5
 659 -44 659 -44 640 -63.5 c 128,-1,6
 621 -83 621 -83 608.5 -107.5 c 128,-1,7
 596 -132 596 -132 594 -161 c 0,8,9
 592 -188 592 -188 602.5 -204 c 128,-1,10
 613 -220 613 -220 641 -222 c 0,11,12
 661 -223 661 -223 681.5 -216.5 c 128,-1,13
 702 -210 702 -210 721 -202 c 1,14,-1
 757 -359 l 1,15,16
 717 -381 717 -381 672.5 -391 c 128,-1,17
 628 -401 628 -401 582 -400 c 0,18,19
 538 -400 538 -400 501 -385.5 c 128,-1,20
 464 -371 464 -371 437.5 -345 c 128,-1,21
 411 -319 411 -319 396.5 -282.5 c 128,-1,22
 382 -246 382 -246 383 -201 c 0,23,24
 385 -144 385 -144 410.5 -97.5 c 128,-1,25
 436 -51 436 -51 475 -13 c 1,26,27
 381 2 381 2 306.5 47 c 128,-1,28
 232 92 232 92 182 159.5 c 128,-1,29
 132 227 132 227 109 314 c 128,-1,30
 86 401 86 401 95 500 c 2,31,-1
 99 541 l 2,32,33
 112 655 112 655 160 758 c 128,-1,34
 208 861 208 861 284.5 938 c 128,-1,35
 361 1015 361 1015 463 1060 c 128,-1,36
 565 1105 565 1105 685 1102 c 0,37,38
 798 1099 798 1099 880 1055 c 128,-1,39
 962 1011 962 1011 1012.5 937.5 c 128,-1,40
 1063 864 1063 864 1081.5 769 c 128,-1,41
 1100 674 1100 674 1087 569 c 2,42,-1
 1069 451 l 1,43,-1
 362 451 l 1,44,45
 360 399 360 399 375 354.5 c 128,-1,46
 390 310 390 310 418.5 277 c 128,-1,47
 447 244 447 244 489 224.5 c 128,-1,48
 531 205 531 205 585 204 c 0,49,50
 670 201 670 201 745.5 233.5 c 128,-1,51
 821 266 821 266 879 326 c 1,52,-1
 1002 175 l 1,0,1
665 878 m 0,53,54
 611 880 611 880 568 860 c 128,-1,55
 525 840 525 840 491.5 806 c 128,-1,56
 458 772 458 772 433 729 c 128,-1,57
 408 686 408 686 389 642 c 1,58,-1
 830 642 l 1,59,-1
 835 667 l 2,60,61
 842 711 842 711 833 749 c 128,-1,62
 824 787 824 787 801.5 815 c 128,-1,63
 779 843 779 843 744.5 859.5 c 128,-1,64
 710 876 710 876 665 878 c 0,53,54
EndSplineSet
Substitution2: "'smcp' Lowercase to Small Capitals lookup 0 subtable" Eogonek.smcp
EndChar
StartChar: Hbar
Encoding: 294 294 137
Width: 1202
Flags: W
LayerCount: 2
Back
Fore
SplineSet
1118 1218 m 1,0,-1
 1311 1218 l 1,1,-1
 1281 1047 l 1,2,-1
 1089 1047 l 1,3,-1
 907 0 l 1,4,-1
 636 0 l 1,5,-1
 746 631 l 1,6,-1
 348 631 l 1,7,-1
 238 0 l 1,8,-1
 -34 0 l 1,9,-1
 147 1047 l 1,10,-1
 99 1047 l 1,11,-1
 129 1218 l 1,12,-1
 176 1218 l 1,13,-1
 218 1456 l 1,14,-1
 491 1456 l 1,15,-1
 449 1218 l 1,16,-1
 847 1218 l 1,17,-1
 889 1456 l 1,18,-1
 1160 1456 l 1,19,-1
 1118 1218 l 1,0,-1
785 859 m 1,20,-1
 818 1047 l 1,21,-1
 420 1047 l 1,22,-1
 387 859 l 1,23,-1
 785 859 l 1,20,-1
EndSplineSet
EndChar
StartChar: hbar
Encoding: 295 295 487
Width: 1232
Flags: W
LayerCount: 2
Back
Fore
SplineSet
790 1216 m 1,0,-1
 539 1216 l 1,1,-1
 485 931 l 1,2,3
 544 1007 544 1007 622.5 1055 c 128,-1,4
 701 1103 701 1103 801 1102 c 0,5,6
 897 1101 897 1101 961.5 1063 c 128,-1,7
 1026 1025 1026 1025 1062.5 962.5 c 128,-1,8
 1099 900 1099 900 1110.5 820 c 128,-1,9
 1122 740 1122 740 1113 655 c 1,10,-1
 1004 0 l 1,11,-1
 732 0 l 1,12,-1
 843 658 l 2,13,14
 848 703 848 703 843.5 741.5 c 128,-1,15
 839 780 839 780 821 809.5 c 128,-1,16
 803 839 803 839 771 856 c 128,-1,17
 739 873 739 873 690 875 c 0,18,19
 624 877 624 877 570.5 852 c 128,-1,20
 517 827 517 827 471 782 c 1,21,-1
 333 0 l 1,22,-1
 62 0 l 1,23,-1
 273 1216 l 1,24,-1
 117 1216 l 1,25,-1
 149 1396 l 1,26,-1
 304 1396 l 1,27,-1
 329 1536 l 1,28,-1
 600 1536 l 1,29,-1
 573 1396 l 1,30,-1
 822 1396 l 1,31,-1
 790 1216 l 1,0,-1
EndSplineSet
EndChar
StartChar: iogonek
Encoding: 303 303 588
Width: 1202
Flags: W
LayerCount: 2
Back
Fore
SplineSet
292 1082 m 1,0,-1
 865 1082 l 1,1,-1
 716 226 l 1,2,-1
 1001 226 l 1,3,-1
 961 0 l 1,4,-1
 631 0 l 1,5,-1
 638 -3 l 1,6,7
 609 -16 609 -16 578.5 -32.5 c 128,-1,8
 548 -49 548 -49 522.5 -71 c 128,-1,9
 497 -93 497 -93 480 -121 c 128,-1,10
 463 -149 463 -149 460 -184 c 0,11,12
 458 -211 458 -211 468.5 -227 c 128,-1,13
 479 -243 479 -243 507 -245 c 0,14,15
 527 -246 527 -246 547.5 -239.5 c 128,-1,16
 568 -233 568 -233 587 -225 c 1,17,-1
 623 -382 l 1,18,19
 583 -404 583 -404 538.5 -414 c 128,-1,20
 494 -424 494 -424 448 -423 c 0,21,22
 404 -423 404 -423 367 -408.5 c 128,-1,23
 330 -394 330 -394 303.5 -368 c 128,-1,24
 277 -342 277 -342 262.5 -305.5 c 128,-1,25
 248 -269 248 -269 249 -224 c 0,26,27
 250 -188 250 -188 261 -156 c 128,-1,28
 272 -124 272 -124 290 -96 c 128,-1,29
 308 -68 308 -68 332 -44 c 128,-1,30
 356 -20 356 -20 383 0 c 1,31,-1
 104 0 l 1,32,-1
 143 226 l 1,33,-1
 442 226 l 1,34,-1
 551 855 l 1,35,-1
 252 855 l 1,36,-1
 292 1082 l 1,0,-1
619 1354 m 0,37,38
 619 1388 619 1388 631 1416 c 128,-1,39
 643 1444 643 1444 664.5 1464.5 c 128,-1,40
 686 1485 686 1485 714.5 1496.5 c 128,-1,41
 743 1508 743 1508 776 1508 c 0,42,43
 808 1509 808 1509 836 1499 c 128,-1,44
 864 1489 864 1489 885 1470 c 128,-1,45
 906 1451 906 1451 918.5 1424 c 128,-1,46
 931 1397 931 1397 931 1364 c 0,47,48
 931 1330 931 1330 919 1302 c 128,-1,49
 907 1274 907 1274 886 1253.5 c 128,-1,50
 865 1233 865 1233 836 1221.5 c 128,-1,51
 807 1210 807 1210 774 1210 c 0,52,53
 742 1209 742 1209 714 1219 c 128,-1,54
 686 1229 686 1229 665 1248 c 128,-1,55
 644 1267 644 1267 631.5 1294 c 128,-1,56
 619 1321 619 1321 619 1354 c 0,37,38
EndSplineSet
Substitution2: "'smcp' Lowercase to Small Capitals lookup 0 subtable" Iogonek.smcp
EndChar
StartChar: dotlessi
Encoding: 305 305 138
Width: 1202
Flags: W
LayerCount: 2
Back
Fore
SplineSet
276 1082 m 1,0,-1
 865 1082 l 1,1,-1
 716 226 l 1,2,-1
 1017 226 l 1,3,-1
 977 0 l 1,4,-1
 88 0 l 1,5,-1
 128 226 l 1,6,-1
 442 226 l 1,7,-1
 551 855 l 1,8,-1
 236 855 l 1,9,-1
 276 1082 l 1,0,-1
EndSplineSet
EndChar
StartChar: IJ
Encoding: 306 306 139
Width: 1202
Flags: W
LayerCount: 2
Back
Fore
SplineSet
213 0 m 1,0,-1
 17 0 l 1,1,-1
 270 1456 l 1,2,-1
 466 1456 l 1,3,-1
 213 0 l 1,0,-1
1023 1456 m 1,4,-1
 1219 1456 l 1,5,-1
 1026 322 l 2,6,7
 1015 243 1015 243 986.5 179.5 c 128,-1,8
 958 116 958 116 910.5 71 c 128,-1,9
 863 26 863 26 798 2.5 c 128,-1,10
 733 -21 733 -21 651 -19 c 0,11,12
 575 -18 575 -18 519.5 9 c 128,-1,13
 464 36 464 36 429 81.5 c 128,-1,14
 394 127 394 127 378 188.5 c 128,-1,15
 362 250 362 250 365 322 c 1,16,-1
 561 321 l 1,17,18
 559 292 559 292 560.5 260.5 c 128,-1,19
 562 229 562 229 572 203 c 128,-1,20
 582 177 582 177 603 159.5 c 128,-1,21
 624 142 624 142 662 141 c 0,22,23
 704 139 704 139 733.5 153.5 c 128,-1,24
 763 168 763 168 783 193 c 128,-1,25
 803 218 803 218 814 251.5 c 128,-1,26
 825 285 825 285 830 321 c 2,27,-1
 1023 1456 l 1,4,-1
EndSplineSet
EndChar
StartChar: ij
Encoding: 307 307 140
Width: 1202
Flags: W
LayerCount: 2
Back
Fore
SplineSet
751 1082 m 1,0,-1
 1156 1082 l 1,1,-1
 970 -6 l 2,2,3
 956 -104 956 -104 918.5 -183.5 c 128,-1,4
 881 -263 881 -263 821 -319 c 128,-1,5
 761 -375 761 -375 679.5 -405.5 c 128,-1,6
 598 -436 598 -436 496 -436 c 0,7,8
 442 -436 442 -436 390 -431.5 c 128,-1,9
 338 -427 338 -427 284 -419 c 1,10,-1
 311 -250 l 1,11,12
 354 -258 354 -258 398 -261 c 128,-1,13
 442 -264 442 -264 487 -265 c 0,14,15
 549 -266 549 -266 598 -248 c 128,-1,16
 647 -230 647 -230 683 -196.5 c 128,-1,17
 719 -163 719 -163 742 -114.5 c 128,-1,18
 765 -66 765 -66 774 -6 c 2,19,-1
 931 912 l 1,20,-1
 721 912 l 1,21,-1
 751 1082 l 1,0,-1
162 1082 m 1,22,-1
 580 1082 l 1,23,-1
 421 170 l 1,24,-1
 640 170 l 1,25,-1
 610 0 l 1,26,-1
 -32 0 l 1,27,-1
 -2 170 l 1,28,-1
 226 170 l 1,29,-1
 354 912 l 1,30,-1
 132 912 l 1,31,-1
 162 1082 l 1,22,-1
420 1357 m 0,32,33
 420 1406 420 1406 450.5 1438 c 128,-1,34
 481 1470 481 1470 530 1472 c 0,35,36
 554 1473 554 1473 575 1465 c 128,-1,37
 596 1457 596 1457 611.5 1443 c 128,-1,38
 627 1429 627 1429 636 1408.5 c 128,-1,39
 645 1388 645 1388 645 1363 c 0,40,41
 645 1314 645 1314 613.5 1283 c 128,-1,42
 582 1252 582 1252 534 1250 c 0,43,44
 510 1249 510 1249 489 1256.5 c 128,-1,45
 468 1264 468 1264 452.5 1278.5 c 128,-1,46
 437 1293 437 1293 428.5 1313 c 128,-1,47
 420 1333 420 1333 420 1357 c 0,32,33
985 1358 m 0,48,49
 985 1407 985 1407 1015.5 1439 c 128,-1,50
 1046 1471 1046 1471 1096 1473 c 0,51,52
 1120 1474 1120 1474 1141 1466 c 128,-1,53
 1162 1458 1162 1458 1177.5 1444 c 128,-1,54
 1193 1430 1193 1430 1201.5 1409.5 c 128,-1,55
 1210 1389 1210 1389 1210 1364 c 0,56,57
 1210 1315 1210 1315 1179 1284 c 128,-1,58
 1148 1253 1148 1253 1099 1251 c 0,59,60
 1075 1250 1075 1250 1054 1257.5 c 128,-1,61
 1033 1265 1033 1265 1017.5 1279.5 c 128,-1,62
 1002 1294 1002 1294 993.5 1314 c 128,-1,63
 985 1334 985 1334 985 1358 c 0,48,49
EndSplineSet
EndChar
StartChar: kgreenlandic
Encoding: 312 312 141
Width: 1202
Flags: W
LayerCount: 2
Back
Fore
SplineSet
564 424 m 1,0,-1
 369 277 l 1,1,-1
 321 0 l 1,2,-1
 50 0 l 1,3,-1
 237 1082 l 1,4,-1
 509 1082 l 1,5,-1
 428 621 l 1,6,-1
 536 729 l 1,7,-1
 888 1082 l 1,8,-1
 1246 1082 l 1,9,-1
 782 622 l 1,10,-1
 1060 0 l 1,11,-1
 728 0 l 1,12,-1
 564 424 l 1,0,-1
EndSplineSet
EndChar
StartChar: Lslash
Encoding: 321 321 142
Width: 1202
Flags: W
LayerCount: 2
Back
Fore
SplineSet
498 890 m 1,0,-1
 736 958 l 1,1,-1
 700 755 l 1,2,-1
 463 687 l 1,3,-1
 383 227 l 1,4,-1
 1045 227 l 1,5,-1
 1005 0 l 1,6,-1
 69 0 l 1,7,-1
 173 605 l 1,8,-1
 43 568 l 1,9,-1
 79 771 l 1,10,-1
 208 808 l 1,11,-1
 321 1456 l 1,12,-1
 597 1456 l 1,13,-1
 498 890 l 1,0,-1
EndSplineSet
EndChar
StartChar: lslash
Encoding: 322 322 143
Width: 1202
Flags: W
LayerCount: 2
Back
Fore
SplineSet
369 1536 m 1,0,-1
 957 1536 l 1,1,-1
 868 1025 l 1,2,-1
 1163 1150 l 1,3,-1
 1127 943 l 1,4,-1
 832 818 l 1,5,-1
 730 226 l 1,6,-1
 1031 226 l 1,7,-1
 991 0 l 1,8,-1
 102 0 l 1,9,-1
 142 226 l 1,10,-1
 456 226 l 1,11,-1
 537 694 l 1,12,-1
 210 556 l 1,13,-1
 246 763 l 1,14,-1
 573 901 l 1,15,-1
 644 1309 l 1,16,-1
 329 1309 l 1,17,-1
 369 1536 l 1,0,-1
EndSplineSet
EndChar
StartChar: Eng
Encoding: 330 330 144
Width: 1202
Flags: W
LayerCount: 2
Back
Fore
SplineSet
1212 1456 m 1,0,-1
 956 -38 l 2,1,2
 944 -126 944 -126 911 -199.5 c 128,-1,3
 878 -273 878 -273 825 -326.5 c 128,-1,4
 772 -380 772 -380 699 -409 c 128,-1,5
 626 -438 626 -438 533 -438 c 0,6,7
 496 -438 496 -438 461 -433 c 128,-1,8
 426 -428 426 -428 390 -420 c 1,9,-1
 429 -199 l 1,10,11
 453 -205 453 -205 477.5 -209 c 128,-1,12
 502 -213 502 -213 528 -213 c 0,13,14
 565 -212 565 -212 592 -196.5 c 128,-1,15
 619 -181 619 -181 638 -156.5 c 128,-1,16
 657 -132 657 -132 668 -100.5 c 128,-1,17
 679 -69 679 -69 685 -37 c 2,18,-1
 691 0 l 1,19,-1
 468 891 l 1,20,-1
 313 0 l 1,21,-1
 39 0 l 1,22,-1
 292 1456 l 1,23,-1
 560 1456 l 1,24,-1
 782 564 l 1,25,-1
 938 1456 l 1,26,-1
 1212 1456 l 1,0,-1
EndSplineSet
EndChar
StartChar: eng
Encoding: 331 331 145
Width: 1202
Flags: W
LayerCount: 2
Back
Fore
SplineSet
478 1083 m 1,0,-1
 455 929 l 1,1,2
 514 1007 514 1007 594 1055.5 c 128,-1,3
 674 1104 674 1104 775 1102 c 0,4,5
 868 1100 868 1100 927 1061 c 128,-1,6
 986 1022 986 1022 1017 960 c 128,-1,7
 1048 898 1048 898 1056 820 c 128,-1,8
 1064 742 1064 742 1055 663 c 2,9,-1
 942 -40 l 2,10,11
 930 -128 930 -128 897.5 -201.5 c 128,-1,12
 865 -275 865 -275 812.5 -328 c 128,-1,13
 760 -381 760 -381 687 -410 c 128,-1,14
 614 -439 614 -439 521 -439 c 0,15,16
 484 -438 484 -438 448.5 -433 c 128,-1,17
 413 -428 413 -428 377 -420 c 1,18,-1
 416 -197 l 1,19,20
 440 -204 440 -204 465 -208 c 128,-1,21
 490 -212 490 -212 515 -212 c 0,22,23
 552 -212 552 -212 578.5 -197 c 128,-1,24
 605 -182 605 -182 623 -158 c 128,-1,25
 641 -134 641 -134 652 -103 c 128,-1,26
 663 -72 663 -72 668 -40 c 2,27,-1
 782 663 l 2,28,29
 786 702 786 702 785.5 739.5 c 128,-1,30
 785 777 785 777 772.5 807 c 128,-1,31
 760 837 760 837 733 855.5 c 128,-1,32
 706 874 706 874 659 875 c 0,33,34
 596 877 596 877 544.5 852.5 c 128,-1,35
 493 828 493 828 449 785 c 1,36,-1
 311 0 l 1,37,-1
 40 0 l 1,38,-1
 228 1082 l 1,39,-1
 478 1083 l 1,0,-1
EndSplineSet
EndChar
StartChar: OE
Encoding: 338 338 146
Width: 1202
Flags: W
LayerCount: 2
Back
Fore
SplineSet
1051 0 m 1,0,-1
 657 0 l 1,1,2
 591 -5 591 -5 526 -13 c 128,-1,3
 461 -21 461 -21 394 -20 c 0,4,5
 322 -19 322 -19 267 3 c 128,-1,6
 212 25 212 25 171.5 61.5 c 128,-1,7
 131 98 131 98 105 147 c 128,-1,8
 79 196 79 196 65 253 c 128,-1,9
 51 310 51 310 49 372 c 128,-1,10
 47 434 47 434 54 496 c 2,11,-1
 128 960 l 2,12,13
 143 1063 143 1063 178.5 1157 c 128,-1,14
 214 1251 214 1251 274 1322.5 c 128,-1,15
 334 1394 334 1394 420 1436.5 c 128,-1,16
 506 1479 506 1479 621 1478 c 0,17,18
 687 1478 687 1478 750.5 1469.5 c 128,-1,19
 814 1461 814 1461 880 1456 c 1,20,-1
 1293 1456 l 1,21,-1
 1255 1239 l 1,22,-1
 919 1239 l 1,23,-1
 854 865 l 1,24,-1
 1141 865 l 1,25,-1
 1103 648 l 1,26,-1
 817 648 l 1,27,-1
 744 232 l 1,28,-1
 1092 232 l 1,29,-1
 1051 0 l 1,0,-1
412 213 m 0,30,31
 435 212 435 212 456.5 212.5 c 128,-1,32
 478 213 478 213 501 213 c 1,33,-1
 691 1258 l 1,34,35
 669 1260 669 1260 647.5 1261.5 c 128,-1,36
 626 1263 626 1263 604 1264 c 0,37,38
 539 1265 539 1265 496 1238.5 c 128,-1,39
 453 1212 453 1212 426 1169 c 128,-1,40
 399 1126 399 1126 384.5 1071.5 c 128,-1,41
 370 1017 370 1017 362 963 c 2,42,-1
 290 495 l 2,43,44
 285 453 285 453 282.5 404.5 c 128,-1,45
 280 356 280 356 290 314.5 c 128,-1,46
 300 273 300 273 328 244.5 c 128,-1,47
 356 216 356 216 412 213 c 0,30,31
EndSplineSet
EndChar
StartChar: oe
Encoding: 339 339 147
Width: 1202
Flags: W
LayerCount: 2
Back
Fore
SplineSet
41 640 m 2,0,1
 53 727 53 727 82 811.5 c 128,-1,2
 111 896 111 896 161.5 961.5 c 128,-1,3
 212 1027 212 1027 285 1066 c 128,-1,4
 358 1105 358 1105 459 1103 c 0,5,6
 519 1101 519 1101 573.5 1081 c 128,-1,7
 628 1061 628 1061 670 1016 c 1,8,9
 718 1058 718 1058 771.5 1080.5 c 128,-1,10
 825 1103 825 1103 889 1101 c 0,11,12
 947 1100 947 1100 991 1081 c 128,-1,13
 1035 1062 1035 1062 1066.5 1030.5 c 128,-1,14
 1098 999 1098 999 1118.5 957.5 c 128,-1,15
 1139 916 1139 916 1150 868.5 c 128,-1,16
 1161 821 1161 821 1162.5 770.5 c 128,-1,17
 1164 720 1164 720 1159 672 c 2,18,-1
 1125 454 l 1,19,-1
 725 454 l 1,20,-1
 718 418 l 2,21,22
 712 382 712 382 712.5 345 c 128,-1,23
 713 308 713 308 724.5 277.5 c 128,-1,24
 736 247 736 247 761 227 c 128,-1,25
 786 207 786 207 831 206 c 0,26,27
 871 205 871 205 906 216.5 c 128,-1,28
 941 228 941 228 976 244 c 1,29,-1
 1020 62 l 1,30,31
 972 18 972 18 912 -1.5 c 128,-1,32
 852 -21 852 -21 788 -20 c 0,33,34
 720 -20 720 -20 656.5 1.5 c 128,-1,35
 593 23 593 23 546 74 c 1,36,37
 493 28 493 28 433.5 3.5 c 128,-1,38
 374 -21 374 -21 304 -20 c 0,39,40
 209 -18 209 -18 148 24 c 128,-1,41
 87 66 87 66 54 131.5 c 128,-1,42
 21 197 21 197 12 278.5 c 128,-1,43
 3 360 3 360 12 440 c 2,44,-1
 41 640 l 2,0,1
270 438 m 2,45,46
 268 423 268 423 265.5 399.5 c 128,-1,47
 263 376 263 376 261.5 350 c 128,-1,48
 260 324 260 324 261.5 297.5 c 128,-1,49
 263 271 263 271 270.5 250 c 128,-1,50
 278 229 278 229 293 215 c 128,-1,51
 308 201 308 201 333 200 c 0,52,53
 361 199 361 199 382 211 c 128,-1,54
 403 223 403 223 417 243 c 128,-1,55
 431 263 431 263 440 289 c 128,-1,56
 449 315 449 315 455 342 c 128,-1,57
 461 369 461 369 464 394.5 c 128,-1,58
 467 420 467 420 469 440 c 2,59,-1
 494 642 l 2,60,61
 495 657 495 657 498 680.5 c 128,-1,62
 501 704 501 704 502.5 730 c 128,-1,63
 504 756 504 756 502 782 c 128,-1,64
 500 808 500 808 492.5 829.5 c 128,-1,65
 485 851 485 851 469.5 864.5 c 128,-1,66
 454 878 454 878 429 879 c 0,67,68
 387 881 387 881 362 855 c 128,-1,69
 337 829 337 829 323 791 c 128,-1,70
 309 753 309 753 303 711.5 c 128,-1,71
 297 670 297 670 294 641 c 2,72,-1
 270 438 l 2,45,46
861 879 m 0,73,74
 835 880 835 880 816.5 868.5 c 128,-1,75
 798 857 798 857 785.5 837 c 128,-1,76
 773 817 773 817 765.5 791 c 128,-1,77
 758 765 758 765 753 738.5 c 128,-1,78
 748 712 748 712 745 688 c 128,-1,79
 742 664 742 664 739 647 c 1,80,-1
 905 647 l 1,81,-1
 917 733 l 2,82,83
 918 751 918 751 919.5 775.5 c 128,-1,84
 921 800 921 800 916.5 822.5 c 128,-1,85
 912 845 912 845 899.5 861 c 128,-1,86
 887 877 887 877 861 879 c 0,73,74
EndSplineSet
EndChar
StartChar: tbar
Encoding: 359 359 489
Width: 1202
Flags: W
LayerCount: 2
Back
Fore
SplineSet
834 539 m 1,0,-1
 625 539 l 1,1,-1
 604 411 l 2,2,3
 599 368 599 368 602.5 332 c 128,-1,4
 606 296 606 296 621.5 269 c 128,-1,5
 637 242 637 242 666.5 226 c 128,-1,6
 696 210 696 210 743 209 c 0,7,8
 801 207 801 207 858 216 c 128,-1,9
 915 225 915 225 972 237 c 1,10,-1
 981 44 l 1,11,12
 945 24 945 24 904.5 11 c 128,-1,13
 864 -2 864 -2 821.5 -9 c 128,-1,14
 779 -16 779 -16 736 -18.5 c 128,-1,15
 693 -21 693 -21 653 -20 c 0,16,17
 562 -19 562 -19 496.5 12.5 c 128,-1,18
 431 44 431 44 390.5 98 c 128,-1,19
 350 152 350 152 334.5 225.5 c 128,-1,20
 319 299 319 299 328 385 c 1,21,-1
 353 539 l 1,22,-1
 161 539 l 1,23,-1
 193 719 l 1,24,-1
 383 719 l 1,25,-1
 409 877 l 1,26,-1
 169 877 l 1,27,-1
 205 1082 l 1,28,-1
 445 1082 l 1,29,-1
 491 1347 l 1,30,-1
 762 1347 l 1,31,-1
 716 1082 l 1,32,-1
 1108 1082 l 1,33,-1
 1072 877 l 1,34,-1
 680 877 l 1,35,-1
 654 719 l 1,36,-1
 866 719 l 1,37,-1
 834 539 l 1,0,-1
EndSplineSet
Substitution2: "'smcp' Lowercase to Small Capitals lookup 0 subtable" Tbar.smcp
EndChar
StartChar: Uogonek
Encoding: 370 370 648
Width: 1202
Flags: W
LayerCount: 2
Back
Fore
SplineSet
1217 1456 m 1,0,-1
 1054 492 l 2,1,2
 1041 405 1041 405 1012 328.5 c 128,-1,3
 983 252 983 252 938 189.5 c 128,-1,4
 893 127 893 127 833 81 c 128,-1,5
 773 35 773 35 698 9 c 1,6,7
 666 -14 666 -14 642.5 -45.5 c 128,-1,8
 619 -77 619 -77 616 -119 c 0,9,10
 614 -146 614 -146 624.5 -162 c 128,-1,11
 635 -178 635 -178 663 -180 c 0,12,13
 683 -181 683 -181 703.5 -174.5 c 128,-1,14
 724 -168 724 -168 743 -160 c 1,15,-1
 779 -317 l 1,16,17
 739 -339 739 -339 694.5 -349 c 128,-1,18
 650 -359 650 -359 604 -358 c 0,19,20
 560 -358 560 -358 523 -343.5 c 128,-1,21
 486 -329 486 -329 459.5 -303 c 128,-1,22
 433 -277 433 -277 418.5 -240.5 c 128,-1,23
 404 -204 404 -204 405 -159 c 0,24,25
 406 -118 406 -118 419.5 -83 c 128,-1,26
 433 -48 433 -48 455 -17 c 1,27,28
 357 -7 357 -7 286 37 c 128,-1,29
 215 81 215 81 171 149 c 128,-1,30
 127 217 127 217 110.5 305 c 128,-1,31
 94 393 94 393 106 490 c 1,32,-1
 271 1456 l 1,33,-1
 545 1456 l 1,34,-1
 383 490 l 2,35,36
 378 447 378 447 378.5 398.5 c 128,-1,37
 379 350 379 350 392.5 308 c 128,-1,38
 406 266 406 266 436.5 237.5 c 128,-1,39
 467 209 467 209 523 206 c 0,40,41
 585 203 585 203 630 227.5 c 128,-1,42
 675 252 675 252 705.5 293 c 128,-1,43
 736 334 736 334 754 386 c 128,-1,44
 772 438 772 438 780 490 c 2,45,-1
 945 1456 l 1,46,-1
 1217 1456 l 1,0,-1
EndSplineSet
Substitution2: "'smcp' Lowercase to Small Capitals lookup 0 subtable" Uogonek.smcp
EndChar
StartChar: uogonek
Encoding: 371 371 649
Width: 1202
Flags: W
LayerCount: 2
Back
Fore
SplineSet
938 0 m 1,0,-1
 945 -3 l 1,1,2
 916 -16 916 -16 885.5 -32.5 c 128,-1,3
 855 -49 855 -49 829.5 -71 c 128,-1,4
 804 -93 804 -93 787 -121 c 128,-1,5
 770 -149 770 -149 767 -184 c 0,6,7
 765 -211 765 -211 775.5 -227 c 128,-1,8
 786 -243 786 -243 814 -245 c 0,9,10
 834 -246 834 -246 854.5 -239.5 c 128,-1,11
 875 -233 875 -233 894 -225 c 1,12,-1
 930 -382 l 1,13,14
 890 -404 890 -404 845.5 -414 c 128,-1,15
 801 -424 801 -424 755 -423 c 0,16,17
 711 -423 711 -423 674 -408.5 c 128,-1,18
 637 -394 637 -394 610.5 -368 c 128,-1,19
 584 -342 584 -342 569.5 -305.5 c 128,-1,20
 555 -269 555 -269 556 -224 c 0,21,22
 557 -184 557 -184 570.5 -148.5 c 128,-1,23
 584 -113 584 -113 606.5 -82 c 128,-1,24
 629 -51 629 -51 658.5 -25.5 c 128,-1,25
 688 0 688 0 721 21 c 1,26,-1
 739 153 l 1,27,28
 709 115 709 115 675 83 c 128,-1,29
 641 51 641 51 602 27.5 c 128,-1,30
 563 4 563 4 518.5 -9 c 128,-1,31
 474 -22 474 -22 425 -21 c 0,32,33
 359 -20 359 -20 309.5 -1 c 128,-1,34
 260 18 260 18 224 51 c 128,-1,35
 188 84 188 84 165.5 128 c 128,-1,36
 143 172 143 172 131 223 c 128,-1,37
 119 274 119 274 117.5 330 c 128,-1,38
 116 386 116 386 122 442 c 2,39,-1
 229 1082 l 1,40,-1
 500 1082 l 1,41,-1
 393 439 l 2,42,43
 388 397 388 397 387.5 355.5 c 128,-1,44
 387 314 387 314 398.5 281 c 128,-1,45
 410 248 410 248 438 227 c 128,-1,46
 466 206 466 206 518 205 c 0,47,48
 591 203 591 203 647.5 233.5 c 128,-1,49
 704 264 704 264 746 322 c 1,50,-1
 879 1082 l 1,51,-1
 1151 1082 l 1,52,-1
 963 0 l 1,53,-1
 938 0 l 1,0,-1
EndSplineSet
Substitution2: "'smcp' Lowercase to Small Capitals lookup 0 subtable" Uogonek.smcp
EndChar
StartChar: longs
Encoding: 383 383 148
Width: 1202
Flags: W
LayerCount: 2
Back
Fore
SplineSet
295 0 m 1,0,-1
 483 1100 l 2,1,2
 499 1211 499 1211 544 1301 c 128,-1,3
 589 1391 589 1391 659 1454 c 128,-1,4
 729 1517 729 1517 823 1550 c 128,-1,5
 917 1583 917 1583 1031 1582 c 0,6,7
 1072 1581 1072 1581 1111.5 1574.5 c 128,-1,8
 1151 1568 1151 1568 1191 1560 c 1,9,-1
 1144 1346 l 1,10,11
 1121 1351 1121 1351 1098.5 1354.5 c 128,-1,12
 1076 1358 1076 1358 1052 1359 c 0,13,14
 992 1360 992 1360 941.5 1342 c 128,-1,15
 891 1324 891 1324 852.5 1290 c 128,-1,16
 814 1256 814 1256 789 1207.5 c 128,-1,17
 764 1159 764 1159 754 1101 c 2,18,-1
 565 0 l 1,19,-1
 295 0 l 1,0,-1
EndSplineSet
EndChar
StartChar: florin
Encoding: 402 402 149
Width: 1202
Flags: W
LayerCount: 2
Back
Fore
SplineSet
961 877 m 1,0,-1
 761 877 l 1,1,-1
 625 -13 l 2,2,3
 613 -106 613 -106 579.5 -184.5 c 128,-1,4
 546 -263 546 -263 490.5 -319.5 c 128,-1,5
 435 -376 435 -376 357.5 -407.5 c 128,-1,6
 280 -439 280 -439 181 -438 c 0,7,8
 84 -437 84 -437 -8 -399 c 1,9,-1
 29 -179 l 1,10,11
 58 -196 58 -196 94 -205 c 128,-1,12
 130 -214 130 -214 165 -215 c 0,13,14
 210 -216 210 -216 243 -199.5 c 128,-1,15
 276 -183 276 -183 298.5 -155 c 128,-1,16
 321 -127 321 -127 334 -90 c 128,-1,17
 347 -53 347 -53 353 -13 c 2,18,-1
 489 877 l 1,19,-1
 333 877 l 1,20,-1
 365 1082 l 1,21,-1
 521 1082 l 1,22,-1
 530 1161 l 2,23,24
 543 1264 543 1264 586.5 1343.5 c 128,-1,25
 630 1423 630 1423 697.5 1476.5 c 128,-1,26
 765 1530 765 1530 853.5 1556.5 c 128,-1,27
 942 1583 942 1583 1044 1581 c 0,28,29
 1095 1580 1095 1580 1143 1567.5 c 128,-1,30
 1191 1555 1191 1555 1239 1539 c 1,31,-1
 1194 1324 l 1,32,33
 1132 1356 1132 1356 1063 1356 c 0,34,35
 1013 1357 1013 1357 969.5 1345.5 c 128,-1,36
 926 1334 926 1334 892 1310 c 128,-1,37
 858 1286 858 1286 835 1249 c 128,-1,38
 812 1212 812 1212 804 1161 c 2,39,-1
 793 1082 l 1,40,-1
 993 1082 l 1,41,-1
 961 877 l 1,0,-1
EndSplineSet
EndChar
StartChar: Ohorn
Encoding: 416 416 150
Width: 1202
Flags: W
LayerCount: 2
Back
Fore
SplineSet
1132 622 m 2,0,1
 1119 541 1119 541 1094 461 c 128,-1,2
 1069 381 1069 381 1030.5 309 c 128,-1,3
 992 237 992 237 940.5 175.5 c 128,-1,4
 889 114 889 114 824 70 c 128,-1,5
 759 26 759 26 681 2 c 128,-1,6
 603 -22 603 -22 511 -20 c 0,7,8
 424 -18 424 -18 356.5 9.5 c 128,-1,9
 289 37 289 37 239.5 83.5 c 128,-1,10
 190 130 190 130 158 191.5 c 128,-1,11
 126 253 126 253 109 323.5 c 128,-1,12
 92 394 92 394 89 470 c 128,-1,13
 86 546 86 546 96 621 c 2,14,-1
 129 833 l 2,15,16
 141 913 141 913 165.5 992.5 c 128,-1,17
 190 1072 190 1072 226.5 1144 c 128,-1,18
 263 1216 263 1216 313 1278 c 128,-1,19
 363 1340 363 1340 426 1384.5 c 128,-1,20
 489 1429 489 1429 566 1453.5 c 128,-1,21
 643 1478 643 1478 734 1476 c 0,22,23
 855 1473 855 1473 939 1424 c 128,-1,24
 1023 1375 1023 1375 1077 1296 c 1,25,26
 1102 1310 1102 1310 1118.5 1333 c 128,-1,27
 1135 1356 1135 1356 1146 1384 c 128,-1,28
 1157 1412 1157 1412 1163 1443 c 128,-1,29
 1169 1474 1169 1474 1174 1503 c 1,30,-1
 1360 1504 l 1,31,32
 1354 1440 1354 1440 1338.5 1384.5 c 128,-1,33
 1323 1329 1323 1329 1296.5 1284 c 128,-1,34
 1270 1239 1270 1239 1232 1205 c 128,-1,35
 1194 1171 1194 1171 1143 1151 c 1,36,37
 1165 1076 1165 1076 1170.5 995 c 128,-1,38
 1176 914 1176 914 1165 833 c 2,39,-1
 1132 622 l 2,0,1
887 836 m 2,40,41
 892 873 892 873 895 917 c 128,-1,42
 898 961 898 961 895.5 1005.5 c 128,-1,43
 893 1050 893 1050 883 1092 c 128,-1,44
 873 1134 873 1134 852 1167 c 128,-1,45
 831 1200 831 1200 797 1221 c 128,-1,46
 763 1242 763 1242 712 1244 c 0,47,48
 658 1246 658 1246 615.5 1228.5 c 128,-1,49
 573 1211 573 1211 541.5 1179.5 c 128,-1,50
 510 1148 510 1148 487 1106.5 c 128,-1,51
 464 1065 464 1065 448.5 1019 c 128,-1,52
 433 973 433 973 423 925.5 c 128,-1,53
 413 878 413 878 407 835 c 2,54,-1
 374 620 l 2,55,56
 369 585 369 585 365.5 542 c 128,-1,57
 362 499 362 499 362.5 454 c 128,-1,58
 363 409 363 409 371 366 c 128,-1,59
 379 323 379 323 398 289 c 128,-1,60
 417 255 417 255 449.5 233.5 c 128,-1,61
 482 212 482 212 533 210 c 0,62,63
 587 208 587 208 630 225.5 c 128,-1,64
 673 243 673 243 706.5 274 c 128,-1,65
 740 305 740 305 765 347 c 128,-1,66
 790 389 790 389 807.5 435.5 c 128,-1,67
 825 482 825 482 836 530 c 128,-1,68
 847 578 847 578 854 621 c 2,69,-1
 887 836 l 2,40,41
EndSplineSet
EndChar
StartChar: ohorn
Encoding: 417 417 151
Width: 1202
Flags: W
LayerCount: 2
Back
Fore
SplineSet
83 544 m 2,0,1
 97 658 97 658 142.5 760.5 c 128,-1,2
 188 863 188 863 261 940 c 128,-1,3
 334 1017 334 1017 433.5 1061 c 128,-1,4
 533 1105 533 1105 655 1102 c 0,5,6
 755 1100 755 1100 829.5 1066.5 c 128,-1,7
 904 1033 904 1033 957 976 c 1,8,9
 981 991 981 991 998.5 1013.5 c 128,-1,10
 1016 1036 1016 1036 1028.5 1062.5 c 128,-1,11
 1041 1089 1041 1089 1049.5 1119 c 128,-1,12
 1058 1149 1058 1149 1063 1179 c 1,13,-1
 1245 1181 l 1,14,15
 1235 1057 1235 1057 1182.5 972.5 c 128,-1,16
 1130 888 1130 888 1038 845 c 1,17,18
 1064 780 1064 780 1073 706 c 128,-1,19
 1082 632 1082 632 1074 554 c 2,20,-1
 1071 532 l 2,21,22
 1057 418 1057 418 1011.5 316.5 c 128,-1,23
 966 215 966 215 893 139 c 128,-1,24
 820 63 820 63 720.5 19.5 c 128,-1,25
 621 -24 621 -24 500 -21 c 0,26,27
 384 -19 384 -19 300 26.5 c 128,-1,28
 216 72 216 72 163.5 146.5 c 128,-1,29
 111 221 111 221 90.5 318.5 c 128,-1,30
 70 416 70 416 81 523 c 2,31,-1
 83 544 l 2,0,1
352 523 m 2,32,33
 347 473 347 473 348 417.5 c 128,-1,34
 349 362 349 362 365.5 314.5 c 128,-1,35
 382 267 382 267 418.5 234.5 c 128,-1,36
 455 202 455 202 520 200 c 0,37,38
 588 198 588 198 637.5 228.5 c 128,-1,39
 687 259 687 259 720.5 307.5 c 128,-1,40
 754 356 754 356 772.5 415.5 c 128,-1,41
 791 475 791 475 799 532 c 2,42,-1
 801 553 l 2,43,44
 804 586 804 586 805.5 622.5 c 128,-1,45
 807 659 807 659 802.5 694.5 c 128,-1,46
 798 730 798 730 787.5 762.5 c 128,-1,47
 777 795 777 795 757.5 820 c 128,-1,48
 738 845 738 845 708 860.5 c 128,-1,49
 678 876 678 876 635 878 c 0,50,51
 566 880 566 880 516.5 850 c 128,-1,52
 467 820 467 820 433.5 771 c 128,-1,53
 400 722 400 722 380.5 662 c 128,-1,54
 361 602 361 602 354 544 c 2,55,-1
 352 523 l 2,32,33
EndSplineSet
EndChar
StartChar: Uhorn
Encoding: 431 431 152
Width: 1202
Flags: W
LayerCount: 2
Back
Fore
SplineSet
1224 1456 m 1,0,-1
 1191 1260 l 1,1,2
 1243 1265 1243 1265 1276 1285.5 c 128,-1,3
 1309 1306 1309 1306 1329.5 1338.5 c 128,-1,4
 1350 1371 1350 1371 1360.5 1414.5 c 128,-1,5
 1371 1458 1371 1458 1378 1509 c 1,6,-1
 1569 1510 l 1,7,8
 1561 1412 1561 1412 1533 1337.5 c 128,-1,9
 1505 1263 1505 1263 1455 1212 c 128,-1,10
 1405 1161 1405 1161 1333 1133 c 128,-1,11
 1261 1105 1261 1105 1164 1101 c 1,12,-1
 1061 492 l 2,13,14
 1044 379 1044 379 1000 284 c 128,-1,15
 956 189 956 189 886 120.5 c 128,-1,16
 816 52 816 52 720.5 14.5 c 128,-1,17
 625 -23 625 -23 506 -20 c 0,18,19
 396 -18 396 -18 316.5 23.5 c 128,-1,20
 237 65 237 65 188 134.5 c 128,-1,21
 139 204 139 204 120 296 c 128,-1,22
 101 388 101 388 113 490 c 1,23,-1
 278 1456 l 1,24,-1
 552 1456 l 1,25,-1
 390 490 l 2,26,27
 385 447 385 447 385.5 398.5 c 128,-1,28
 386 350 386 350 399.5 308 c 128,-1,29
 413 266 413 266 443.5 237.5 c 128,-1,30
 474 209 474 209 530 206 c 0,31,32
 592 203 592 203 637 227.5 c 128,-1,33
 682 252 682 252 712.5 293 c 128,-1,34
 743 334 743 334 761 386 c 128,-1,35
 779 438 779 438 787 490 c 2,36,-1
 952 1456 l 1,37,-1
 1224 1456 l 1,0,-1
EndSplineSet
EndChar
StartChar: uhorn
Encoding: 432 432 153
Width: 1202
Flags: W
LayerCount: 2
Back
Fore
SplineSet
708 153 m 1,0,1
 678 115 678 115 644 83 c 128,-1,2
 610 51 610 51 571 27.5 c 128,-1,3
 532 4 532 4 487.5 -9 c 128,-1,4
 443 -22 443 -22 394 -21 c 0,5,6
 328 -20 328 -20 278.5 -1 c 128,-1,7
 229 18 229 18 193 51 c 128,-1,8
 157 84 157 84 134.5 128 c 128,-1,9
 112 172 112 172 100 223 c 128,-1,10
 88 274 88 274 86.5 330 c 128,-1,11
 85 386 85 386 91 442 c 2,12,-1
 198 1082 l 1,13,-1
 469 1082 l 1,14,-1
 362 439 l 2,15,16
 357 397 357 397 356.5 355.5 c 128,-1,17
 356 314 356 314 367.5 281 c 128,-1,18
 379 248 379 248 407 227 c 128,-1,19
 435 206 435 206 487 205 c 0,20,21
 560 203 560 203 616.5 233.5 c 128,-1,22
 673 264 673 264 715 322 c 1,23,-1
 848 1082 l 1,24,-1
 1120 1082 l 1,25,-1
 1095 941 l 1,26,27
 1158 970 1158 970 1191 1030.5 c 128,-1,28
 1224 1091 1224 1091 1238 1178 c 1,29,-1
 1423 1180 l 1,30,31
 1409 994 1409 994 1317.5 893 c 128,-1,32
 1226 792 1226 792 1065 765 c 1,33,-1
 932 0 l 1,34,-1
 687 0 l 1,35,-1
 708 153 l 1,0,1
EndSplineSet
EndChar
StartChar: uni0237
Encoding: 567 567 154
Width: 1202
Flags: W
LayerCount: 2
Back
Fore
SplineSet
384 1082 m 1,0,-1
 923 1082 l 1,1,-1
 735 -25 l 2,2,3
 721 -130 721 -130 679.5 -208 c 128,-1,4
 638 -286 638 -286 573 -337.5 c 128,-1,5
 508 -389 508 -389 421.5 -414 c 128,-1,6
 335 -439 335 -439 231 -439 c 0,7,8
 186 -438 186 -438 141 -434 c 128,-1,9
 96 -430 96 -430 51 -422 c 1,10,-1
 87 -194 l 1,11,12
 123 -202 123 -202 160.5 -205.5 c 128,-1,13
 198 -209 198 -209 235 -210 c 0,14,15
 327 -212 327 -212 386 -164.5 c 128,-1,16
 445 -117 445 -117 461 -25 c 2,17,-1
 610 855 l 1,18,-1
 344 855 l 1,19,-1
 384 1082 l 1,0,-1
EndSplineSet
EndChar
StartChar: schwa
Encoding: 601 601 155
Width: 1202
Flags: W
LayerCount: 2
Back
Fore
SplineSet
660 1102 m 0,0,1
 773 1100 773 1100 859.5 1057.5 c 128,-1,2
 946 1015 946 1015 1002.5 943.5 c 128,-1,3
 1059 872 1059 872 1083.5 777 c 128,-1,4
 1108 682 1108 682 1098 574 c 2,5,-1
 1093 533 l 2,6,7
 1080 422 1080 422 1034.5 320.5 c 128,-1,8
 989 219 989 219 916 142.5 c 128,-1,9
 843 66 843 66 744.5 22 c 128,-1,10
 646 -22 646 -22 528 -19 c 0,11,12
 421 -16 421 -16 341 21.5 c 128,-1,13
 261 59 261 59 210 124.5 c 128,-1,14
 159 190 159 190 139 278 c 128,-1,15
 119 366 119 366 131 469 c 2,16,-1
 155 627 l 1,17,-1
 830 627 l 1,18,19
 833 679 833 679 821.5 724 c 128,-1,20
 810 769 810 769 783.5 802.5 c 128,-1,21
 757 836 757 836 716.5 855.5 c 128,-1,22
 676 875 676 875 621 877 c 0,23,24
 533 880 533 880 454 857.5 c 128,-1,25
 375 835 375 835 297 797 c 1,26,-1
 236 979 l 1,27,28
 279 1014 279 1014 330.5 1038 c 128,-1,29
 382 1062 382 1062 437.5 1076.5 c 128,-1,30
 493 1091 493 1091 549.5 1097 c 128,-1,31
 606 1103 606 1103 660 1102 c 0,0,1
548 202 m 0,32,33
 600 201 600 201 640.5 221 c 128,-1,34
 681 241 681 241 712 274.5 c 128,-1,35
 743 308 743 308 766 350 c 128,-1,36
 789 392 789 392 806 435 c 1,37,-1
 396 435 l 1,38,-1
 390 407 l 2,39,40
 383 363 383 363 389.5 326 c 128,-1,41
 396 289 396 289 415.5 262 c 128,-1,42
 435 235 435 235 468 219 c 128,-1,43
 501 203 501 203 548 202 c 0,32,33
EndSplineSet
EndChar
StartChar: circumflex
Encoding: 710 710 156
Width: 1202
Flags: W
LayerCount: 2
Back
Fore
SplineSet
966 1274 m 1,0,-1
 964 1244 l 1,1,-1
 755 1245 l 1,2,-1
 629 1371 l 1,3,-1
 458 1246 l 1,4,-1
 239 1244 l 1,5,-1
 241 1276 l 1,6,-1
 554 1516 l 1,7,-1
 709 1516 l 1,8,-1
 966 1274 l 1,0,-1
EndSplineSet
EndChar
StartChar: caron
Encoding: 711 711 157
Width: 1202
Flags: W
LayerCount: 2
Back
Fore
SplineSet
739 1392 m 1,0,-1
 904 1516 l 1,1,-1
 1142 1519 l 1,2,-1
 1142 1496 l 1,3,-1
 822 1245 l 1,4,-1
 651 1245 l 1,5,-1
 396 1495 l 1,6,-1
 397 1519 l 1,7,-1
 621 1517 l 1,8,-1
 739 1392 l 1,0,-1
EndSplineSet
EndChar
StartChar: breve
Encoding: 728 728 158
Width: 1202
Flags: W
LayerCount: 2
Back
Fore
SplineSet
1072 1443 m 1,0,1
 1067 1372 1067 1372 1037.5 1316.5 c 128,-1,2
 1008 1261 1008 1261 960.5 1223.5 c 128,-1,3
 913 1186 913 1186 851.5 1167 c 128,-1,4
 790 1148 790 1148 721 1149 c 0,5,6
 654 1150 654 1150 597.5 1170.5 c 128,-1,7
 541 1191 541 1191 500 1228.5 c 128,-1,8
 459 1266 459 1266 436 1320 c 128,-1,9
 413 1374 413 1374 414 1443 c 1,10,-1
 607 1442 l 1,11,12
 605 1383 605 1383 632 1346 c 128,-1,13
 659 1309 659 1309 724 1308 c 256,14,15
 789 1307 789 1307 827 1344 c 128,-1,16
 865 1381 865 1381 876 1441 c 1,17,-1
 1072 1443 l 1,0,1
EndSplineSet
EndChar
StartChar: dotaccent
Encoding: 729 729 159
Width: 1202
Flags: W
LayerCount: 2
Back
Fore
SplineSet
590 1358 m 0,0,1
 590 1390 590 1390 601 1416.5 c 128,-1,2
 612 1443 612 1443 631.5 1462.5 c 128,-1,3
 651 1482 651 1482 677.5 1493 c 128,-1,4
 704 1504 704 1504 736 1504 c 0,5,6
 766 1505 766 1505 792.5 1495.5 c 128,-1,7
 819 1486 819 1486 839 1468 c 128,-1,8
 859 1450 859 1450 870.5 1424.5 c 128,-1,9
 882 1399 882 1399 882 1368 c 0,10,11
 882 1336 882 1336 871 1309.5 c 128,-1,12
 860 1283 860 1283 840.5 1264 c 128,-1,13
 821 1245 821 1245 794 1234 c 128,-1,14
 767 1223 767 1223 736 1223 c 0,15,16
 706 1222 706 1222 679.5 1231.5 c 128,-1,17
 653 1241 653 1241 633.5 1259 c 128,-1,18
 614 1277 614 1277 602 1302 c 128,-1,19
 590 1327 590 1327 590 1358 c 0,0,1
EndSplineSet
EndChar
StartChar: ring
Encoding: 730 730 160
Width: 1202
Flags: W
LayerCount: 2
Back
Fore
SplineSet
500 1223 m 0,0,1
 501 1267 501 1267 520 1305 c 128,-1,2
 539 1343 539 1343 569.5 1370.5 c 128,-1,3
 600 1398 600 1398 639.5 1413 c 128,-1,4
 679 1428 679 1428 722 1428 c 0,5,6
 762 1428 762 1428 796.5 1413.5 c 128,-1,7
 831 1399 831 1399 856.5 1373.5 c 128,-1,8
 882 1348 882 1348 896.5 1313.5 c 128,-1,9
 911 1279 911 1279 910 1239 c 0,10,11
 908 1195 908 1195 890 1158 c 128,-1,12
 872 1121 872 1121 842.5 1094 c 128,-1,13
 813 1067 813 1067 774.5 1052.5 c 128,-1,14
 736 1038 736 1038 693 1038 c 0,15,16
 653 1038 653 1038 617.5 1051.5 c 128,-1,17
 582 1065 582 1065 555.5 1089.5 c 128,-1,18
 529 1114 529 1114 514 1148 c 128,-1,19
 499 1182 499 1182 500 1223 c 0,0,1
612 1226 m 0,20,21
 608 1188 608 1188 630.5 1160.5 c 128,-1,22
 653 1133 653 1133 692 1133 c 0,23,24
 713 1133 713 1133 731.5 1141.5 c 128,-1,25
 750 1150 750 1150 764 1164 c 128,-1,26
 778 1178 778 1178 787 1197 c 128,-1,27
 796 1216 796 1216 798 1236 c 0,28,29
 800 1254 800 1254 796 1271.5 c 128,-1,30
 792 1289 792 1289 782.5 1302 c 128,-1,31
 773 1315 773 1315 757.5 1323 c 128,-1,32
 742 1331 742 1331 722 1331 c 0,33,34
 701 1331 701 1331 682 1322.5 c 128,-1,35
 663 1314 663 1314 648 1299.5 c 128,-1,36
 633 1285 633 1285 623.5 1266 c 128,-1,37
 614 1247 614 1247 612 1226 c 0,20,21
EndSplineSet
EndChar
StartChar: ogonek
Encoding: 731 731 161
Width: 1202
Flags: W
LayerCount: 2
Back
Fore
SplineSet
633 -3 m 1,0,1
 604 -16 604 -16 573.5 -32.5 c 128,-1,2
 543 -49 543 -49 517.5 -71 c 128,-1,3
 492 -93 492 -93 475 -121 c 128,-1,4
 458 -149 458 -149 455 -184 c 0,5,6
 453 -211 453 -211 463.5 -227 c 128,-1,7
 474 -243 474 -243 502 -245 c 0,8,9
 522 -246 522 -246 542.5 -239.5 c 128,-1,10
 563 -233 563 -233 582 -225 c 1,11,-1
 618 -382 l 1,12,13
 578 -404 578 -404 533.5 -414 c 128,-1,14
 489 -424 489 -424 443 -423 c 0,15,16
 399 -423 399 -423 362 -408.5 c 128,-1,17
 325 -394 325 -394 298.5 -368 c 128,-1,18
 272 -342 272 -342 257.5 -305.5 c 128,-1,19
 243 -269 243 -269 244 -224 c 0,20,21
 245 -173 245 -173 266.5 -129.5 c 128,-1,22
 288 -86 288 -86 321 -50.5 c 128,-1,23
 354 -15 354 -15 396 12.5 c 128,-1,24
 438 40 438 40 480 61 c 1,25,-1
 633 -3 l 1,0,1
EndSplineSet
EndChar
StartChar: tilde
Encoding: 732 732 162
Width: 1202
Flags: W
LayerCount: 2
Back
Fore
SplineSet
965 1514 m 1,0,1
 962 1468 962 1468 946 1423.5 c 128,-1,2
 930 1379 930 1379 902 1343.5 c 128,-1,3
 874 1308 874 1308 834 1286.5 c 128,-1,4
 794 1265 794 1265 743 1265 c 0,5,6
 705 1265 705 1265 672 1279.5 c 128,-1,7
 639 1294 639 1294 607 1311 c 128,-1,8
 575 1328 575 1328 542.5 1342 c 128,-1,9
 510 1356 510 1356 473 1355 c 0,10,11
 428 1354 428 1354 403.5 1325 c 128,-1,12
 379 1296 379 1296 368 1257 c 1,13,-1
 234 1286 l 1,14,15
 238 1331 238 1331 255 1375.5 c 128,-1,16
 272 1420 272 1420 300.5 1455.5 c 128,-1,17
 329 1491 329 1491 369.5 1512.5 c 128,-1,18
 410 1534 410 1534 460 1534 c 0,19,20
 497 1534 497 1534 530.5 1519.5 c 128,-1,21
 564 1505 564 1505 596 1488 c 128,-1,22
 628 1471 628 1471 660.5 1457 c 128,-1,23
 693 1443 693 1443 730 1444 c 0,24,25
 775 1445 775 1445 800 1473.5 c 128,-1,26
 825 1502 825 1502 836 1541 c 1,27,-1
 965 1514 l 1,0,1
EndSplineSet
EndChar
StartChar: hungarumlaut
Encoding: 733 733 163
Width: 1202
Flags: W
LayerCount: 2
Back
Fore
SplineSet
906 1518 m 1,0,-1
 1192 1518 l 1,1,-1
 849 1253 l 1,2,-1
 622 1253 l 1,3,-1
 906 1518 l 1,0,-1
551 1518 m 1,4,-1
 824 1518 l 1,5,-1
 527 1253 l 1,6,-1
 307 1253 l 1,7,-1
 551 1518 l 1,4,-1
EndSplineSet
EndChar
StartChar: uni02F3
Encoding: 755 755 164
Width: 1202
Flags: W
LayerCount: 2
Back
Fore
SplineSet
286 -228 m 0,0,1
 286 -194 286 -194 300.5 -164.5 c 128,-1,2
 315 -135 315 -135 338 -113.5 c 128,-1,3
 361 -92 361 -92 392 -80 c 128,-1,4
 423 -68 423 -68 456 -68 c 0,5,6
 487 -68 487 -68 515 -79 c 128,-1,7
 543 -90 543 -90 563.5 -109.5 c 128,-1,8
 584 -129 584 -129 596 -156.5 c 128,-1,9
 608 -184 608 -184 607 -216 c 0,10,11
 606 -250 606 -250 592.5 -278 c 128,-1,12
 579 -306 579 -306 556 -326.5 c 128,-1,13
 533 -347 533 -347 503.5 -359 c 128,-1,14
 474 -371 474 -371 441 -371 c 0,15,16
 410 -371 410 -371 381.5 -361 c 128,-1,17
 353 -351 353 -351 331.5 -332.5 c 128,-1,18
 310 -314 310 -314 297.5 -287.5 c 128,-1,19
 285 -261 285 -261 286 -228 c 0,0,1
393 -225 m 1,20,21
 395 -245 395 -245 403 -261 c 128,-1,22
 411 -277 411 -277 436 -277 c 0,23,24
 459 -276 459 -276 477 -258.5 c 128,-1,25
 495 -241 495 -241 498 -219 c 0,26,27
 502 -199 502 -199 492 -181.5 c 128,-1,28
 482 -164 482 -164 459 -164 c 0,29,30
 445 -164 445 -164 434.5 -169 c 128,-1,31
 424 -174 424 -174 416.5 -183 c 128,-1,32
 409 -192 409 -192 403 -203 c 128,-1,33
 397 -214 397 -214 393 -225 c 1,20,21
EndSplineSet
EndChar
StartChar: gravecomb
Encoding: 768 768 165
Width: 1202
Flags: W
LayerCount: 2
Back
Fore
SplineSet
-368 1210 m 1,0,-1
 -521 1210 l 1,1,-1
 -672 1560 l 1,2,-1
 -466 1560 l 1,3,-1
 -368 1210 l 1,0,-1
EndSplineSet
EndChar
StartChar: hook
Encoding: 777 777 168
Width: 1202
Flags: W
LayerCount: 2
Back
Fore
SplineSet
-574 1263 m 1,0,-1
 -568 1400 l 1,1,2
 -550 1402 -550 1402 -525.5 1404.5 c 128,-1,3
 -501 1407 -501 1407 -478.5 1414 c 128,-1,4
 -456 1421 -456 1421 -438.5 1434.5 c 128,-1,5
 -421 1448 -421 1448 -417 1472 c 0,6,7
 -413 1497 -413 1497 -426.5 1509.5 c 128,-1,8
 -440 1522 -440 1522 -460.5 1527.5 c 128,-1,9
 -481 1533 -481 1533 -504.5 1534 c 128,-1,10
 -528 1535 -528 1535 -543 1535 c 1,11,-1
 -526 1668 l 1,12,13
 -497 1667 -497 1667 -460.5 1664 c 128,-1,14
 -424 1661 -424 1661 -386.5 1654 c 128,-1,15
 -349 1647 -349 1647 -313.5 1634 c 128,-1,16
 -278 1621 -278 1621 -250.5 1600.5 c 128,-1,17
 -223 1580 -223 1580 -207 1550.5 c 128,-1,18
 -191 1521 -191 1521 -192 1480 c 0,19,20
 -193 1445 -193 1445 -206.5 1419 c 128,-1,21
 -220 1393 -220 1393 -242.5 1375 c 128,-1,22
 -265 1357 -265 1357 -294 1346 c 128,-1,23
 -323 1335 -323 1335 -354 1329 c 1,24,-1
 -363 1262 l 1,25,-1
 -574 1263 l 1,0,-1
EndSplineSet
EndChar
StartChar: uni030F
Encoding: 783 783 169
Width: 1202
Flags: W
LayerCount: 2
Back
Fore
SplineSet
-370 1252 m 1,0,-1
 -614 1252 l 1,1,-1
 -853 1518 l 1,2,-1
 -562 1518 l 1,3,-1
 -370 1252 l 1,0,-1
-51 1252 m 1,4,-1
 -286 1252 l 1,5,-1
 -477 1518 l 1,6,-1
 -196 1518 l 1,7,-1
 -51 1252 l 1,4,-1
EndSplineSet
EndChar
StartChar: dotbelow
Encoding: 803 803 170
Width: 1202
Flags: W
LayerCount: 2
Back
Fore
SplineSet
-875 -229 m 256,0,1
 -875 -196 -875 -196 -862.5 -169 c 128,-1,2
 -850 -142 -850 -142 -828.5 -122.5 c 128,-1,3
 -807 -103 -807 -103 -778 -92.5 c 128,-1,4
 -749 -82 -749 -82 -717 -82 c 0,5,6
 -686 -82 -686 -82 -658 -91 c 128,-1,7
 -630 -100 -630 -100 -608 -117.5 c 128,-1,8
 -586 -135 -586 -135 -573 -160.5 c 128,-1,9
 -560 -186 -560 -186 -560 -219 c 256,10,11
 -560 -252 -560 -252 -572.5 -279 c 128,-1,12
 -585 -306 -585 -306 -607 -325 c 128,-1,13
 -629 -344 -629 -344 -658 -354.5 c 128,-1,14
 -687 -365 -687 -365 -718 -365 c 256,15,16
 -749 -365 -749 -365 -777 -356 c 128,-1,17
 -805 -347 -805 -347 -827 -330 c 128,-1,18
 -849 -313 -849 -313 -862 -287.5 c 128,-1,19
 -875 -262 -875 -262 -875 -229 c 256,0,1
EndSplineSet
EndChar
StartChar: tonos
Encoding: 900 900 171
Width: 1202
Flags: W
LayerCount: 2
Back
Fore
SplineSet
823 1665 m 1,0,-1
 1103 1665 l 1,1,-1
 822 1266 l 1,2,-1
 675 1266 l 1,3,-1
 823 1665 l 1,0,-1
EndSplineSet
EndChar
StartChar: dieresistonos
Encoding: 901 901 172
Width: 1202
Flags: W
LayerCount: 2
Back
Fore
SplineSet
833 1801 m 1,0,-1
 1106 1801 l 1,1,-1
 887 1477 l 1,2,-1
 734 1477 l 1,3,-1
 833 1801 l 1,0,-1
382 1349 m 256,4,5
 382 1378 382 1378 392.5 1402.5 c 128,-1,6
 403 1427 403 1427 422 1445 c 128,-1,7
 441 1463 441 1463 466 1473.5 c 128,-1,8
 491 1484 491 1484 519 1485 c 256,9,10
 547 1486 547 1486 572 1476.5 c 128,-1,11
 597 1467 597 1467 615.5 1450 c 128,-1,12
 634 1433 634 1433 645.5 1409 c 128,-1,13
 657 1385 657 1385 657 1357 c 0,14,15
 657 1328 657 1328 646 1304 c 128,-1,16
 635 1280 635 1280 616.5 1262 c 128,-1,17
 598 1244 598 1244 573 1234 c 128,-1,18
 548 1224 548 1224 520 1223 c 0,19,20
 493 1222 493 1222 468 1231 c 128,-1,21
 443 1240 443 1240 424 1256.5 c 128,-1,22
 405 1273 405 1273 393.5 1296.5 c 128,-1,23
 382 1320 382 1320 382 1349 c 256,4,5
914 1351 m 256,24,25
 914 1380 914 1380 925 1404.5 c 128,-1,26
 936 1429 936 1429 955 1447 c 128,-1,27
 974 1465 974 1465 999 1475 c 128,-1,28
 1024 1485 1024 1485 1052 1486 c 256,29,30
 1080 1487 1080 1487 1105 1478 c 128,-1,31
 1130 1469 1130 1469 1148.5 1452 c 128,-1,32
 1167 1435 1167 1435 1178.5 1411 c 128,-1,33
 1190 1387 1190 1387 1190 1359 c 0,34,35
 1190 1330 1190 1330 1179.5 1305.5 c 128,-1,36
 1169 1281 1169 1281 1150 1263 c 128,-1,37
 1131 1245 1131 1245 1106 1234.5 c 128,-1,38
 1081 1224 1081 1224 1053 1223 c 256,39,40
 1025 1222 1025 1222 1000 1231 c 128,-1,41
 975 1240 975 1240 956 1257 c 128,-1,42
 937 1274 937 1274 925.5 1298 c 128,-1,43
 914 1322 914 1322 914 1351 c 256,24,25
EndSplineSet
EndChar
StartChar: Delta
Encoding: 916 916 175
AltUni2: 002206.ffffffff.0
Width: 1202
Flags: W
LayerCount: 2
Back
Fore
SplineSet
651 1456 m 1,0,-1
 928 1456 l 1,1,-1
 1134 0 l 1,2,-1
 -75 0 l 1,3,-1
 651 1456 l 1,0,-1
327 226 m 1,4,-1
 830 226 l 1,5,-1
 729 1074 l 1,6,-1
 327 226 l 1,4,-1
EndSplineSet
EndChar
StartChar: Theta
Encoding: 920 920 176
Width: 1202
Flags: W
LayerCount: 2
Back
Fore
SplineSet
797 614 m 1,0,-1
 419 614 l 1,1,-1
 458 837 l 1,2,-1
 836 837 l 1,3,-1
 797 614 l 1,0,-1
1130 622 m 2,4,5
 1117 541 1117 541 1092 461 c 128,-1,6
 1067 381 1067 381 1028.5 309 c 128,-1,7
 990 237 990 237 938.5 175.5 c 128,-1,8
 887 114 887 114 822 70 c 128,-1,9
 757 26 757 26 679 2 c 128,-1,10
 601 -22 601 -22 509 -20 c 0,11,12
 422 -18 422 -18 354.5 9.5 c 128,-1,13
 287 37 287 37 237.5 83.5 c 128,-1,14
 188 130 188 130 156 191.5 c 128,-1,15
 124 253 124 253 107 323.5 c 128,-1,16
 90 394 90 394 87 470 c 128,-1,17
 84 546 84 546 94 621 c 2,18,-1
 127 833 l 2,19,20
 139 913 139 913 163.5 992.5 c 128,-1,21
 188 1072 188 1072 224.5 1144 c 128,-1,22
 261 1216 261 1216 311 1278 c 128,-1,23
 361 1340 361 1340 424 1384.5 c 128,-1,24
 487 1429 487 1429 564 1453.5 c 128,-1,25
 641 1478 641 1478 732 1476 c 0,26,27
 820 1474 820 1474 888.5 1447 c 128,-1,28
 957 1420 957 1420 1008.5 1373.5 c 128,-1,29
 1060 1327 1060 1327 1094 1265.5 c 128,-1,30
 1128 1204 1128 1204 1146.5 1133.5 c 128,-1,31
 1165 1063 1165 1063 1169 986 c 128,-1,32
 1173 909 1173 909 1163 833 c 2,33,-1
 1130 622 l 2,4,5
885 836 m 2,34,35
 890 873 890 873 893 917 c 128,-1,36
 896 961 896 961 893.5 1005.5 c 128,-1,37
 891 1050 891 1050 881 1092 c 128,-1,38
 871 1134 871 1134 850 1167 c 128,-1,39
 829 1200 829 1200 795 1221 c 128,-1,40
 761 1242 761 1242 710 1244 c 0,41,42
 655 1246 655 1246 613 1228.5 c 128,-1,43
 571 1211 571 1211 539.5 1179.5 c 128,-1,44
 508 1148 508 1148 485 1106.5 c 128,-1,45
 462 1065 462 1065 446.5 1019 c 128,-1,46
 431 973 431 973 421 925.5 c 128,-1,47
 411 878 411 878 405 835 c 2,48,-1
 372 620 l 2,49,50
 367 585 367 585 363.5 542 c 128,-1,51
 360 499 360 499 360.5 454 c 128,-1,52
 361 409 361 409 369 366 c 128,-1,53
 377 323 377 323 396 289 c 128,-1,54
 415 255 415 255 447.5 233.5 c 128,-1,55
 480 212 480 212 531 210 c 0,56,57
 585 208 585 208 628 225.5 c 128,-1,58
 671 243 671 243 704.5 274 c 128,-1,59
 738 305 738 305 763 347 c 128,-1,60
 788 389 788 389 805.5 435.5 c 128,-1,61
 823 482 823 482 834 530 c 128,-1,62
 845 578 845 578 852 621 c 2,63,-1
 885 836 l 2,34,35
EndSplineSet
EndChar
StartChar: Lambda
Encoding: 923 923 177
Width: 1202
Flags: W
LayerCount: 2
Back
Fore
SplineSet
681 1076 m 1,0,-1
 207 0 l 1,1,-1
 -87 0 l 1,2,-1
 601 1456 l 1,3,-1
 878 1456 l 1,4,-1
 1061 0 l 1,5,-1
 782 0 l 1,6,-1
 681 1076 l 1,0,-1
EndSplineSet
EndChar
StartChar: Xi
Encoding: 926 926 178
Width: 1202
Flags: W
LayerCount: 2
Back
Fore
SplineSet
52 226 m 1,0,-1
 1000 226 l 1,1,-1
 960 0 l 1,2,-1
 13 0 l 1,3,-1
 52 226 l 1,0,-1
265 849 m 1,4,-1
 1000 849 l 1,5,-1
 961 630 l 1,6,-1
 226 630 l 1,7,-1
 265 849 l 1,4,-1
284 1456 m 1,8,-1
 1178 1456 l 1,9,-1
 1138 1228 l 1,10,-1
 244 1228 l 1,11,-1
 284 1456 l 1,8,-1
EndSplineSet
EndChar
StartChar: Sigma
Encoding: 931 931 180
Width: 1202
Flags: W
LayerCount: 2
Back
Fore
SplineSet
854 725 m 1,0,-1
 418 225 l 1,1,-1
 1046 225 l 1,2,-1
 1007 1 l 1,3,-1
 3 1 l 1,4,-1
 31 163 l 1,5,-1
 567 745 l 1,6,-1
 231 1316 l 1,7,-1
 256 1456 l 1,8,-1
 1231 1456 l 1,9,-1
 1191 1228 l 1,10,-1
 579 1228 l 1,11,-1
 855 743 l 1,12,-1
 854 725 l 1,0,-1
EndSplineSet
EndChar
StartChar: Phi
Encoding: 934 934 181
Width: 1202
Flags: W
LayerCount: 2
Back
Fore
SplineSet
889 1258 m 1,0,1
 988 1241 988 1241 1059.5 1191.5 c 128,-1,2
 1131 1142 1131 1142 1175.5 1070 c 128,-1,3
 1220 998 1220 998 1237 909.5 c 128,-1,4
 1254 821 1254 821 1245 727 c 0,5,6
 1234 617 1234 617 1191.5 523.5 c 128,-1,7
 1149 430 1149 430 1080 359.5 c 128,-1,8
 1011 289 1011 289 918.5 245 c 128,-1,9
 826 201 826 201 716 189 c 1,10,-1
 677 0 l 1,11,-1
 404 0 l 1,12,-1
 443 191 l 1,13,14
 345 206 345 206 273 254 c 128,-1,15
 201 302 201 302 156 372 c 128,-1,16
 111 442 111 442 93 529.5 c 128,-1,17
 75 617 75 617 84 711 c 0,18,19
 95 822 95 822 137.5 917.5 c 128,-1,20
 180 1013 180 1013 249 1085 c 128,-1,21
 318 1157 318 1157 411 1202.5 c 128,-1,22
 504 1248 504 1248 616 1260 c 1,23,-1
 656 1456 l 1,24,-1
 930 1456 l 1,25,-1
 889 1258 l 1,0,1
353 709 m 0,26,27
 348 667 348 667 349 624.5 c 128,-1,28
 350 582 350 582 363 544.5 c 128,-1,29
 376 507 376 507 402 478 c 128,-1,30
 428 449 428 449 473 433 c 1,31,-1
 587 1018 l 1,32,33
 533 1002 533 1002 492 972 c 128,-1,34
 451 942 451 942 422.5 901.5 c 128,-1,35
 394 861 394 861 377 812 c 128,-1,36
 360 763 360 763 353 709 c 0,26,27
975 728 m 0,37,38
 980 770 980 770 979.5 814 c 128,-1,39
 979 858 979 858 967 897.5 c 128,-1,40
 955 937 955 937 929.5 968 c 128,-1,41
 904 999 904 999 859 1016 c 1,42,-1
 745 432 l 1,43,44
 797 447 797 447 837 475.5 c 128,-1,45
 877 504 877 504 905.5 543 c 128,-1,46
 934 582 934 582 951 629 c 128,-1,47
 968 676 968 676 975 728 c 0,37,38
EndSplineSet
EndChar
StartChar: Psi
Encoding: 936 936 182
Width: 1202
Flags: W
LayerCount: 2
Back
Fore
SplineSet
773 572 m 1,0,1
 827 589 827 589 864 621 c 128,-1,2
 901 653 901 653 925 695.5 c 128,-1,3
 949 738 949 738 962.5 788 c 128,-1,4
 976 838 976 838 984 890 c 2,5,-1
 1080 1456 l 1,6,-1
 1355 1456 l 1,7,-1
 1259 890 l 2,8,9
 1243 779 1243 779 1204 685.5 c 128,-1,10
 1165 592 1165 592 1101.5 521 c 128,-1,11
 1038 450 1038 450 949.5 404.5 c 128,-1,12
 861 359 861 359 746 345 c 1,13,-1
 679 0 l 1,14,-1
 406 0 l 1,15,-1
 473 346 l 1,16,17
 366 361 366 361 293 410.5 c 128,-1,18
 220 460 220 460 177.5 533.5 c 128,-1,19
 135 607 135 607 121.5 699 c 128,-1,20
 108 791 108 791 120 890 c 1,21,-1
 215 1456 l 1,22,-1
 489 1456 l 1,23,-1
 394 889 l 2,24,25
 388 845 388 845 386 797.5 c 128,-1,26
 384 750 384 750 393.5 706.5 c 128,-1,27
 403 663 403 663 427.5 628 c 128,-1,28
 452 593 452 593 500 574 c 1,29,-1
 659 1456 l 1,30,-1
 932 1456 l 1,31,-1
 773 572 l 1,0,1
EndSplineSet
EndChar
StartChar: Omega
Encoding: 937 937 183
AltUni2: 002126.ffffffff.0
Width: 1202
Flags: W
LayerCount: 2
Back
Fore
SplineSet
596 271 m 1,0,1
 644 292 644 292 680 327 c 128,-1,2
 716 362 716 362 743 406 c 128,-1,3
 770 450 770 450 788.5 501 c 128,-1,4
 807 552 807 552 820 604.5 c 128,-1,5
 833 657 833 657 841 708 c 128,-1,6
 849 759 849 759 855 805 c 2,7,-1
 862 859 l 2,8,9
 866 890 866 890 869 930.5 c 128,-1,10
 872 971 872 971 870.5 1013.5 c 128,-1,11
 869 1056 869 1056 861.5 1097 c 128,-1,12
 854 1138 854 1138 836 1170.5 c 128,-1,13
 818 1203 818 1203 788 1224 c 128,-1,14
 758 1245 758 1245 712 1247 c 0,15,16
 662 1249 662 1249 623 1232 c 128,-1,17
 584 1215 584 1215 554 1184.5 c 128,-1,18
 524 1154 524 1154 502 1113 c 128,-1,19
 480 1072 480 1072 465 1028 c 128,-1,20
 450 984 450 984 440.5 939 c 128,-1,21
 431 894 431 894 426 856 c 2,22,-1
 420 804 l 2,23,24
 416 772 416 772 409 725.5 c 128,-1,25
 402 679 402 679 397.5 626.5 c 128,-1,26
 393 574 393 574 393 519.5 c 128,-1,27
 393 465 393 465 402.5 416.5 c 128,-1,28
 412 368 412 368 433.5 330 c 128,-1,29
 455 292 455 292 493 272 c 1,30,-1
 449 0 l 1,31,-1
 -8 0 l 1,32,-1
 33 228 l 1,33,-1
 292 231 l 1,34,35
 189 354 189 354 145 499 c 128,-1,36
 101 644 101 644 120 805 c 2,37,-1
 126 856 l 2,38,39
 137 935 137 935 162 1012 c 128,-1,40
 187 1089 187 1089 225.5 1158.5 c 128,-1,41
 264 1228 264 1228 315.5 1287.5 c 128,-1,42
 367 1347 367 1347 431 1389.5 c 128,-1,43
 495 1432 495 1432 571 1455 c 128,-1,44
 647 1478 647 1478 735 1476 c 0,45,46
 819 1474 819 1474 885.5 1448 c 128,-1,47
 952 1422 952 1422 1002.5 1377.5 c 128,-1,48
 1053 1333 1053 1333 1087.5 1273.5 c 128,-1,49
 1122 1214 1122 1214 1141.5 1146 c 128,-1,50
 1161 1078 1161 1078 1166 1004 c 128,-1,51
 1171 930 1171 930 1163 856 c 2,52,-1
 1156 805 l 2,53,54
 1144 715 1144 715 1113 631 c 128,-1,55
 1082 547 1082 547 1034.5 472.5 c 128,-1,56
 987 398 987 398 923.5 335 c 128,-1,57
 860 272 860 272 782 224 c 1,58,-1
 1050 228 l 1,59,-1
 1009 0 l 1,60,-1
 552 0 l 1,61,-1
 596 271 l 1,0,1
EndSplineSet
EndChar
StartChar: alpha
Encoding: 945 945 184
Width: 1202
Flags: W
LayerCount: 2
Back
Fore
SplineSet
1082 1082 m 1,0,-1
 953 320 l 2,1,2
 951 305 951 305 949.5 287 c 128,-1,3
 948 269 948 269 951 253 c 128,-1,4
 954 237 954 237 963.5 225 c 128,-1,5
 973 213 973 213 993 212 c 0,6,7
 1004 210 1004 210 1014 212 c 128,-1,8
 1024 214 1024 214 1035 216 c 1,9,-1
 1037 4 l 1,10,11
 984 -21 984 -21 920 -19 c 0,12,13
 883 -19 883 -19 848 -11 c 128,-1,14
 813 -3 813 -3 783.5 13.5 c 128,-1,15
 754 30 754 30 731 56.5 c 128,-1,16
 708 83 708 83 695 120 c 1,17,18
 636 54 636 54 565 16 c 128,-1,19
 494 -22 494 -22 403 -20 c 0,20,21
 333 -19 333 -19 280.5 5 c 128,-1,22
 228 29 228 29 191 69 c 128,-1,23
 154 109 154 109 131 161 c 128,-1,24
 108 213 108 213 96.5 271 c 128,-1,25
 85 329 85 329 83.5 390 c 128,-1,26
 82 451 82 451 88 508 c 2,27,-1
 90 530 l 2,28,29
 98 594 98 594 115 662 c 128,-1,30
 132 730 132 730 158.5 794.5 c 128,-1,31
 185 859 185 859 223 915.5 c 128,-1,32
 261 972 261 972 310.5 1014.5 c 128,-1,33
 360 1057 360 1057 423 1080.5 c 128,-1,34
 486 1104 486 1104 563 1102 c 0,35,36
 641 1100 641 1100 704.5 1065.5 c 128,-1,37
 768 1031 768 1031 809 964 c 1,38,-1
 889 1082 l 1,39,-1
 1082 1082 l 1,0,-1
361 505 m 2,40,41
 358 478 358 478 356 446 c 128,-1,42
 354 414 354 414 355.5 381 c 128,-1,43
 357 348 357 348 363.5 316.5 c 128,-1,44
 370 285 370 285 385.5 260.5 c 128,-1,45
 401 236 401 236 425.5 220.5 c 128,-1,46
 450 205 450 205 488 204 c 0,47,48
 542 202 542 202 587 221 c 128,-1,49
 632 240 632 240 670 276 c 1,50,51
 672 288 672 288 674 299.5 c 128,-1,52
 676 311 676 311 678 323 c 2,53,-1
 764 806 l 1,54,55
 738 845 738 845 698.5 861.5 c 128,-1,56
 659 878 659 878 612 880 c 0,57,58
 567 881 567 881 532.5 864.5 c 128,-1,59
 498 848 498 848 471.5 820.5 c 128,-1,60
 445 793 445 793 426.5 757 c 128,-1,61
 408 721 408 721 395 681.5 c 128,-1,62
 382 642 382 642 374.5 601.5 c 128,-1,63
 367 561 367 561 363 526 c 2,64,-1
 361 505 l 2,40,41
EndSplineSet
EndChar
StartChar: beta
Encoding: 946 946 185
Width: 1202
Flags: W
LayerCount: 2
Back
Fore
SplineSet
753 1477 m 0,0,1
 840 1475 840 1475 916 1449 c 128,-1,2
 992 1423 992 1423 1047 1374.5 c 128,-1,3
 1102 1326 1102 1326 1131 1254.5 c 128,-1,4
 1160 1183 1160 1183 1153 1090 c 0,5,6
 1148 1033 1148 1033 1128.5 985.5 c 128,-1,7
 1109 938 1109 938 1077 898 c 128,-1,8
 1045 858 1045 858 1003.5 825.5 c 128,-1,9
 962 793 962 793 914 767 c 1,10,11
 965 743 965 743 1001.5 707 c 128,-1,12
 1038 671 1038 671 1060.5 626 c 128,-1,13
 1083 581 1083 581 1091.5 529.5 c 128,-1,14
 1100 478 1100 478 1096 423 c 0,15,16
 1088 321 1088 321 1049 238 c 128,-1,17
 1010 155 1010 155 946 96.5 c 128,-1,18
 882 38 882 38 795.5 7 c 128,-1,19
 709 -24 709 -24 607 -22 c 0,20,21
 460 -20 460 -20 337 60 c 1,22,-1
 249 -402 l 1,23,-1
 -21 -402 l 1,24,-1
 225 1038 l 2,25,26
 239 1137 239 1137 286 1218.5 c 128,-1,27
 333 1300 333 1300 403.5 1358.5 c 128,-1,28
 474 1417 474 1417 564 1448 c 128,-1,29
 654 1479 654 1479 753 1477 c 0,0,1
651 857 m 2,30,31
 751 859 751 859 808 916.5 c 128,-1,32
 865 974 865 974 876 1071 c 0,33,34
 880 1108 880 1108 872.5 1141 c 128,-1,35
 865 1174 865 1174 846.5 1198.5 c 128,-1,36
 828 1223 828 1223 799 1238 c 128,-1,37
 770 1253 770 1253 731 1254 c 0,38,39
 683 1255 683 1255 643.5 1238.5 c 128,-1,40
 604 1222 604 1222 573.5 1192.5 c 128,-1,41
 543 1163 543 1163 523 1123 c 128,-1,42
 503 1083 503 1083 496 1039 c 2,43,-1
 363 264 l 1,44,45
 404 228 404 228 457 214 c 128,-1,46
 510 200 510 200 564 200 c 0,47,48
 615 200 615 200 660 216 c 128,-1,49
 705 232 705 232 740.5 261.5 c 128,-1,50
 776 291 776 291 799.5 333 c 128,-1,51
 823 375 823 375 830 426 c 0,52,53
 836 470 836 470 830 510 c 128,-1,54
 824 550 824 550 805 581 c 128,-1,55
 786 612 786 612 753 631 c 128,-1,56
 720 650 720 650 672 652 c 2,57,-1
 558 653 l 1,58,-1
 588 858 l 1,59,-1
 651 857 l 2,30,31
EndSplineSet
EndChar
StartChar: gamma
Encoding: 947 947 186
Width: 1202
Flags: W
LayerCount: 2
Back
Fore
SplineSet
967 1082 m 1,0,-1
 1260 1082 l 1,1,-1
 636 5 l 1,2,-1
 563 -417 l 1,3,-1
 292 -417 l 1,4,-1
 371 37 l 1,5,-1
 127 1082 l 1,6,-1
 401 1082 l 1,7,-1
 538 309 l 1,8,-1
 539 242 l 1,9,-1
 569 315 l 1,10,-1
 967 1082 l 1,0,-1
EndSplineSet
EndChar
StartChar: delta
Encoding: 948 948 187
Width: 1202
Flags: W
LayerCount: 2
Back
Fore
SplineSet
343 1243 m 0,0,1
 347 1330 347 1330 386 1392.5 c 128,-1,2
 425 1455 425 1455 485 1495.5 c 128,-1,3
 545 1536 545 1536 621 1554.5 c 128,-1,4
 697 1573 697 1573 775 1572 c 0,5,6
 814 1571 814 1571 852.5 1564 c 128,-1,7
 891 1557 891 1557 928 1546 c 128,-1,8
 965 1535 965 1535 1001.5 1521 c 128,-1,9
 1038 1507 1038 1507 1074 1492 c 1,10,-1
 1014 1309 l 1,11,12
 958 1329 958 1329 901.5 1346 c 128,-1,13
 845 1363 845 1363 785 1362 c 0,14,15
 757 1362 757 1362 727.5 1356 c 128,-1,16
 698 1350 698 1350 671.5 1337 c 128,-1,17
 645 1324 645 1324 626 1303 c 128,-1,18
 607 1282 607 1282 600 1251 c 0,19,20
 594 1223 594 1223 605 1201.5 c 128,-1,21
 616 1180 616 1180 636 1163.5 c 128,-1,22
 656 1147 656 1147 680.5 1135.5 c 128,-1,23
 705 1124 705 1124 725 1115 c 0,24,25
 819 1075 819 1075 895 1021 c 128,-1,26
 971 967 971 967 1021.5 897 c 128,-1,27
 1072 827 1072 827 1095 739.5 c 128,-1,28
 1118 652 1118 652 1107 545 c 2,29,-1
 1105 524 l 2,30,31
 1091 408 1091 408 1042.5 307.5 c 128,-1,32
 994 207 994 207 917.5 133.5 c 128,-1,33
 841 60 841 60 739.5 18.5 c 128,-1,34
 638 -23 638 -23 517 -20 c 0,35,36
 403 -18 403 -18 315.5 23.5 c 128,-1,37
 228 65 228 65 171 136 c 128,-1,38
 114 207 114 207 89 302 c 128,-1,39
 64 397 64 397 74 507 c 2,40,-1
 76 528 l 2,41,42
 86 610 86 610 118 683.5 c 128,-1,43
 150 757 150 757 201.5 814.5 c 128,-1,44
 253 872 253 872 321 912 c 128,-1,45
 389 952 389 952 471 968 c 1,46,-1
 482 989 l 1,47,48
 413 1031 413 1031 376 1096.5 c 128,-1,49
 339 1162 339 1162 343 1243 c 0,0,1
350 527 m 2,50,51
 344 474 344 474 348 417 c 128,-1,52
 352 360 352 360 371.5 312.5 c 128,-1,53
 391 265 391 265 431 234 c 128,-1,54
 471 203 471 203 537 201 c 0,55,56
 607 199 607 199 659.5 228.5 c 128,-1,57
 712 258 712 258 748.5 306.5 c 128,-1,58
 785 355 785 355 806.5 416 c 128,-1,59
 828 477 828 477 837 537 c 2,60,-1
 840 556 l 2,61,62
 845 601 845 601 837 654.5 c 128,-1,63
 829 708 829 708 806.5 755 c 128,-1,64
 784 802 784 802 746.5 836 c 128,-1,65
 709 870 709 870 655 877 c 0,66,67
 610 883 610 883 571 871 c 128,-1,68
 532 859 532 859 500 834.5 c 128,-1,69
 468 810 468 810 442.5 776 c 128,-1,70
 417 742 417 742 398.5 703.5 c 128,-1,71
 380 665 380 665 368.5 624.5 c 128,-1,72
 357 584 357 584 352 547 c 2,73,-1
 350 527 l 2,50,51
EndSplineSet
EndChar
StartChar: epsilon
Encoding: 949 949 188
Width: 1202
Flags: W
LayerCount: 2
Back
Fore
SplineSet
624 459 m 2,0,1
 585 459 585 459 540.5 455 c 128,-1,2
 496 451 496 451 456.5 436.5 c 128,-1,3
 417 422 417 422 388 394 c 128,-1,4
 359 366 359 366 352 318 c 0,5,6
 346 277 346 277 366 252 c 128,-1,7
 386 227 386 227 419 213 c 128,-1,8
 452 199 452 199 490 194 c 128,-1,9
 528 189 528 189 557 189 c 0,10,11
 592 188 592 188 634 193 c 128,-1,12
 676 198 676 198 714.5 212.5 c 128,-1,13
 753 227 753 227 782 253 c 128,-1,14
 811 279 811 279 820 320 c 1,15,-1
 1092 320 l 1,16,17
 1087 255 1087 255 1061 204 c 128,-1,18
 1035 153 1035 153 994 115 c 128,-1,19
 953 77 953 77 901 50.5 c 128,-1,20
 849 24 849 24 791 8 c 128,-1,21
 733 -8 733 -8 673.5 -14.5 c 128,-1,22
 614 -21 614 -21 558 -20 c 0,23,24
 509 -19 509 -19 454 -12.5 c 128,-1,25
 399 -6 399 -6 344.5 8 c 128,-1,26
 290 22 290 22 240.5 46 c 128,-1,27
 191 70 191 70 153.5 105 c 128,-1,28
 116 140 116 140 95.5 187.5 c 128,-1,29
 75 235 75 235 78 298 c 0,30,31
 81 354 81 354 102.5 396.5 c 128,-1,32
 124 439 124 439 158.5 470.5 c 128,-1,33
 193 502 193 502 238 524 c 128,-1,34
 283 546 283 546 331 563 c 1,35,36
 299 579 299 579 271.5 600.5 c 128,-1,37
 244 622 244 622 223 649 c 128,-1,38
 202 676 202 676 190.5 708 c 128,-1,39
 179 740 179 740 180 778 c 0,40,41
 182 845 182 845 208 895.5 c 128,-1,42
 234 946 234 946 276.5 982 c 128,-1,43
 319 1018 319 1018 373.5 1041.5 c 128,-1,44
 428 1065 428 1065 487 1078.5 c 128,-1,45
 546 1092 546 1092 606 1097 c 128,-1,46
 666 1102 666 1102 719 1101 c 0,47,48
 796 1099 796 1099 874.5 1080.5 c 128,-1,49
 953 1062 953 1062 1017 1022.5 c 128,-1,50
 1081 983 1081 983 1121.5 921 c 128,-1,51
 1162 859 1162 859 1162 770 c 1,52,-1
 894 771 l 1,53,54
 893 808 893 808 873 831.5 c 128,-1,55
 853 855 853 855 823.5 867.5 c 128,-1,56
 794 880 794 880 759 884.5 c 128,-1,57
 724 889 724 889 694 889 c 0,58,59
 660 889 660 889 619.5 884.5 c 128,-1,60
 579 880 579 880 543 865.5 c 128,-1,61
 507 851 507 851 480 825.5 c 128,-1,62
 453 800 453 800 446 759 c 0,63,64
 439 720 439 720 457 697.5 c 128,-1,65
 475 675 475 675 504 664 c 128,-1,66
 533 653 533 653 568 650 c 128,-1,67
 603 647 603 647 630 646 c 2,68,-1
 868 646 l 1,69,-1
 835 458 l 1,70,-1
 624 459 l 2,0,1
EndSplineSet
EndChar
